<svg width="300" height="220" viewBox="0 0 300 220" fill="none" xmlns="http://www.w3.org/2000/svg">
<path d="M61.0198 94.3448C56.6781 86.0281 35.9466 61.7435 30.9577 82.7326C27.979 95.265 29.8259 115.206 35.2164 126.843C37.0354 131.794 42.1468 136.961 46.4258 139.806C49.9965 142.262 51.5861 143.057 55.6908 144.448C56.7874 144.706 58.3198 145.164 59.3945 145.045L58.1475 141.111C57.2418 137.773 56.7572 135.999 56.182 132.512C55.6606 127.79 55.519 123.471 55.3455 118.715C55.9379 112.189 56.9049 105.788 59.2015 99.6221C59.8513 97.8781 60.6147 96.1668 61.0198 94.3448Z" fill="#8684FF"/>
<path d="M36.354 118.058C36.3551 120.71 37.5806 125.564 35.216 126.843C37.0349 131.794 42.1463 136.96 46.4254 139.806C49.996 142.262 51.5857 143.057 55.6903 144.448C56.787 144.706 58.3194 145.164 59.3941 145.044L58.147 141.111C57.2414 137.772 56.7567 135.999 56.1815 132.512C55.6601 127.789 55.5185 123.471 55.345 118.715C54.7324 120.009 53.2149 122.74 52.2572 123.752C45.1607 129.537 39.6996 124.986 36.354 118.058Z" fill="#FFDCF8"/>
<path d="M55.3459 118.715C54.7332 120.009 53.2157 122.74 52.2581 123.752C52.2929 125.056 53.099 136.628 53.1869 136.296C54.6859 135.253 55.2441 134.069 56.1824 132.512C55.661 127.79 55.5194 123.471 55.3459 118.715Z" fill="#C47CDD"/>
<path d="M58.1484 141.109C57.2428 137.771 56.7581 135.997 56.183 132.51C55.2447 134.067 54.6865 135.251 53.1875 136.294C49.1185 136.814 47.6278 134.379 44.0131 133.893C46.4812 135.683 48.9521 137.904 51.9207 138.28C54.5854 139.411 55.4096 140.602 58.1484 141.109Z" fill="#C86FC5"/>
<path d="M58.1471 141.11C55.4083 140.603 54.5841 139.413 51.9194 138.282C53.3821 139.804 55.7414 142.183 55.6904 144.448C56.7871 144.706 58.3195 145.164 59.3942 145.044L58.1471 141.11Z" fill="#C47CDD"/>
<path d="M70.6478 164.723C64.5114 166.592 58.9951 168.309 52.5703 168.963C51.7415 169.048 50.4796 169.503 50.1608 169.526C49.0996 170.183 47.1415 171.321 46.1912 172.006C41.6077 174.067 31.953 179.027 40.0197 184.065C44.3961 187.404 53.4749 190.481 58.9166 189.597C68.4664 189.603 70.3154 186.361 77.3688 184.592L76.0808 188.184C74.6966 191.507 70.6531 198.959 71.885 202.159C73.4127 206.127 84.1608 202.458 86.7511 201.224C90.0889 199.635 94.8483 196.979 96.4337 193.562C97.3484 192.281 97.5623 191.11 97.9646 189.605C98.4182 187.589 98.513 186.929 98.5725 184.868C97.8064 184.424 94.8312 183.31 93.8632 182.927C90.5381 181.543 84.1075 177.226 81.2281 175.05C77.3781 171.955 73.8351 168.497 70.6478 164.723Z" fill="#FFDCF8"/>
<path d="M93.8623 182.93C90.5372 181.546 84.1067 177.228 81.2272 175.052L80.6059 176.522C73.0325 185.407 69.5735 186.026 58.2509 185.769L58.3631 186.374L57.7132 186.916L62.0254 188.3L62.0435 188.735C60.5587 189.436 60.1344 189.133 58.9157 189.6C68.4655 189.605 70.3145 186.363 77.3679 184.594L76.08 188.186C74.6957 191.509 70.6522 198.961 71.8841 202.162C73.4118 206.13 84.1599 202.461 86.7502 201.227C90.088 199.638 94.8475 196.981 96.4328 193.564C97.3475 192.284 97.5614 191.112 97.9637 189.608C98.4173 187.591 98.5121 186.932 98.5717 184.87C97.8055 184.426 94.8303 183.312 93.8623 182.93Z" fill="#C86FC5"/>
<path d="M79.4056 188C77.8739 187.556 77.7054 187.692 76.0809 188.186C74.6966 191.509 70.6531 198.961 71.885 202.162C73.4127 206.13 84.1608 202.461 86.7511 201.227C90.0889 199.638 94.8484 196.981 96.4337 193.564C94.6294 193.159 91.1215 195.447 89.1952 196.471C85.5608 198.034 81.0262 198.335 77.1347 198.49C77.8112 194.714 78.2434 191.682 79.4056 188Z" fill="#E9A7D1"/>
<path d="M93.0245 192.584C92.9146 190.228 92.1564 184.338 88.8396 184.75C84.3856 185.303 82.2712 190.682 79.5003 193.355C79.1681 194.704 78.5571 195.907 79.0894 196.866C81.5268 197.777 86.6087 196.265 89.0338 195.447C90.9009 194.557 91.5347 193.949 93.0245 192.584Z" fill="#8684FF"/>
<path d="M93.6998 184.114C85.2657 179.119 81.0443 185.663 79.5 193.356C82.2708 190.683 84.3853 185.303 88.8393 184.751C92.156 184.339 92.9142 190.229 93.0242 192.585C93.4162 192.28 94.3648 191.265 94.7638 190.857L95.0331 191.352C96.1568 191.314 95.6162 189.934 97.0779 189.252L97.9641 189.607C98.4176 187.591 98.5125 186.931 98.572 184.87C97.8059 184.426 94.8307 183.312 93.8627 182.93L93.6998 184.114Z" fill="#FFDCF8"/>
<path d="M79.4055 187.999C80.3273 187.424 81.3125 183.823 80.8953 182.729C79.7673 182.777 78.5368 183.792 77.464 184.476L77.3687 184.593L76.0808 188.185C77.7053 187.691 77.8738 187.555 79.4055 187.999Z" fill="#FFDCF8"/>
<path d="M46.1919 172.008C41.6085 174.069 31.9538 179.029 40.0205 184.067C43.4713 183.843 44.6687 184.041 48.3247 183.461C46.144 180.191 45.3257 179.27 48.7358 176.336C51.1803 174.232 53.5589 172.882 56.3394 171.337C53.2612 171.716 49.1746 172.358 46.1919 172.008Z" fill="#8684FF"/>
<path d="M58.2522 185.769C54.1878 185.203 53.2823 183.653 49.6859 182.416L49.5486 182.785L49.9746 182.505L49.9855 183.109C53.3383 185.391 53.8448 185.792 57.7145 186.916L58.3644 186.374L58.2522 185.769Z" fill="#73006E"/>
<path d="M72.1662 169.992L72.0209 169.984C64.2759 169.611 56.2015 173.494 50.5153 178.629C51.6416 179.637 52.3217 180.123 53.5791 180.968C63.3337 184.141 80.2983 174.262 72.1662 169.992Z" fill="#F4C2D3"/>
<path d="M66.3955 173.294C63.9447 173.03 57.447 174.879 55.6622 176.96C55.4704 177.184 55.6549 177.809 55.7028 178.142C58.0279 178.568 59.3156 178.403 61.6266 178.189C63.4324 176.786 66.0421 175.284 66.3955 173.294Z" fill="#8684FF"/>
<path d="M40.939 140.233C35.5207 140.308 22.1562 139.752 18.1863 143.327C17.4511 143.989 17.2213 145.017 17.0947 145.981C14.8374 155.726 33.0665 169.374 41.5071 168.787C42.9272 169.09 49.8907 169.374 50.1607 169.528C50.4795 169.505 51.7414 169.05 52.5703 168.966C58.995 168.312 64.5113 166.594 70.6477 164.726C69.3164 163.156 68.2229 161.659 67.0067 159.999C64.1385 155.483 62.0635 151.662 59.9966 146.708L59.3948 145.045C58.3201 145.164 56.7877 144.707 55.691 144.449C51.5864 143.057 49.9967 142.262 46.426 139.806L45.1164 140.032L40.939 140.233Z" fill="#8684FF"/>
<path d="M21.7818 149.635C20.0349 147.898 19.3628 146.556 17.914 145.058L17.5347 146.305L17.094 145.98C14.8366 155.725 33.0657 169.373 41.5064 168.786C42.9265 169.089 49.8899 169.373 50.16 169.527C50.4788 169.505 51.7407 169.049 52.5695 168.965C58.9942 168.311 64.5106 166.594 70.647 164.725C69.3157 163.155 68.2222 161.659 67.006 159.998C64.1378 155.483 62.0627 151.662 59.9958 146.708L57.396 146.257C57.2523 146.501 56.6821 147.36 56.7495 147.524C57.646 149.713 60.622 151.738 60.261 154.405C58.6761 163.61 36.577 160.906 30.7098 152.66C31.2006 152.843 27.7403 150.356 27.9582 150.535L27.3976 150.262L27.0985 150.527C26.5904 150.413 26.4232 150.188 26.0403 149.836C24.1464 150.256 23.6269 150.065 21.7818 149.635Z" fill="#FFDCF8"/>
<path d="M67.0065 159.997C63.963 165.391 49.3172 166.417 43.9382 166.202L43.9717 166.471C48.147 166.924 55.6809 166.106 59.8456 164.931C60.7344 164.681 65.5189 162.358 66.5996 161.841C67.4254 162.992 66.8977 163.703 67.8161 164.756C67.7208 164.891 67.6065 165.054 67.4729 165.245C64.5615 165.606 60.9909 167.195 58.3309 167.803C53.5346 168.9 45.6675 168.055 41.5068 168.785C42.9269 169.087 49.8904 169.371 50.1604 169.526C50.4793 169.503 51.7412 169.048 52.57 168.963C58.9947 168.309 64.511 166.592 70.6474 164.723C69.3162 163.154 68.2226 161.657 67.0065 159.997Z" fill="#73006E"/>
<path d="M27.9593 150.536L27.3987 150.264C27.3445 154.707 29.1947 158.149 32.2119 161.26C33.6737 162.766 38.5639 167.367 40.527 165.444C39.8956 164.672 38.4163 164.417 37.3076 163.871C31.6333 161.078 28.814 156.694 27.9593 150.536Z" fill="#C86FC5"/>
<path d="M40.9395 140.233C35.5212 140.308 22.1566 139.752 18.1867 143.327C17.4516 143.989 17.2218 145.017 17.0952 145.981L17.5359 146.306L17.9152 145.058C19.364 146.557 20.0361 147.898 21.783 149.636C23.6281 150.066 24.1476 150.256 26.0415 149.836C29.304 145.971 43.4371 145.826 48.8125 145.543C45.8781 143.492 44.221 140.709 40.9395 140.233Z" fill="#FBE2D6"/>
<path d="M55.6907 144.447C51.5861 143.056 49.9964 142.261 46.4258 139.805L45.1161 140.031L40.9387 140.232C44.2202 140.708 45.8773 143.492 48.8118 145.542C43.4363 145.825 29.3032 145.97 26.0408 149.835C26.4237 150.187 26.5908 150.412 27.099 150.526L27.398 150.262L27.9586 150.534C27.7408 150.355 31.201 152.842 30.7103 152.659C30.3833 151.691 30.1594 151.176 30.1359 150.147C31.0883 148.743 33.9085 148.664 35.4823 148.635C43.0898 148.498 51.0536 148.686 58.3024 151.241C58.7829 152.034 59.7458 153.732 60.2614 154.405C60.6225 151.737 57.6465 149.712 56.75 147.523C56.6826 147.359 57.2527 146.501 57.3964 146.257L59.9963 146.707L59.3945 145.044C58.3198 145.163 56.7874 144.705 55.6907 144.447Z" fill="#E9A7D1"/>
<path d="M55.6907 144.447C51.5861 143.056 49.9964 142.261 46.4258 139.805L45.1161 140.031C47.7086 141.704 49.6009 143.059 52.5335 144.178C53.2948 144.469 57.1538 146.016 57.3964 146.257L59.9963 146.707L59.3945 145.044C58.3198 145.163 56.7874 144.705 55.6907 144.447Z" fill="#73006E"/>
<path d="M45.4658 151.642C44.9737 151.394 44.3861 151.432 43.9299 151.741C43.4733 152.049 43.2193 152.581 43.2651 153.13C43.3112 153.679 43.6499 154.16 44.1513 154.389C44.9062 154.733 45.7972 154.409 46.1555 153.66C46.5135 152.912 46.207 152.015 45.4658 151.642Z" fill="#FBE2D6"/>
<path d="M81.3738 51.3266C80.8299 48.5076 81.662 47.2688 81.7449 44.2862C80.8348 46.2624 79.4396 49.4216 77.2466 50.2251C77.4117 51.3745 77.5489 53.0173 78.0682 54.0035L81.3738 51.3266Z" fill="#C47CDD"/>
<path d="M63.4188 72.2077C59.3168 67.0224 55.593 62.3753 52.5479 56.4563C52.1551 55.6927 51.2434 54.6532 51.1017 54.3557C50.0717 53.5847 48.2425 52.1342 47.2278 51.4799C43.5257 47.8571 35.133 40.4591 33.3338 50.0955C31.7766 55.5514 32.2406 65.4209 35.1361 70.3102C38.7239 79.4762 42.5307 80.0305 46.8825 86.1331L42.9509 86.2489C39.2415 86.1709 30.5689 85.095 27.9615 87.4813C24.7287 90.4404 32.2939 99.3734 34.4524 101.395C37.2333 104 41.5733 107.567 45.4486 107.803C47.0216 108.199 48.2261 107.963 49.8214 107.783C51.9271 107.459 52.5956 107.302 54.5962 106.584C54.7337 105.682 54.6831 102.407 54.6859 101.335C54.7628 97.6232 56.4864 89.8278 57.4907 86.2461C59.0116 81.3872 60.9967 76.6863 63.4188 72.2077Z" fill="#FFDCF8"/>
<path d="M54.6834 101.335C54.7603 97.6234 56.4839 89.828 57.4881 86.2463L55.844 86.2031C44.4691 82.2788 42.5727 79.1929 38.5588 68.2312L38.0205 68.5665L37.256 68.1468L37.5506 72.8054L37.1405 72.9863C35.9083 71.8255 36.0403 71.3041 35.1336 70.3104C38.7213 79.4764 42.5281 80.0307 46.88 86.1333L42.9484 86.2491C39.2389 86.1711 30.5664 85.0952 27.959 87.4815C24.7262 90.4405 32.2913 99.3736 34.4498 101.395C37.2307 104 41.5708 107.567 45.4461 107.803C47.019 108.199 48.2236 107.963 49.8189 107.783C51.9246 107.46 52.593 107.303 54.5937 106.584C54.7312 105.682 54.6806 102.408 54.6834 101.335Z" fill="#C86FC5"/>
<path d="M44.379 89.369C44.2291 87.732 44.0349 87.6215 42.9494 86.2486C39.24 86.1707 30.5675 85.0947 27.96 87.4811C24.7273 90.4401 32.2924 99.3732 34.4509 101.395C37.2318 103.999 41.5718 107.567 45.4471 107.803C45.1576 105.918 41.6421 103.413 39.9345 101.95C37.067 99.0509 35.0721 94.8127 33.4589 91.1368C37.3364 90.3654 40.4086 89.6392 44.379 89.369Z" fill="#E9A7D1"/>
<path d="M45.1051 104.163C47.3245 103.171 52.6911 100.227 51.048 97.1995C48.8415 93.1335 42.8838 93.1287 39.2766 91.4756C37.8575 91.6642 36.473 91.5306 35.7528 92.4024C35.7955 95.0842 39.1588 99.3917 40.8564 101.411C42.413 102.868 43.2344 103.247 45.1051 104.163Z" fill="#8684FF"/>
<path d="M53.4857 101.624C55.1051 91.6508 47.2369 90.0625 39.2744 91.4751C42.8817 93.1282 48.8394 93.133 51.0458 97.199C52.6889 100.227 47.3223 103.171 45.103 104.163C45.5425 104.424 46.8736 104.953 47.4159 105.182L47.0416 105.627C47.5007 106.691 48.622 105.652 49.8263 106.798L49.819 107.782C51.9247 107.459 52.5931 107.302 54.5937 106.583C54.7313 105.681 54.6807 102.407 54.6834 101.334L53.4857 101.624Z" fill="#FFDCF8"/>
<path d="M44.3792 89.3697C45.2777 90.0379 49.1043 89.6281 49.9967 88.8163C49.526 87.7521 48.0895 86.953 47.0293 86.1811L46.8812 86.1336L42.9496 86.2494C44.0351 87.6222 44.2292 87.7327 44.3792 89.3697Z" fill="#FFDCF8"/>
<path d="M47.2256 51.4811C43.5235 47.8583 35.1308 40.4603 33.3317 50.0967C34.8453 53.3237 35.1059 54.5472 37.0381 57.8373C39.3555 54.5141 39.9314 53.3823 44.0303 55.5505C46.9686 57.1047 49.1589 58.8792 51.688 60.9658C50.1659 58.1547 48.0122 54.4748 47.2256 51.4811Z" fill="#8684FF"/>
<path d="M38.5592 68.232C37.5732 64.1188 38.7191 62.6669 38.5536 58.7501L38.1474 58.7574L38.5763 59.0609L38.0006 59.2988C37.0728 63.3745 36.8785 64.0115 37.2564 68.1476L38.0209 68.5673L38.5592 68.232Z" fill="#73006E"/>
<path d="M58.9341 75.6465L58.887 75.5041C56.3313 67.9315 49.5669 61.6446 42.4996 58.1205C41.9564 59.5805 41.746 60.416 41.4076 61.9407C42.0341 72.4948 57.8968 85.0567 58.9341 75.6465Z" fill="#F4C2D3"/>
<path d="M53.5954 71.3513C52.926 68.9004 48.7072 63.3609 46.0386 62.4313C45.7517 62.3315 45.2215 62.7437 44.9193 62.9151C45.3861 65.3063 46.0285 66.4801 47.1031 68.6173C49.1292 69.8221 51.5528 71.7609 53.5954 71.3513Z" fill="#8684FF"/>
<path d="M75.7406 34.4836C73.6298 29.3125 69.1347 16.2788 64.2101 13.8147C63.2982 13.3584 62.2255 13.5246 61.253 13.7658C51.0529 15.2664 44.8155 37.8943 48.5547 45.773C48.7987 47.2496 51.1464 54.0384 51.0999 54.3556C51.2415 54.6531 52.1533 55.6926 52.5461 56.4562C55.5912 62.3752 59.315 67.0223 63.4169 72.2076C64.4222 70.3395 65.4471 68.7269 66.5827 66.9352C69.8366 62.4837 72.7223 59.0548 76.6981 55.2074L78.0681 54.0039C77.5489 53.0177 77.4117 51.3749 77.2465 50.2255C77.0374 45.7631 77.2019 43.9387 78.2148 39.5883L77.5058 38.4163L75.7406 34.4836Z" fill="#8684FF"/>
<path d="M59.51 19.6382C60.52 17.3081 61.5543 16.1584 62.4472 14.2043L61.1074 14.3097L61.2533 13.7646C51.0532 15.2652 44.8158 37.8931 48.555 45.7717C48.7989 47.2484 51.1466 54.0372 51.1002 54.3544C51.2418 54.6519 52.1535 55.6914 52.5463 56.455C55.5915 62.374 59.3153 67.0211 63.4172 72.2064C64.4225 70.3383 65.4473 68.7257 66.583 66.9339C69.8368 62.4825 72.7226 59.0536 76.6984 55.2062L76.1527 52.5418C75.8645 52.4957 74.8259 52.2717 74.6938 52.3982C72.9306 54.0821 72.1077 57.6996 69.4117 58.3571C59.9828 60.2997 54.2622 38.0763 59.9673 29.3434C59.9764 29.8832 61.061 25.6269 60.971 25.9034L61.0214 25.263L60.655 25.0756C60.5734 24.545 60.7264 24.2999 60.9199 23.8002C59.8042 22.1408 59.7917 21.5706 59.51 19.6382Z" fill="#FFDCF8"/>
<path d="M66.584 66.9343C60.2624 66.0437 53.7669 52.3759 51.9491 47.1335L51.7039 47.2667C52.8401 51.4438 56.4601 58.3653 59.1543 61.9197C59.7291 62.6783 63.7579 66.3955 64.6606 67.238C63.8674 68.4634 62.9863 68.2247 62.322 69.5019C62.156 69.4615 61.9566 69.4132 61.7234 69.3567C60.2811 66.6989 57.4131 63.8704 55.8285 61.5469C52.9711 57.3571 50.8215 49.4901 48.556 45.7721C48.8 47.2487 51.1477 54.0376 51.1012 54.3547C51.2428 54.6522 52.1546 55.6918 52.5474 56.4553C55.5925 62.3743 59.3163 67.0214 63.4182 72.2067C64.4235 70.3386 65.4484 68.726 66.584 66.9343Z" fill="#73006E"/>
<path d="M60.9704 25.9053L61.0208 25.2648C56.7372 26.8845 54.1302 29.9552 52.2805 34.021C51.3847 35.9907 48.8105 42.4142 51.3937 43.5746C51.8971 42.6782 51.5853 41.1627 51.6921 39.8933C52.2371 33.3974 55.3833 29.0424 60.9704 25.9053Z" fill="#C86FC5"/>
<path d="M75.7409 34.4838C73.6301 29.3127 69.135 16.279 64.2104 13.8149C63.2985 13.3586 62.2259 13.5247 61.2533 13.766L61.1075 14.3111L62.4472 14.2056C61.5544 16.1598 60.5201 17.3095 59.51 19.6396C59.7918 21.5719 59.8042 22.1421 60.9199 23.8015C65.8564 25.4777 71.3136 38.985 73.608 44.0367C74.4716 40.4492 76.5193 37.8116 75.7409 34.4838Z" fill="#FBE2D6"/>
<path d="M77.2464 50.2253C77.0373 45.7629 77.2018 43.9385 78.2147 39.5881L77.5056 38.4161L75.7404 34.4834C76.5188 37.8112 74.4711 40.4488 73.6075 44.0363C71.3131 38.9846 65.8559 25.4774 60.9194 23.8011C60.7259 24.3009 60.573 24.546 60.6546 25.0766L61.021 25.264L60.9706 25.9044C61.0606 25.6279 59.9759 29.8842 59.9669 29.3444C60.7729 28.6664 61.1826 28.2578 62.1613 27.848C63.8666 28.2337 65.0042 30.91 65.6237 32.4095C68.6185 39.6576 71.434 47.3706 71.7103 55.2876C71.1297 56.0473 69.8628 57.6102 69.4113 58.3581C72.1072 57.7006 72.9302 54.0831 74.6934 52.3992C74.8255 52.2727 75.8641 52.4967 76.1523 52.5428L76.698 55.2072L78.0679 54.0037C77.5487 53.0175 77.4115 51.3747 77.2464 50.2253Z" fill="#E9A7D1"/>
<path d="M66.4965 43.121C66.5491 42.5555 66.2915 42.006 65.8239 41.6843C65.356 41.3623 64.7507 41.3184 64.2409 41.569C63.7313 41.8199 63.3968 42.326 63.3662 42.8931C63.3204 43.7469 63.9665 44.4799 64.8193 44.5423C65.6722 44.6041 66.418 43.9724 66.4965 43.121Z" fill="#FBE2D6"/>
<path d="M239.558 94.3448C243.899 86.0281 264.631 61.7435 269.62 82.7326C272.599 95.265 270.752 115.206 265.361 126.843C263.542 131.794 258.431 136.961 254.152 139.806C250.581 142.262 248.991 143.057 244.887 144.448C243.79 144.706 242.258 145.164 241.183 145.045L242.43 141.111C243.336 137.773 243.82 135.999 244.396 132.512C244.917 127.79 245.059 123.471 245.232 118.715C244.64 112.189 243.673 105.788 241.376 99.6221C240.726 97.8781 239.963 96.1668 239.558 94.3448Z" fill="#8684FF"/>
<path d="M264.224 118.058C264.223 120.71 262.997 125.564 265.362 126.843C263.543 131.794 258.431 136.96 254.152 139.806C250.582 142.262 248.992 143.057 244.887 144.448C243.791 144.706 242.258 145.164 241.184 145.044L242.431 141.111C243.336 137.772 243.821 135.999 244.396 132.512C244.918 127.789 245.059 123.471 245.233 118.715C245.845 120.009 247.363 122.74 248.32 123.752C255.417 129.537 260.878 124.986 264.224 118.058Z" fill="#FFDCF8"/>
<path d="M245.232 118.715C245.844 120.009 247.362 122.74 248.32 123.752C248.285 125.056 247.479 136.628 247.391 136.296C245.892 135.253 245.334 134.069 244.395 132.512C244.917 127.79 245.058 123.471 245.232 118.715Z" fill="#C47CDD"/>
<path d="M242.429 141.109C243.335 137.771 243.819 135.997 244.395 132.51C245.333 134.067 245.891 135.251 247.39 136.294C251.459 136.814 252.95 134.379 256.565 133.893C254.096 135.683 251.626 137.904 248.657 138.28C245.992 139.411 245.168 140.602 242.429 141.109Z" fill="#C86FC5"/>
<path d="M242.43 141.11C245.169 140.603 245.994 139.413 248.658 138.282C247.196 139.804 244.836 142.183 244.887 144.448C243.791 144.706 242.258 145.164 241.183 145.044L242.43 141.11Z" fill="#C47CDD"/>
<path d="M229.93 164.723C236.066 166.592 241.583 168.309 248.007 168.963C248.836 169.048 250.098 169.503 250.417 169.526C251.478 170.183 253.436 171.321 254.386 172.006C258.97 174.067 268.625 179.027 260.558 184.065C256.182 187.404 247.103 190.481 241.661 189.597C232.111 189.603 230.262 186.361 223.209 184.592L224.497 188.184C225.881 191.507 229.925 198.959 228.693 202.159C227.165 206.127 216.417 202.458 213.827 201.224C210.489 199.635 205.729 196.979 204.144 193.562C203.229 192.281 203.015 191.11 202.613 189.605C202.159 187.589 202.065 186.929 202.005 184.868C202.771 184.424 205.746 183.31 206.714 182.927C210.04 181.543 216.47 177.226 219.35 175.05C223.2 171.955 226.742 168.497 229.93 164.723Z" fill="#FFDCF8"/>
<path d="M206.715 182.93C210.04 181.546 216.471 177.228 219.35 175.052L219.972 176.522C227.545 185.407 231.004 186.026 242.327 185.769L242.215 186.374L242.864 186.916L238.552 188.3L238.534 188.735C240.019 189.436 240.443 189.133 241.662 189.6C232.112 189.605 230.263 186.363 223.21 184.594L224.498 188.186C225.882 191.509 229.925 198.961 228.693 202.162C227.166 206.13 216.418 202.461 213.827 201.227C210.49 199.638 205.73 196.981 204.145 193.564C203.23 192.284 203.016 191.112 202.614 189.608C202.16 187.591 202.066 186.932 202.006 184.87C202.772 184.426 205.747 183.312 206.715 182.93Z" fill="#C86FC5"/>
<path d="M221.172 188C222.704 187.556 222.872 187.692 224.497 188.186C225.881 191.509 229.925 198.961 228.693 202.162C227.165 206.13 216.417 202.461 213.827 201.227C210.489 199.638 205.729 196.981 204.144 193.564C205.948 193.159 209.456 195.447 211.382 196.471C215.017 198.034 219.551 198.335 223.443 198.49C222.766 194.714 222.334 191.682 221.172 188Z" fill="#E9A7D1"/>
<path d="M207.553 192.584C207.663 190.228 208.421 184.338 211.738 184.75C216.192 185.303 218.306 190.682 221.077 193.355C221.41 194.704 222.021 195.907 221.488 196.866C219.051 197.777 213.969 196.265 211.544 195.447C209.677 194.557 209.043 193.949 207.553 192.584Z" fill="#8684FF"/>
<path d="M206.878 184.114C215.312 179.119 219.533 185.663 221.078 193.356C218.307 190.683 216.192 185.303 211.738 184.751C208.422 184.339 207.663 190.229 207.553 192.585C207.161 192.28 206.213 191.265 205.814 190.857L205.545 191.352C204.421 191.314 204.961 189.934 203.5 189.252L202.614 189.607C202.16 187.591 202.065 186.931 202.006 184.87C202.772 184.426 205.747 183.312 206.715 182.93L206.878 184.114Z" fill="#FFDCF8"/>
<path d="M221.172 187.999C220.25 187.424 219.265 183.823 219.682 182.729C220.81 182.777 222.041 183.792 223.114 184.476L223.209 184.593L224.497 188.185C222.872 187.691 222.704 187.555 221.172 187.999Z" fill="#FFDCF8"/>
<path d="M254.386 172.008C258.969 174.069 268.624 179.029 260.557 184.067C257.106 183.843 255.909 184.041 252.253 183.461C254.434 180.191 255.252 179.27 251.842 176.336C249.397 174.232 247.019 172.882 244.238 171.337C247.316 171.716 251.403 172.358 254.386 172.008Z" fill="#8684FF"/>
<path d="M242.325 185.769C246.39 185.203 247.295 183.653 250.892 182.416L251.029 182.785L250.603 182.505L250.592 183.109C247.239 185.391 246.733 185.792 242.863 186.916L242.213 186.374L242.325 185.769Z" fill="#73006E"/>
<path d="M228.411 169.992L228.557 169.984C236.302 169.611 244.376 173.494 250.062 178.629C248.936 179.637 248.256 180.123 246.999 180.968C237.244 184.141 220.279 174.262 228.411 169.992Z" fill="#F4C2D3"/>
<path d="M234.182 173.294C236.633 173.03 243.131 174.879 244.915 176.96C245.107 177.184 244.923 177.809 244.875 178.142C242.55 178.568 241.262 178.403 238.951 178.189C237.145 176.786 234.536 175.284 234.182 173.294Z" fill="#8684FF"/>
<path d="M259.639 140.233C265.057 140.308 278.421 139.752 282.391 143.327C283.126 143.989 283.356 145.017 283.483 145.981C285.74 155.726 267.511 169.374 259.071 168.787C257.65 169.09 250.687 169.374 250.417 169.528C250.098 169.505 248.836 169.05 248.007 168.966C241.583 168.312 236.066 166.594 229.93 164.726C231.261 163.156 232.355 161.659 233.571 159.999C236.439 155.483 238.514 151.662 240.581 146.708L241.183 145.045C242.258 145.164 243.79 144.707 244.887 144.449C248.991 143.057 250.581 142.262 254.152 139.806L255.461 140.032L259.639 140.233Z" fill="#8684FF"/>
<path d="M278.796 149.635C280.543 147.898 281.215 146.556 282.664 145.058L283.043 146.305L283.484 145.98C285.741 155.725 267.512 169.373 259.071 168.786C257.651 169.089 250.688 169.373 250.418 169.527C250.099 169.505 248.837 169.049 248.008 168.965C241.583 168.311 236.067 166.594 229.931 164.725C231.262 163.155 232.355 161.659 233.572 159.998C236.44 155.483 238.515 151.662 240.582 146.708L243.182 146.257C243.325 146.501 243.896 147.36 243.828 147.524C242.932 149.713 239.956 151.738 240.317 154.405C241.902 163.61 264.001 160.906 269.868 152.66C269.377 152.843 272.837 150.356 272.619 150.535L273.18 150.262L273.479 150.527C273.987 150.413 274.154 150.188 274.537 149.836C276.431 150.256 276.951 150.065 278.796 149.635Z" fill="#FFDCF8"/>
<path d="M233.571 159.997C236.615 165.391 251.26 166.417 256.639 166.202L256.606 166.471C252.431 166.924 244.897 166.106 240.732 164.931C239.843 164.681 235.059 162.358 233.978 161.841C233.152 162.992 233.68 163.703 232.762 164.756C232.857 164.891 232.971 165.054 233.105 165.245C236.016 165.606 239.587 167.195 242.247 167.803C247.043 168.9 254.91 168.055 259.071 168.785C257.651 169.087 250.687 169.371 250.417 169.526C250.098 169.503 248.836 169.048 248.008 168.963C241.583 168.309 236.067 166.592 229.93 164.723C231.261 163.154 232.355 161.657 233.571 159.997Z" fill="#73006E"/>
<path d="M272.618 150.536L273.179 150.264C273.233 154.707 271.383 158.149 268.366 161.26C266.904 162.766 262.014 167.367 260.051 165.444C260.682 164.672 262.161 164.417 263.27 163.871C268.944 161.078 271.764 156.694 272.618 150.536Z" fill="#C86FC5"/>
<path d="M259.638 140.233C265.056 140.308 278.421 139.752 282.391 143.327C283.126 143.989 283.356 145.017 283.482 145.981L283.042 146.306L282.662 145.058C281.214 146.557 280.542 147.898 278.795 149.636C276.949 150.066 276.43 150.256 274.536 149.836C271.274 145.971 257.141 145.826 251.765 145.543C254.7 143.492 256.357 140.709 259.638 140.233Z" fill="#FBE2D6"/>
<path d="M244.887 144.447C248.992 143.056 250.581 142.261 254.152 139.805L255.462 140.031L259.639 140.232C256.357 140.708 254.7 143.492 251.766 145.542C257.141 145.825 271.274 145.97 274.537 149.835C274.154 150.187 273.987 150.412 273.479 150.526L273.18 150.262L272.619 150.534C272.837 150.355 269.377 152.842 269.867 152.659C270.194 151.691 270.418 151.176 270.442 150.147C269.489 148.743 266.669 148.664 265.095 148.635C257.488 148.498 249.524 148.686 242.275 151.241C241.795 152.034 240.832 153.732 240.316 154.405C239.955 151.737 242.931 149.712 243.828 147.523C243.895 147.359 243.325 146.501 243.181 146.257L240.581 146.707L241.183 145.044C242.258 145.163 243.79 144.705 244.887 144.447Z" fill="#E9A7D1"/>
<path d="M244.887 144.447C248.992 143.056 250.581 142.261 254.152 139.805L255.462 140.031C252.869 141.704 250.977 143.059 248.044 144.178C247.283 144.469 243.424 146.016 243.181 146.257L240.581 146.707L241.183 145.044C242.258 145.163 243.79 144.705 244.887 144.447Z" fill="#73006E"/>
<path d="M255.112 151.642C255.604 151.394 256.192 151.432 256.648 151.741C257.104 152.049 257.358 152.581 257.313 153.13C257.266 153.679 256.928 154.16 256.426 154.389C255.671 154.733 254.78 154.409 254.422 153.66C254.064 152.912 254.371 152.015 255.112 151.642Z" fill="#FBE2D6"/>
<path d="M219.204 51.3266C219.748 48.5076 218.916 47.2688 218.833 44.2862C219.743 46.2624 221.138 49.4216 223.331 50.2251C223.166 51.3745 223.029 53.0173 222.509 54.0035L219.204 51.3266Z" fill="#C47CDD"/>
<path d="M237.159 72.2077C241.261 67.0224 244.985 62.3753 248.03 56.4563C248.423 55.6927 249.334 54.6532 249.476 54.3557C250.506 53.5847 252.335 52.1342 253.35 51.4799C257.052 47.8571 265.445 40.4591 267.244 50.0955C268.801 55.5514 268.337 65.4209 265.442 70.3102C261.854 79.4762 258.047 80.0305 253.695 86.1331L257.627 86.2489C261.336 86.1709 270.009 85.095 272.616 87.4813C275.849 90.4404 268.284 99.3734 266.125 101.395C263.344 104 259.004 107.567 255.129 107.803C253.556 108.199 252.351 107.963 250.756 107.783C248.651 107.459 247.982 107.302 245.981 106.584C245.844 105.682 245.894 102.407 245.892 101.335C245.815 97.6232 244.091 89.8278 243.087 86.2461C241.566 81.3872 239.581 76.6863 237.159 72.2077Z" fill="#FFDCF8"/>
<path d="M245.894 101.335C245.817 97.6234 244.094 89.828 243.089 86.2463L244.734 86.2031C256.109 82.2788 258.005 79.1929 262.019 68.2312L262.557 68.5665L263.322 68.1468L263.027 72.8054L263.437 72.9863C264.669 71.8255 264.537 71.3041 265.444 70.3104C261.856 79.4764 258.05 80.0307 253.698 86.1333L257.629 86.2491C261.339 86.1711 270.011 85.0952 272.619 87.4815C275.851 90.4405 268.286 99.3736 266.128 101.395C263.347 104 259.007 107.567 255.132 107.803C253.559 108.199 252.354 107.963 250.759 107.783C248.653 107.46 247.985 107.303 245.984 106.584C245.846 105.682 245.897 102.408 245.894 101.335Z" fill="#C86FC5"/>
<path d="M256.199 89.369C256.349 87.732 256.543 87.6215 257.628 86.2486C261.338 86.1707 270.01 85.0947 272.618 87.4811C275.85 90.4401 268.285 99.3732 266.127 101.395C263.346 103.999 259.006 107.567 255.131 107.803C255.42 105.918 258.936 103.413 260.643 101.95C263.511 99.0509 265.506 94.8127 267.119 91.1368C263.241 90.3654 260.169 89.6392 256.199 89.369Z" fill="#E9A7D1"/>
<path d="M255.473 104.163C253.253 103.171 247.887 100.227 249.53 97.1995C251.736 93.1335 257.694 93.1287 261.301 91.4756C262.72 91.6642 264.105 91.5306 264.825 92.4024C264.782 95.0842 261.419 99.3917 259.721 101.411C258.165 102.868 257.343 103.247 255.473 104.163Z" fill="#8684FF"/>
<path d="M247.092 101.624C245.473 91.6508 253.341 90.0625 261.303 91.4751C257.696 93.1282 251.738 93.133 249.532 97.199C247.889 100.227 253.255 103.171 255.475 104.163C255.035 104.424 253.704 104.953 253.162 105.182L253.536 105.627C253.077 106.691 251.956 105.652 250.751 106.798L250.759 107.782C248.653 107.459 247.985 107.302 245.984 106.583C245.846 105.681 245.897 102.407 245.894 101.334L247.092 101.624Z" fill="#FFDCF8"/>
<path d="M256.198 89.3697C255.3 90.0379 251.473 89.6281 250.581 88.8163C251.052 87.7521 252.488 86.953 253.548 86.1811L253.696 86.1336L257.628 86.2494C256.543 87.6222 256.348 87.7327 256.198 89.3697Z" fill="#FFDCF8"/>
<path d="M253.352 51.4811C257.054 47.8583 265.447 40.4603 267.246 50.0967C265.732 53.3237 265.472 54.5472 263.54 57.8373C261.222 54.5141 260.646 53.3823 256.547 55.5505C253.609 57.1047 251.419 58.8792 248.89 60.9658C250.412 58.1547 252.565 54.4748 253.352 51.4811Z" fill="#8684FF"/>
<path d="M262.018 68.232C263.004 64.1188 261.859 62.6669 262.024 58.7501L262.43 58.7574L262.001 59.0609L262.577 59.2988C263.505 63.3745 263.699 64.0115 263.321 68.1476L262.557 68.5673L262.018 68.232Z" fill="#73006E"/>
<path d="M241.644 75.6465L241.691 75.5041C244.246 67.9315 251.011 61.6446 258.078 58.1205C258.621 59.5805 258.832 60.416 259.17 61.9407C258.544 72.4948 242.681 85.0567 241.644 75.6465Z" fill="#F4C2D3"/>
<path d="M246.982 71.3513C247.652 68.9004 251.87 63.3609 254.539 62.4313C254.826 62.3315 255.356 62.7437 255.658 62.9151C255.192 65.3063 254.549 66.4801 253.475 68.6173C251.448 69.8221 249.025 71.7609 246.982 71.3513Z" fill="#8684FF"/>
<path d="M224.837 34.4836C226.948 29.3125 231.443 16.2788 236.368 13.8147C237.279 13.3584 238.352 13.5246 239.325 13.7658C249.525 15.2664 255.762 37.8943 252.023 45.773C251.779 47.2496 249.431 54.0384 249.478 54.3556C249.336 54.6531 248.424 55.6926 248.032 56.4562C244.986 62.3752 241.263 67.0223 237.161 72.2076C236.155 70.3395 235.131 68.7269 233.995 66.9352C230.741 62.4837 227.855 59.0548 223.88 55.2074L222.51 54.0039C223.029 53.0177 223.166 51.3749 223.331 50.2255C223.54 45.7631 223.376 43.9387 222.363 39.5883L223.072 38.4163L224.837 34.4836Z" fill="#8684FF"/>
<path d="M241.068 19.6382C240.058 17.3081 239.023 16.1584 238.13 14.2043L239.47 14.3097L239.324 13.7646C249.524 15.2652 255.762 37.8931 252.023 45.7717C251.779 47.2484 249.431 54.0372 249.477 54.3544C249.336 54.6519 248.424 55.6914 248.031 56.455C244.986 62.374 241.262 67.0211 237.16 72.2064C236.155 70.3383 235.13 68.7257 233.995 66.9339C230.741 62.4825 227.855 59.0536 223.879 55.2062L224.425 52.5418C224.713 52.4957 225.752 52.2717 225.884 52.3982C227.647 54.0821 228.47 57.6996 231.166 58.3571C240.595 60.2997 246.315 38.0763 240.61 29.3434C240.601 29.8832 239.517 25.6269 239.607 25.9034L239.556 25.263L239.923 25.0756C240.004 24.545 239.851 24.2999 239.658 23.8002C240.773 22.1408 240.786 21.5706 241.068 19.6382Z" fill="#FFDCF8"/>
<path d="M233.994 66.9343C240.315 66.0437 246.811 52.3759 248.629 47.1335L248.874 47.2667C247.738 51.4438 244.118 58.3653 241.423 61.9197C240.849 62.6783 236.82 66.3955 235.917 67.238C236.71 68.4634 237.591 68.2247 238.256 69.5019C238.422 69.4615 238.621 69.4132 238.854 69.3567C240.296 66.6989 243.165 63.8704 244.749 61.5469C247.607 57.3571 249.756 49.4901 252.022 45.7721C251.778 47.2487 249.43 54.0376 249.476 54.3547C249.335 54.6522 248.423 55.6918 248.03 56.4553C244.985 62.3743 241.261 67.0214 237.159 72.2067C236.154 70.3386 235.129 68.726 233.994 66.9343Z" fill="#73006E"/>
<path d="M239.607 25.9053L239.557 25.2648C243.84 26.8845 246.447 29.9552 248.297 34.021C249.193 35.9907 251.767 42.4142 249.184 43.5746C248.681 42.6782 248.992 41.1627 248.886 39.8933C248.341 33.3974 245.194 29.0424 239.607 25.9053Z" fill="#C86FC5"/>
<path d="M224.837 34.4838C226.948 29.3127 231.443 16.279 236.367 13.8149C237.279 13.3586 238.352 13.5247 239.324 13.766L239.47 14.3111L238.13 14.2056C239.023 16.1598 240.058 17.3095 241.068 19.6396C240.786 21.5719 240.773 22.1421 239.658 23.8015C234.721 25.4777 229.264 38.985 226.97 44.0367C226.106 40.4492 224.058 37.8116 224.837 34.4838Z" fill="#FBE2D6"/>
<path d="M223.331 50.2253C223.54 45.7629 223.376 43.9385 222.363 39.5881L223.072 38.4161L224.837 34.4834C224.059 37.8112 226.107 40.4488 226.97 44.0363C229.264 38.9846 234.722 25.4774 239.658 23.8011C239.852 24.3009 240.005 24.546 239.923 25.0766L239.557 25.264L239.607 25.9044C239.517 25.6279 240.602 29.8842 240.611 29.3444C239.805 28.6664 239.395 28.2578 238.416 27.848C236.711 28.2337 235.573 30.91 234.954 32.4095C231.959 39.6576 229.144 47.3706 228.867 55.2876C229.448 56.0473 230.715 57.6102 231.166 58.3581C228.47 57.7006 227.647 54.0831 225.884 52.3992C225.752 52.2727 224.714 52.4967 224.425 52.5428L223.88 55.2072L222.51 54.0037C223.029 53.0175 223.166 51.3747 223.331 50.2253Z" fill="#E9A7D1"/>
<path d="M234.081 43.121C234.029 42.5555 234.286 42.006 234.754 41.6843C235.222 41.3623 235.827 41.3184 236.337 41.569C236.846 41.8199 237.181 42.326 237.211 42.8931C237.257 43.7469 236.611 44.4799 235.758 44.5423C234.905 44.6041 234.16 43.9724 234.081 43.121Z" fill="#FBE2D6"/>
<path d="M250 110C250 165.781 205.228 211 150 211C94.7715 211 50 165.781 50 110C50 54.2192 94.7715 9 150 9C205.228 9 250 54.2192 250 110ZM60 110C60 160.203 100.294 200.9 150 200.9C199.706 200.9 240 160.203 240 110C240 59.7973 199.706 19.1 150 19.1C100.294 19.1 60 59.7973 60 110Z" fill="url(#paint0_linear_65_510)"/>
<path d="M147.427 4.8554C148.808 2.09213 149.676 -1.03465 152.569 2.52148L152.502 2.59054L152.811 3.06492C153.227 4.29701 153.449 4.82491 154.22 5.89867L154.604 5.85041C155.123 6.43243 155.597 6.42859 156.388 6.49988C158.096 6.85511 159.927 7.04514 161.08 8.45131C161.494 9.62363 161.417 9.84719 160.751 10.88L158.976 12.6904C158.278 13.3044 157.368 14.0368 156.837 14.7743C157.378 16.0882 157.571 19.0975 157.973 20.0066C157.208 24.8292 152.739 19.3608 150.463 19.5456C148.301 19.7211 143.902 24.479 143.03 20.2052C143.164 19.3784 143.325 18.6104 143.499 17.7939L143.941 14.4496C143.365 13.8112 142.792 13.3904 142.122 12.8641C141.876 12.547 141.086 11.7978 140.765 11.4769L140.58 11.281C139.671 10.3111 139.447 10.1016 139.495 8.75181C140.771 7.22831 142.608 7.30808 144.544 7.10471C146.765 6.85813 146.604 6.84965 147.427 4.8554Z" fill="#FD7C2E"/>
<path d="M147.427 4.8554C148.808 2.09213 149.676 -1.03465 152.569 2.52148L152.502 2.59054L152.811 3.06492C153.227 4.29701 153.449 4.82491 154.22 5.89867L154.604 5.85041C155.123 6.43243 155.597 6.42859 156.389 6.49988C158.096 6.85511 159.927 7.04514 161.08 8.45131L159.774 9.24982C158.855 10.0812 155.375 11.2295 153.91 11.8994L153.879 12.2631C152.874 12.435 152.081 13.3098 151.039 13.2381C149.216 13.1129 142.156 10.9224 141.06 9.70198C140.963 9.60101 139.708 8.88025 139.496 8.75181C140.771 7.22831 142.609 7.30808 144.545 7.10471C146.765 6.85813 146.604 6.84965 147.427 4.8554Z" fill="#FEB840"/>
<path d="M151.253 7.29079C150.974 5.85089 150.841 6.37879 150.066 5.18769C150.173 4.48228 151.84 3.21807 152.503 2.59082L152.811 3.0652C153.227 4.29729 153.449 4.82519 154.221 5.89895L154.604 5.85069C155.123 6.4327 155.597 6.42887 156.389 6.50016C158.097 6.85538 159.928 7.04542 161.08 8.45159L159.774 9.2501C158.856 10.0815 155.375 11.2298 153.91 11.8997C152.918 12.1626 152.228 12.0447 151.235 11.8151L151.037 11.4417C151.207 11.0543 151.299 11.083 151.687 10.819C151.102 10.2362 151.261 8.25247 151.253 7.29079Z" fill="#FDDC80"/>
<path d="M151.253 7.29079C150.974 5.85089 150.841 6.37879 150.066 5.18769C150.173 4.48228 151.84 3.21807 152.503 2.59082L152.811 3.0652C153.227 4.29729 153.449 4.82519 154.221 5.89895L154.604 5.85069C155.123 6.4327 155.597 6.42887 156.389 6.50016C153.74 6.19501 153.334 6.51611 151.792 8.83065C151.37 8.44755 151.39 7.94429 151.253 7.29079Z" fill="#F9F2C4"/>
<path d="M154.22 5.89918C153.439 6.4602 151.332 6.65447 150.94 5.44581C151.136 4.64589 152.198 3.71631 152.811 3.06543C153.227 4.29752 153.449 4.82542 154.22 5.89918Z" fill="#FEF7E0"/>
<path d="M151.687 10.8189C151.996 10.3454 152.038 10.262 152.2 9.73811L152.236 9.61512C152.533 9.42993 158.563 9.38147 159.774 9.25C158.856 10.0814 155.375 11.2297 153.91 11.8996C152.919 12.1625 152.228 12.0446 151.235 11.815L151.037 11.4416C151.207 11.0542 151.3 11.0829 151.687 10.8189Z" fill="#FBAF50"/>
<path d="M139.496 8.75301C140.771 7.2295 142.609 7.30927 144.545 7.10591C145.102 7.09985 146.137 7.01564 146.569 7.25818L146.652 7.43206C146.89 8.04013 147.114 8.65284 147.326 9.2702C146.149 10.4201 142.641 9.92694 141.06 9.70318C140.963 9.6022 139.708 8.88145 139.496 8.75301Z" fill="#FDDC80"/>
<path d="M144.544 7.10478C146.765 6.8582 146.604 6.84972 147.427 4.85547C148.025 5.08387 148.554 5.10791 148.747 5.74324C149.024 6.64818 149.238 7.36853 148.592 8.14906C147.688 8.47642 147.387 8.01254 146.652 7.43093L146.569 7.25705C146.137 7.01451 145.102 7.09872 144.544 7.10478Z" fill="#FBAF50"/>
<path d="M140.765 11.4775C143.105 11.936 144.124 12.3734 146.268 13.4415C144.944 15.0442 144.766 17.618 143.573 17.8286L143.499 17.7945L143.941 14.4502C143.365 13.8119 142.792 13.391 142.122 12.8647C141.875 12.5477 141.086 11.7984 140.765 11.4775Z" fill="#FC7A3D"/>
<path d="M161.08 8.45215C161.494 9.62446 161.417 9.84802 160.751 10.8808C159.742 10.8511 159.485 10.944 158.516 11.252C156.71 11.2017 155.406 12.1484 153.879 12.2639L153.91 11.9002C155.375 11.2304 158.856 10.0821 159.774 9.25066L161.08 8.45215Z" fill="#FEA03C"/>
<path d="M158.516 11.2514C159.485 10.9435 159.741 10.8506 160.751 10.8802L158.976 12.6907C158.278 13.3046 157.367 14.0371 156.836 14.7746C156.251 14.5925 155.726 14.3275 155.367 13.8214C155.561 12.7905 157.357 12.0822 158.516 11.2514Z" fill="#FC7A3D"/>
<path d="M147.883 14.5835C150.544 14.5102 149.377 17.1697 148.511 18.4997C147.716 17.581 146.747 16.7254 146.769 15.5248C147.183 14.7693 146.993 15.0072 147.883 14.5835Z" fill="#FBAF50"/>
<path d="M152.569 2.52235C153.412 1.53845 152.809 1.07841 153.546 0C153.792 0.826175 153.534 2.43571 153.38 3.30026C153.77 4.17975 154.123 5.01581 154.603 5.85128L154.22 5.89954C153.449 4.82578 153.227 4.29789 152.811 3.06579L152.502 2.59141L152.569 2.52235Z" fill="#64808A" fill-opacity="0.960784"/>
<defs>
<linearGradient id="paint0_linear_65_510" x1="71" y1="169" x2="205.5" y2="33.5" gradientUnits="userSpaceOnUse">
<stop stop-color="#FCEFFF"/>
<stop offset="0.5" stop-color="#FF8DA6"/>
<stop offset="0.743157" stop-color="#FFF0D9"/>
<stop offset="1" stop-color="#E4BAFF"/>
</linearGradient>
</defs>
</svg>
