<svg width="300" height="220" viewBox="0 0 300 220" fill="none" xmlns="http://www.w3.org/2000/svg">
<g clip-path="url(#clip0_71_519)">
<path d="M200.557 22.9101C208.439 21.5565 244.766 16.3428 249.954 18.8313C251.178 20.2608 251.183 22.2984 250.966 24.0844C249.728 34.2762 245.991 50.3499 240.392 58.6276C238.888 60.8537 238.008 61.6757 236.081 63.5882C235.348 62.9628 234.383 61.6456 233.747 60.8515L233.319 59.4487C232.706 58.9669 229.995 55.3729 229.511 54.5825C228.035 52.1706 221.895 45.9711 221.504 43.729C220.506 42.7055 216.795 39.5972 216.543 39.1725C215.573 38.7996 211.006 34.7403 209.907 33.8025C205.463 30.0129 200.923 27.0047 196.06 23.8081C196.983 23.5322 199.459 23.1355 200.557 22.9101Z" fill="#FDC4C2"/>
<path d="M216.543 39.172C221.176 37.6317 239.535 31.9519 241.817 38.9205C242.189 39.9321 242.302 40.0652 242.345 41.1611C243.197 49.1221 238.929 54.1608 233.799 59.5055L233.319 59.4481C232.706 58.9663 229.995 55.3724 229.511 54.582C228.035 52.17 221.895 45.9706 221.504 43.7285C220.506 42.705 216.795 39.5967 216.543 39.172Z" fill="#A42C60"/>
<path d="M232.244 43.6638C235.383 43.3238 238.527 43.0257 241.674 42.7699C241.799 41.5634 241.577 42.0788 242.345 41.1612C243.197 49.1222 238.928 54.1608 233.798 59.5056L233.319 59.4482C232.705 58.9664 229.995 55.3725 229.511 54.5821C228.035 52.1701 221.895 45.9707 221.503 43.7285C223.283 45.5737 225.424 48.0217 227.206 49.702L232.244 43.6638Z" fill="#E07891"/>
<path d="M232.244 43.664C232.523 43.3575 232.806 43.0558 233.094 42.758C234.584 41.2164 238.204 38.2694 240.371 38.2293C241.431 38.8134 240.973 38.4172 241.635 39.6147L241.817 38.9208C242.188 39.9325 242.302 40.0656 242.345 41.1615C241.577 42.0791 241.799 41.5636 241.674 42.7702C238.527 43.026 235.383 43.3241 232.244 43.664Z" fill="#C94F72"/>
<path d="M218.112 27.2081C220.821 26.647 226.744 25.5224 229.146 26.9867C230.252 29.4073 226.355 32.0202 224.448 32.9037C222.025 33.4685 212.59 34.2303 213.317 30.0186C214.648 28.3671 216.117 27.9462 218.112 27.2081Z" fill="#FCF1F0"/>
<path d="M95.8061 22.9101C87.9242 21.5565 51.5965 16.3428 46.4093 18.8313C45.1843 20.2608 45.1795 22.2984 45.3964 24.0844C46.6346 34.2762 50.3715 50.3499 55.9704 58.6276C57.4749 60.8537 58.3553 61.6757 60.2815 63.5882C61.0149 62.9628 61.98 61.6456 62.6161 60.8515L63.0438 59.4487C63.6572 58.9669 66.3674 55.3729 66.8515 54.5825C68.328 52.1706 74.4677 45.9711 74.8591 43.729C75.8564 42.7055 79.5677 39.5972 79.8196 39.1725C80.7901 38.7996 85.3567 34.7403 86.4563 33.8025C90.8995 30.0129 95.44 27.0047 100.303 23.8081C99.3794 23.5322 96.9033 23.1355 95.8061 22.9101Z" fill="#AE3DCF"/>
<path d="M79.8196 39.172C75.1865 37.6317 56.8278 31.9519 54.5455 38.9205C54.1742 39.9321 54.0607 40.0652 54.0178 41.1611C53.1654 49.1221 57.4342 54.1608 62.564 59.5055L63.0438 59.4481C63.6572 58.9663 66.3674 55.3724 66.8515 54.582C68.3279 52.17 74.4677 45.9706 74.8591 43.7285C75.8564 42.705 79.5677 39.5967 79.8196 39.172Z" fill="#770C76"/>
<path d="M64.1191 43.6638C60.9798 43.3238 57.8362 43.0257 54.6892 42.7699C54.5639 41.5634 54.786 42.0788 54.0181 41.1612C53.1657 49.1222 57.4345 54.1608 62.5643 59.5056L63.0441 59.4482C63.6575 58.9664 66.3677 55.3725 66.8518 54.5821C68.3282 52.1701 74.468 45.9707 74.8594 43.7285C73.08 45.5737 70.9392 48.0217 69.1572 49.702L64.1191 43.6638Z" fill="#E07891"/>
<path d="M64.1191 43.664C63.8402 43.3575 63.5571 43.0558 63.2691 42.758C61.7785 41.2164 58.1593 38.2694 55.992 38.2293C54.9321 38.8134 55.3894 38.4172 54.7279 39.6147L54.5457 38.9208C54.1745 39.9325 54.061 40.0656 54.018 41.1615C54.786 42.0791 54.5639 41.5636 54.6892 42.7702C57.8362 43.026 60.9798 43.3241 64.1191 43.664Z" fill="#C94F72"/>
<path d="M78.2503 27.2081C75.5423 26.647 69.6185 25.5224 67.2169 26.9867C66.1111 29.4073 70.0083 32.0202 71.915 32.9037C74.3378 33.4685 83.7733 34.2303 83.0455 30.0186C81.7147 28.3671 80.2462 27.9462 78.2503 27.2081Z" fill="#CD35CF"/>
<path d="M250 110C250 165.781 205.228 211 150 211C94.7715 211 50 165.781 50 110C50 54.2192 94.7715 9 150 9C205.228 9 250 54.2192 250 110ZM60 110C60 160.203 100.294 200.9 150 200.9C199.706 200.9 240 160.203 240 110C240 59.7973 199.706 19.1 150 19.1C100.294 19.1 60 59.7973 60 110Z" fill="url(#paint0_linear_71_519)"/>
<path d="M166.655 196.522C174.665 194.44 180.625 192.027 187.905 188.193C191.852 186.113 201.948 182.449 206.397 182C205.953 183.566 206.323 185.887 206.368 187.587C206.55 194.38 199.514 200.357 193.494 202.527C185.978 206.086 177.535 208.937 169.319 210.269C166.142 213.227 163.758 217.027 160.384 219.206L160.114 218.632C162.049 216.747 166.46 211.262 168.449 208.897C168.758 206.864 168.948 206.036 168.73 203.941L168.825 200.847C168.397 199.128 167.899 198.031 166.727 196.737L166.655 196.522Z" fill="#580E26"/>
<path d="M168.825 200.845C171.772 199.696 174.552 199.2 177.517 198.278C180.986 197.199 184.858 195.537 188.095 193.873C188.923 196.782 189.832 200.441 188.788 203.423C188.133 204.001 188.126 204.084 187.329 204.396L187.097 204.751C189.089 204.155 190.412 202.92 192.785 202.157L193.494 202.526C185.978 206.084 177.535 208.935 169.319 210.267C166.142 213.225 163.758 217.025 160.384 219.204L160.114 218.63C162.049 216.746 166.46 211.261 168.449 208.895C168.758 206.862 168.948 206.034 168.73 203.939L168.825 200.845Z" fill="#A70238"/>
<path d="M96.8086 184.515L96.9696 183.432C98.495 182.771 100.516 183.884 102.149 184.529C103.219 186.76 111.982 192.663 114.437 194.115C115.825 194.936 118.094 195.8 119.466 196.737C122.06 197.57 132.032 200.379 132.951 202.165C133.05 205.806 133.38 207.584 134.764 211.019C131.322 210.495 127.897 209.869 124.492 209.14C117.833 207.875 101.095 202.022 95.948 197.073C94.475 195.657 95.105 192.579 95.312 190.541C95.4374 188.575 95.6957 186.299 96.5252 184.494L96.8086 184.515Z" fill="#580E26"/>
<path d="M113.473 203.977C114.409 203.256 113.862 203.474 115.257 203.564L115.597 203.262C116.213 200.859 114.541 199.039 116.25 197.121C117.415 196.472 118.065 196.663 119.466 196.736C122.06 197.568 132.032 200.377 132.951 202.164C133.05 205.805 133.38 207.582 134.764 211.017C131.322 210.493 127.897 209.867 124.492 209.138C122.811 207.656 116.47 205.839 113.473 203.977Z" fill="#A70238"/>
<path d="M102.148 184.527C110.816 186.661 113.475 188.397 121.34 192.442C123.935 193.777 131.211 196.155 134.097 197.026C133.338 199.084 133.161 199.989 132.951 202.164C132.032 200.377 122.06 197.569 119.466 196.736C118.094 195.799 115.825 194.935 114.437 194.113C111.982 192.662 103.219 186.758 102.148 184.527Z" fill="#6F0B51"/>
<path d="M149.361 187C156.803 187.648 164.278 188.886 169.766 194.282L169.838 194.497C171.01 195.792 171.508 196.888 171.936 198.607L171.841 201.701C172.059 203.796 171.869 204.624 171.56 206.657C169.571 209.023 165.16 214.508 163.225 216.392L163.495 216.966C158.916 219.22 155.56 220.411 150.286 219.977C143.308 219.338 137.063 215.332 133.267 209.446L133.682 208.074C131.52 204.824 131.903 201.414 132.336 197.756C133.72 193.144 135.687 191.681 139.297 188.722C142.692 187.454 145.784 187.227 149.361 187Z" fill="#FDB20B"/>
<path d="M133.682 208.075C131.52 204.824 131.903 201.414 132.336 197.756C132.254 204.491 135.949 207.927 142.238 208.949C146.109 209.578 154.304 212.51 157.551 209.401C158.08 210.697 158.204 210.842 158.203 212.201C158.602 213.314 158.578 213.382 159.304 214.371C156.961 216.889 154.155 218.058 151.008 219.288L150.286 219.978C143.308 219.338 137.063 215.332 133.267 209.447L133.682 208.075Z" fill="#DF6833"/>
<path d="M133.681 208.074C135.899 210.961 137.637 213.595 141.058 215.21C145.677 217.389 151.604 217.942 155.843 214.579C156.725 213.887 157.518 213.088 158.203 212.2C158.601 213.313 158.577 213.382 159.304 214.371C156.961 216.889 154.155 218.058 151.008 219.287L150.286 219.977C143.308 219.338 137.063 215.332 133.267 209.446L133.681 208.074Z" fill="#AB3F33"/>
<path d="M169.838 194.496C171.01 195.791 171.508 196.887 171.936 198.606L171.841 201.7C172.059 203.795 171.869 204.623 171.56 206.656C169.571 209.022 165.16 214.506 163.225 216.391L163.495 216.965C158.916 219.219 155.56 220.41 150.286 219.976L151.008 219.286C154.155 218.056 156.961 216.888 159.304 214.37C160.535 213.137 161.129 212.76 162.55 211.776C165.841 209.133 167.369 206.992 165.128 203.089C168.177 200.815 168.77 198.033 169.838 194.496Z" fill="#C24C32"/>
<path d="M169.838 194.496C171.01 195.791 171.508 196.887 171.937 198.606L171.841 201.7C169.752 208.722 168.699 208.099 163.085 212.28L162.55 211.776C165.841 209.133 167.369 206.992 165.128 203.089C168.177 200.815 168.771 198.033 169.838 194.496Z" fill="#DF6833"/>
<path d="M162.55 211.777L163.085 212.281C160.45 215.202 155.542 221.303 151.008 219.287C154.156 218.058 156.961 216.889 159.305 214.371C160.535 213.138 161.129 212.761 162.55 211.777Z" fill="#F1924F"/>
<path d="M157.551 209.401C156.448 207.375 155.021 205.078 156.463 202.891C158.588 199.665 162.738 201.341 165.128 203.09C167.369 206.993 165.841 209.133 162.55 211.777C161.129 212.761 160.535 213.138 159.304 214.37C158.578 213.382 158.602 213.313 158.203 212.2C158.204 210.841 158.08 210.696 157.551 209.401Z" fill="#800327"/>
<path d="M149.238 189.558C150.235 189.263 151.314 189.547 152.035 190.296C152.757 191.045 153.002 192.133 152.67 193.119C152.338 194.104 151.484 194.823 150.456 194.982C149.008 195.207 147.633 194.27 147.311 192.84C146.99 191.41 147.832 189.975 149.238 189.558Z" fill="#F4FBC0"/>
</g>
<defs>
<linearGradient id="paint0_linear_71_519" x1="82" y1="40" x2="265" y2="211" gradientUnits="userSpaceOnUse">
<stop stop-color="#AF42D5"/>
<stop offset="1" stop-color="#A5109B"/>
</linearGradient>
<clipPath id="clip0_71_519">
<rect width="299.922" height="220" fill="white"/>
</clipPath>
</defs>
</svg>
