<svg width="300" height="242" viewBox="0 0 300 242" fill="none" xmlns="http://www.w3.org/2000/svg">
<path d="M77.2137 190C77.5963 192.744 78.7725 200.037 79.8799 202.335C93.2953 216.452 127.216 221.796 146.182 222.281C165.567 222.776 203.196 216.59 218.281 204.146C218.845 205.046 219.564 206.378 220.402 206.95L220.861 206.232C221.631 207.306 221.302 206.977 222.592 207.51C228.424 211.932 232.185 215.006 237.099 220.587L237.97 221.187C238.685 222.084 240.821 224.659 241.301 225.538C232.196 224.836 226.791 224.462 217.649 225.764C214.845 226.162 203.423 228.049 201.505 227.792L201.227 227.036C201.577 224.262 204.287 219.014 205.964 216.839L205.855 216.071C203.77 216.415 201.863 217.147 199.861 217.788C193.501 219.818 186.99 221.669 180.454 223.011C157.054 227.758 132.876 227.083 109.777 221.037C103.604 219.477 98.0219 217.223 92.1571 215.672C93.7434 218.594 96.6954 223.584 97.1901 226.702L96.9397 227.533C95.3712 228.246 91.8265 227.335 89.8786 227.002C77.9501 224.961 68.854 224.102 56.8059 225.669L52.7514 226.648C50.7663 227.354 46.5778 229.055 44.787 228.017L44.6512 227.094C46.2916 221.856 57.5806 213.042 62.1712 209.158C58.3928 206.966 53.1062 205.399 48.8726 204.304C46.4972 203.69 40.8168 202.783 39.0347 201.733L39 200.981C39.903 199.317 41.8249 198.442 43.4938 197.673L44.7375 197.23C46.9124 196.227 48.1065 195.94 50.4422 195.338C53.2804 194.301 63.1685 192.215 66.1289 192.093C69.1037 191.313 76.0578 191.27 77.2137 190Z" fill="#CD1C72"/>
<path d="M77.2137 190C77.5963 192.744 78.7725 200.037 79.8799 202.335C79.0825 203.485 78.9643 204.987 78.7305 206.386C79.6404 209.796 79.3744 216.565 79.3108 220.276C73.4161 220.289 66.8826 220.191 61.0836 220.894L60.5825 221.205C59.7084 221.321 56.1985 221.974 55.7439 221.963C54.2668 223.526 52.8392 224.585 52.7514 226.648C50.7663 227.354 46.5778 229.055 44.787 228.017L44.6512 227.094C46.2916 221.856 57.5806 213.042 62.1712 209.158C58.3928 206.966 53.1062 205.399 48.8726 204.304C46.4972 203.69 40.8168 202.783 39.0347 201.733L39 200.981C39.903 199.317 41.8249 198.442 43.4938 197.673L44.7375 197.23C46.9124 196.227 48.1065 195.94 50.4422 195.338C53.2804 194.301 63.1685 192.215 66.1289 192.093C69.1037 191.313 76.0578 191.27 77.2137 190Z" fill="#F83C59"/>
<path d="M43.4938 197.673L44.7375 197.229C46.5911 198.416 53.6298 199.666 56.3051 200.526C61.8952 202.323 65.046 203.862 69.9279 207.036C67.202 209.673 57.776 218.744 55.7439 221.963C54.2668 223.526 52.8392 224.585 52.7514 226.648C50.7663 227.354 46.5778 229.055 44.787 228.017L44.6512 227.094C46.2916 221.856 57.5806 213.042 62.1712 209.158C58.3928 206.966 53.1062 205.398 48.8726 204.304C46.4972 203.689 40.8168 202.783 39.0347 201.733L39 200.981C39.903 199.317 41.8249 198.441 43.4938 197.673Z" fill="#F4346B"/>
<path d="M43.4938 197.673L42.7126 198.971C41.81 198.358 64.3642 206.579 65.4116 206.882L62.1712 209.158C58.3928 206.966 53.1062 205.398 48.8726 204.303C46.4972 203.689 40.8168 202.783 39.0347 201.733L39 200.981C39.903 199.317 41.8249 198.441 43.4938 197.673Z" fill="#DC2C45"/>
<path d="M44.7373 197.229C46.9121 196.227 48.1063 195.939 50.442 195.338C60.4656 199.621 66.2392 199.986 75.908 207.221C69.5887 211.8 66.1839 215.022 61.0834 220.894L60.5823 221.204C59.7082 221.321 56.1983 221.973 55.7437 221.962C57.7758 218.743 67.2018 209.673 69.9277 207.035C65.0458 203.861 61.895 202.322 56.3049 200.526C53.6296 199.666 46.5909 198.415 44.7373 197.229Z" fill="#FEA03C"/>
<path d="M77.2132 190C77.5959 192.744 78.772 200.037 79.8795 202.335C79.082 203.485 78.9639 204.987 78.7301 206.386C76.9585 200.873 72.6222 192.433 66.1284 192.093C69.1032 191.313 76.0573 191.27 77.2132 190Z" fill="#DC2C45"/>
<path d="M220.402 206.95L220.861 206.232C221.63 207.306 221.302 206.977 222.592 207.51C228.423 211.932 232.185 215.006 237.099 220.587C231.711 220.145 224.937 220.239 219.437 220.177C219.231 214.724 219.343 212.393 220.402 206.95Z" fill="#F4346B"/>
<path d="M55.744 221.963C56.1985 221.974 59.7085 221.321 60.5825 221.205C59.3948 222.734 58.2223 224.359 56.8059 225.669L52.7515 226.648C52.8393 224.585 54.2669 223.526 55.744 221.963Z" fill="#EA653A"/>
<path d="M205.855 216.071C208.175 214.884 209.154 214.37 211.64 213.665L212.084 213.941L212.052 213.593L212.287 213.801L211.781 214.213L211.474 213.769L211.456 214.417C209.562 215.365 207.925 216.042 205.963 216.839L205.855 216.071Z" fill="#B10A68"/>
<path d="M221.436 190.629L229.475 191.488C235.676 192.577 243.48 194.618 249.009 195.483C250.649 196.025 252.604 196.613 254.168 197.277L255.498 198.002C257.019 198.566 259.05 200.171 260.343 201.237C259.119 201.874 257.543 202.78 256.246 203.114C250.92 203.783 240.727 206.125 236.239 209C238.046 210.478 248.337 218.847 249.16 220.646C250.869 222.324 253.999 224.901 253.063 227.585C251.224 228.826 247.914 227.672 246.078 226.685C246.071 225.28 244.832 224.024 243.936 222.861L242.823 222.001C241.995 221.999 238.946 221.368 237.97 221.187L237.099 220.587C232.185 215.006 228.424 211.932 222.592 207.51C221.302 206.977 221.631 207.306 220.861 206.232L220.402 206.95C219.564 206.378 218.845 205.046 218.281 204.146C220.005 202.273 220.995 193.456 221.436 190.629Z" fill="#F4346B"/>
<path d="M221.436 190.629L229.475 191.488C235.676 192.577 243.48 194.618 249.009 195.483C242.418 197.021 226.758 202.772 222.592 207.51C221.302 206.977 221.631 207.306 220.861 206.232L220.402 206.95C219.564 206.378 218.845 205.046 218.281 204.146C220.005 202.273 220.995 193.456 221.436 190.629Z" fill="#F24542"/>
<path d="M221.436 190.629L229.475 191.488C227.26 192.287 223.806 199.637 222.693 202.008C222.028 203.392 221.418 204.801 220.861 206.232L220.402 206.95C219.564 206.378 218.845 205.046 218.281 204.146C220.005 202.273 220.995 193.456 221.436 190.629Z" fill="#DC2C45"/>
<path d="M249.008 195.483C250.649 196.025 252.604 196.613 254.168 197.277C252.698 198.341 249.377 198.804 247.527 199.204C240.828 200.653 233.934 203.043 228.351 207.116C231.849 210.415 240.044 218.014 242.823 222.001C241.995 221.999 238.945 221.368 237.97 221.188L237.099 220.587C232.185 215.006 228.424 211.932 222.592 207.51C226.758 202.773 242.418 197.021 249.008 195.483Z" fill="#FEA03C"/>
<path d="M232.232 207.377C236.676 205.217 241.269 203.38 245.98 201.882C250.345 202.902 253.182 202.23 256.246 203.114C250.92 203.783 240.727 206.124 236.239 208.999C235.502 208.89 233.052 207.738 232.232 207.377Z" fill="#CD1C72"/>
<path d="M255.498 198.002C257.019 198.566 259.05 200.172 260.343 201.237C259.118 201.874 257.543 202.781 256.246 203.115C253.182 202.23 250.345 202.903 245.98 201.883C249.334 200.211 254.302 199.848 255.498 198.002Z" fill="#DC2C45"/>
<path d="M249.16 220.646C250.869 222.324 253.999 224.901 253.063 227.585C251.224 228.826 247.914 227.672 246.078 226.685C246.071 225.28 244.832 224.024 243.936 222.862C246.205 222.123 249.287 223.939 251.664 224.869C251.899 223.789 249.478 223.513 249.16 220.646Z" fill="#CD1C72"/>
<path d="M237.97 221.188C238.945 221.368 241.995 221.999 242.822 222.001L243.935 222.861C244.831 224.024 246.071 225.28 246.078 226.685C244.51 226.462 242.84 225.956 241.301 225.538C240.821 224.659 238.685 222.084 237.97 221.188Z" fill="#EA653A"/>
<path d="M274.151 110.586C270.975 110.222 268.979 110.516 265.844 110.9C260.922 112.328 249.726 114.483 245.59 117.559C245.123 118.608 246.565 130.645 246.622 132.883C246.613 134.237 246.595 135.59 246.569 136.944C246.533 145.095 245.999 154.388 244.099 162.313C243.713 163.922 242.379 167.948 243.282 169.35C243.71 169.633 243.894 169.81 244.398 169.867C242.706 170.427 241.342 170.93 240.532 172.672C238.473 177.1 236.823 181.755 234.546 186.107C234.132 186.899 233.52 188.477 233 189.063L233.184 189.645C234.632 189.006 239.76 188.516 241.614 188.211C248.396 187.097 254.537 184.016 260.226 180.255C266.493 176.113 271.749 166.153 273.375 158.875C273.689 157.473 274.214 155.776 273.482 154.682C272.228 153.958 270.082 154.249 268.568 154.298L267.873 154.063C271.955 150.462 278.129 145.419 280.187 140.273C282.714 136.04 285.227 126.237 284.856 121.333C284.71 119.41 278.763 120.983 277.604 121.477C276.86 122.189 272.68 124.7 271.721 124.924C271.231 124.677 271.405 124.855 271.156 124.398C272.817 119.595 274.189 115.727 274.151 110.586Z" fill="#DA901B"/>
<path d="M274.151 110.586C270.975 110.222 268.979 110.516 265.844 110.9C260.922 112.328 249.726 114.483 245.59 117.559C245.123 118.608 246.565 130.645 246.622 132.883C246.929 134.547 246.936 139.143 247.121 139.807C247.303 139.112 247.239 137.978 247.232 137.222C247.501 137.967 247.645 138.863 248.224 139.144C248.491 139.084 248.829 139.007 249.238 138.915C250.819 139.569 252.496 140.287 254.012 141.07C254.553 141.349 254.31 141.496 255.134 141.478L254.68 141.906C255.332 141.837 257.901 139.993 258.797 139.472C258.645 139.718 264.547 134.802 265.114 134.238C268.01 130.664 269.056 128.482 271.156 124.398C272.817 119.595 274.189 115.727 274.151 110.586Z" fill="#FFA82C"/>
<path d="M247.232 137.223C247.239 137.979 247.303 139.112 247.121 139.808C246.937 139.143 246.929 134.548 246.622 132.884C246.613 134.237 246.595 135.591 246.569 136.944C246.533 145.096 245.999 154.388 244.099 162.314C243.713 163.922 239.597 170.098 240.5 171.5C240.928 171.783 243.894 169.81 244.398 169.868C247.506 168.791 250.509 167.759 253.282 165.924C258.3 162.604 264.18 155.81 265.418 149.805C265.212 149.03 266.044 147.029 265.566 146.846C263.087 145.898 259.795 145.591 257.598 144.075C256.577 143.371 256.524 143.778 255.58 143.276C255.751 142.981 255.896 142.712 256.053 142.409C255.266 142.737 254.241 143.345 253.541 143.284L253.395 142.848C253.781 142.135 253.774 142.316 254.68 141.907L255.134 141.479C254.31 141.497 254.553 141.349 254.012 141.07C252.496 140.288 250.819 139.569 249.238 138.915C248.83 139.008 248.491 139.084 248.224 139.145C247.645 138.863 247.501 137.967 247.232 137.223Z" fill="#FFA82C"/>
<path d="M280.187 140.274C282.714 136.041 285.227 126.239 284.856 121.335C284.71 119.411 278.763 120.985 277.604 121.478C276.86 122.191 272.68 124.702 271.721 124.926C271.231 124.678 271.405 124.857 271.156 124.399C269.056 128.484 268.01 130.665 265.114 134.239C266.449 133.618 267.13 131.99 268.051 131.687C270.603 132.552 275.916 139.17 278.638 140.656C278.899 140.799 279.657 140.272 280.187 140.274Z" fill="#FDCD05"/>
<path d="M261.067 79C259.837 79.5055 257.425 79.941 255.847 80.4964C249.901 82.5883 245.207 86.188 240.041 89.6801C239.226 90.2312 237.949 91.8498 237.099 92.6198L236.994 92.7137C239.172 98.2616 241.602 103.534 242.987 109.37C243.244 110.451 244.719 117.271 245.417 117.585L245.59 117.56C249.726 114.483 260.921 112.329 265.843 110.901C266.482 110.242 267.2 110.166 268.047 109.825C268.648 107.656 265.373 100.797 265.373 100.797C265.373 100.797 265.775 97.1139 263.755 93.9585C263.016 94.334 262.579 94.7212 261.865 94.631C260.267 95.0267 259.497 95.3056 257.966 95.9265C260.311 90.4054 261.569 85.0167 261.067 79Z" fill="#D1A900"/>
<path d="M277.604 121.478L277.522 121.384C277.711 120.363 282.146 116.382 282.889 115.275C284.325 113.543 285.758 111.12 287.092 109.391C289.378 106.429 295.028 89.6692 292.748 87.0165C290.603 85.7614 264.073 92.1773 261.865 94.6315C262.58 94.7217 263.017 94.3345 263.755 93.959C265.775 97.1144 264.628 97.4708 265.373 100.797C265.852 102.935 268.648 107.657 268.048 109.825C267.2 110.166 266.482 110.243 265.843 110.901C268.979 110.517 270.975 110.223 274.151 110.587C274.189 115.728 272.817 119.596 271.156 124.399C271.405 124.856 271.231 124.678 271.721 124.925C272.68 124.701 276.86 122.191 277.604 121.478Z" fill="#FDCD05"/>
<path d="M30.1287 110.586C33.3046 110.222 35.301 110.516 38.4362 110.9C43.3583 112.328 54.5533 114.483 58.6897 117.559C59.1572 118.608 57.715 130.645 57.6578 132.883C57.6666 134.237 57.6845 135.59 57.7111 136.944C57.7466 145.095 58.2804 154.388 60.1807 162.313C60.5664 163.922 61.9012 167.948 60.9982 169.35C60.5698 169.633 60.3855 169.81 59.8817 169.867C61.5738 170.427 62.9374 170.93 63.7476 172.672C65.8071 177.1 67.4569 181.755 69.7333 186.107C70.1482 186.899 70.7594 188.477 71.28 189.063L71.0957 189.645C69.648 189.006 64.5197 188.516 62.6661 188.211C55.8836 187.097 49.743 184.016 44.0539 180.255C37.7865 176.113 32.5306 166.153 30.9044 158.875C30.591 157.473 30.066 155.776 30.7976 154.682C32.0519 153.958 34.1982 154.249 35.7115 154.298L36.4066 154.063C32.3252 150.462 26.1508 145.419 24.0927 140.273C21.5656 136.04 19.0526 126.237 19.4238 121.333C19.5695 119.41 25.5172 120.983 26.6755 121.477C27.4195 122.189 31.5994 124.7 32.5587 124.924C33.0483 124.677 32.8743 124.855 33.124 124.398C31.463 119.595 30.0911 115.727 30.1287 110.586Z" fill="#DA901B"/>
<path d="M30.1287 110.586C33.3047 110.222 35.301 110.516 38.4362 110.9C43.3583 112.328 54.5533 114.483 58.6897 117.559C59.1572 118.608 57.715 130.645 57.6578 132.883C57.351 134.547 57.3433 139.143 57.1588 139.807C56.9772 139.112 57.041 137.978 57.0475 137.222C56.7789 137.967 56.6345 138.863 56.0562 139.144C55.7885 139.084 55.4503 139.007 55.0421 138.915C53.4604 139.569 51.7842 140.287 50.2676 141.07C49.7264 141.349 49.9699 141.496 49.1457 141.478L49.6001 141.906C48.9481 141.837 46.3792 139.993 45.4831 139.472C45.6352 139.718 39.7326 134.802 39.1656 134.238C36.2699 130.664 35.2234 128.482 33.124 124.398C31.463 119.595 30.0911 115.727 30.1287 110.586Z" fill="#FFA82C"/>
<path d="M57.0474 137.223C57.0409 137.979 56.9771 139.112 57.1587 139.808C57.3432 139.143 57.351 134.548 57.6578 132.884C57.6666 134.237 57.6844 135.591 57.711 136.944C57.7465 145.096 58.2804 154.388 60.1807 162.314C60.5663 163.922 64.6828 170.098 63.7798 171.5C63.3514 171.783 60.3854 169.81 59.8816 169.868C56.7741 168.791 53.7706 167.759 50.9976 165.924C45.9801 162.604 40.0996 155.81 38.8619 149.805C39.0675 149.03 38.2355 147.029 38.7135 146.846C41.1926 145.898 44.4844 145.591 46.682 144.075C47.7028 143.371 47.7563 143.778 48.6994 143.276C48.5284 142.981 48.3838 142.712 48.227 142.409C49.0135 142.737 50.0387 143.345 50.7389 143.284L50.8852 142.848C50.4985 142.135 50.5063 142.316 49.6 141.907L49.1456 141.479C49.9698 141.497 49.7264 141.349 50.2676 141.07C51.7841 140.288 53.4604 139.569 55.042 138.915C55.4502 139.008 55.7884 139.084 56.0561 139.145C56.6345 138.863 56.7788 137.967 57.0474 137.223Z" fill="#FFA82C"/>
<path d="M24.0927 140.274C21.5656 136.041 19.0526 126.239 19.4238 121.335C19.5695 119.411 25.5172 120.985 26.6755 121.478C27.4195 122.191 31.5994 124.702 32.5587 124.926C33.0483 124.678 32.8743 124.857 33.124 124.399C35.2234 128.484 36.2699 130.665 39.1656 134.239C37.8312 133.618 37.1497 131.99 36.2285 131.687C33.6763 132.552 28.3638 139.17 25.642 140.656C25.3804 140.799 24.623 140.272 24.0927 140.274Z" fill="#FDCD05"/>
<path d="M43.2124 79C44.4423 79.5055 46.8544 79.941 48.4326 80.4964C54.3787 82.5883 59.073 86.188 64.2385 89.6801C65.0534 90.2312 66.3306 91.8498 67.1808 92.6198L67.286 92.7137C65.1073 98.2616 62.6781 103.534 61.2925 109.37C61.036 110.451 59.5609 117.271 58.8631 117.585L58.6899 117.56C54.5535 114.483 43.3585 112.329 38.4364 110.901C37.7977 110.242 37.0794 110.166 36.2323 109.825C35.6314 107.656 38.9071 100.797 38.9071 100.797C38.9071 100.797 38.5049 97.1139 40.5247 93.9585C41.2633 94.334 41.7003 94.7212 42.4149 94.631C44.0129 95.0267 44.7824 95.3056 46.3134 95.9265C43.9684 90.4054 42.7105 85.0167 43.2124 79Z" fill="#D1A900"/>
<path d="M26.6757 121.478L26.7577 121.384C26.5683 120.363 22.1338 116.382 21.391 115.275C19.9544 113.543 18.5215 111.12 17.1873 109.391C14.9021 106.429 9.25198 89.6692 11.5316 87.0165C13.6766 85.7614 40.2067 92.1773 42.4148 94.6315C41.7003 94.7217 41.2633 94.3345 40.5246 93.959C38.5049 97.1144 39.6522 97.4708 38.9071 100.797C38.4282 102.935 35.6314 107.657 36.2323 109.825C37.0794 110.166 37.7976 110.243 38.4364 110.901C35.3011 110.517 33.3048 110.223 30.1288 110.587C30.0913 115.728 31.4632 119.596 33.1241 124.399C32.8745 124.856 33.0485 124.678 32.5589 124.925C31.5996 124.701 27.4197 122.191 26.6757 121.478Z" fill="#FDCD05"/>
<path d="M250 132C250 187.781 205.228 233 150 233C94.7715 233 50 187.781 50 132C50 76.2192 94.7715 31 150 31C205.228 31 250 76.2192 250 132ZM60 132C60 182.203 100.294 222.9 150 222.9C199.706 222.9 240 182.203 240 132C240 81.7973 199.706 41.1 150 41.1C100.294 41.1 60 81.7973 60 132Z" fill="url(#paint0_linear_66_905)"/>
<path d="M144.091 12.4262L144.77 12.5814C145.981 11.6211 148.121 9.73698 149.685 9.819C150.843 10.7925 150.334 12.6296 149.773 13.8898L151.182 13.4539C151.375 12.5612 151.442 12.2514 151.799 11.3931C152.792 10.9641 152.911 11.1985 154.176 11.4025C154.867 11.0369 154.934 10.6846 155.223 9.97451C157.302 10.4215 161.082 11.1669 162.97 12.0533C160.052 11.7174 157.465 11.4789 154.588 10.8291C158.36 15.168 164.136 21.4202 166.324 26.6024C169.544 25.8484 181.094 23.7457 182.311 27.8124C181.881 29.4259 180.335 31.229 179.278 32.6239C178.437 33.7018 178.062 34.187 177.049 35.0891L175.556 36.5506C174.451 37.9222 173.531 39.1038 172.518 40.5445C171.625 41.8555 170.752 43.2985 169.737 44.5C167.351 44.0773 164.175 43.4933 161.36 42.9886L159.562 42.6274C155.549 41.6817 149.439 41.77 145.251 41.9183L143.044 42.2406C138.632 42.693 134.007 42.8578 129.737 44C126.604 39.5024 124.931 37.3411 121.035 33.4715C120.072 32.2542 117.222 28.972 117 27.5881C118.36 24.0747 129.918 25.8472 132.99 26.6285C136.218 21.0259 139.027 16.6781 144.091 12.4262Z" fill="#FE9039"/>
<path d="M155.223 9.97363C157.302 10.4206 161.082 11.166 162.971 12.0524C160.052 11.7165 157.465 11.478 154.588 10.8282C158.36 15.1672 164.136 21.4193 166.324 26.6015C169.544 25.8476 181.095 23.7448 182.311 27.8115C181.881 29.425 180.335 31.2281 179.278 32.623C178.437 33.7009 178.062 34.1861 177.049 35.0883L175.556 36.5497C174.451 37.9213 173.531 39.103 172.518 40.5436L172.158 39.6553C170.876 35.476 167.254 37.5932 163.922 38.2588C161.857 37.4844 159.303 30.196 157.301 27.6825C155.283 25.1492 155.054 24.8252 152.492 22.4953C150.208 22.542 150.244 22.648 148.336 21.3704C148.924 19.0951 149.126 17.3813 149.436 15.0429L149.773 13.889L151.182 13.453C151.375 12.5603 151.442 12.2505 151.799 11.3922C152.792 10.9632 152.911 11.1976 154.176 11.4017C154.867 11.0361 154.935 10.6837 155.223 9.97363Z" fill="#FC7A3D"/>
<path d="M151.182 13.4531C151.064 14.1774 150.988 14.9073 150.711 15.5802C154.341 17.3833 159.042 24.2313 161.617 27.4341C162.047 27.969 163.162 29.4047 163.522 29.9633C165.121 32.4475 165.173 31.715 167.916 32.0576L168.368 31.9364C169.598 32.2377 169.439 31.9878 169.989 32.8213L169.724 33.9865C171.536 35.6246 174.511 34.4493 177.049 35.0884L175.556 36.5498C174.451 37.9214 173.531 39.1031 172.518 40.5437L172.158 39.6554C170.876 35.4761 167.254 37.5933 163.922 38.2589C161.857 37.4845 159.303 30.1961 157.301 27.6826C155.283 25.1493 155.054 24.8253 152.492 22.4954C150.208 22.5421 150.244 22.6481 148.336 21.3705C148.924 19.0952 149.126 17.3814 149.436 15.043L149.773 13.8891L151.182 13.4531Z" fill="#EA653A"/>
<path d="M168.368 31.9365C169.598 32.2378 169.439 31.9879 169.989 32.8214L169.724 33.9866C171.536 35.6247 174.512 34.4494 177.049 35.0885L175.557 36.5499C172.689 33.6409 165.695 37.4698 163.951 36.7231C163.555 35.6812 164.146 34.1629 164.455 33.0232L167.916 32.0577L168.368 31.9365Z" fill="#F24542"/>
<path d="M151.182 13.4531C151.064 14.1774 150.988 14.9073 150.711 15.5802C150.433 16.8732 150.184 18.1858 149.753 19.4346C150.487 20.3286 151.623 21.8254 152.492 22.4954C150.208 22.5421 150.244 22.6481 148.336 21.3705C148.924 19.0952 149.126 17.3814 149.436 15.043L149.773 13.8891L151.182 13.4531Z" fill="#F19665"/>
<path d="M168.368 31.9362C171.104 31.1183 176.446 32.1078 179.278 32.6229C178.437 33.7008 178.062 34.186 177.049 35.0882C174.511 34.4491 171.536 35.6244 169.724 33.9863L169.989 32.821C169.439 31.9876 169.598 32.2375 168.368 31.9362Z" fill="#EA653A"/>
<path d="M144.091 12.4262L144.77 12.5814C145.981 11.6211 148.121 9.73698 149.685 9.819C150.843 10.7925 150.334 12.6296 149.773 13.8898L149.435 15.0437C149.125 17.3822 148.924 19.096 148.336 21.3713L148.164 21.5817C147.109 22.8593 145.949 23.8441 144.781 25.01C141.981 27.8039 137.854 34.1478 136.564 38.0042C136.457 37.4474 136.19 36.6717 136.016 36.1109C135.673 33.5233 135.017 32.0318 131.853 32.1044C130.561 32.134 130.296 32.51 129.455 33.3715L128.883 34.5062C128.68 34.433 122.29 33.7434 121.035 33.4715C120.072 32.2542 117.222 28.972 117 27.5881C118.36 24.0747 129.918 25.8472 132.99 26.6285C136.218 21.0259 139.027 16.6781 144.091 12.4262Z" fill="#FC7A3D"/>
<path d="M149.436 15.043C149.126 17.3814 148.924 19.0952 148.336 21.3705L148.164 21.5809C147.109 22.8585 145.949 23.8433 144.781 25.0092C141.981 27.8031 137.854 34.1471 136.564 38.0034C136.457 37.4466 136.19 36.671 136.017 36.1101C135.673 33.5225 135.018 32.0311 131.853 32.1036C130.561 32.1333 130.296 32.5093 129.455 33.3708L129.604 32.7446C128.857 32.0077 126.063 32.6048 124.913 32.0866C129.024 31.7465 130.68 31.3702 134.739 31.9254C135.386 31.5106 135.899 30.2406 136.23 29.5053C137.531 26.6237 146.581 17.3937 149.436 15.043Z" fill="#EA653A"/>
<path d="M129.455 33.3712C130.296 32.5098 130.562 32.1337 131.853 32.1041C135.018 32.0315 135.674 33.523 136.017 36.1106C136.19 36.6714 136.457 37.4471 136.565 38.0039C135.513 38.0272 133.775 37.4815 132.708 37.1869C127.285 37.4626 126.2 39.3067 130.624 43.1798C134.734 42.6211 138.095 40.9956 142.328 40.306C143.345 41.5467 143.263 41.7139 145.06 41.9L145.251 41.918L143.044 42.2404C138.632 42.6927 134.007 42.8578 129.737 44C126.604 39.5024 124.932 37.3408 121.036 33.4712C122.291 33.7432 128.68 34.4327 128.883 34.5059L129.455 33.3712Z" fill="#EA653A"/>
<path d="M129.455 33.3712C130.296 32.5098 130.562 32.1337 131.853 32.1041C135.018 32.0315 135.674 33.523 136.017 36.1106C136.19 36.6714 136.457 37.4471 136.565 38.0039C135.513 38.0272 133.775 37.4815 132.708 37.1869C132.007 36.7027 131.141 36.1954 130.406 35.7402C128.8 35.7702 127.194 35.8289 125.59 35.916L125.348 35.4232L124.563 35.7926L124.575 35.716C125.588 35.2737 128.661 34.6844 128.883 34.5059L129.455 33.3712Z" fill="#F24542"/>
<path d="M172.158 39.6562L172.518 40.5445C171.625 41.8555 170.752 43.2985 169.737 44.5C167.351 44.0773 164.175 43.4933 161.36 42.9886L159.562 42.6274C160.132 42.4887 160.352 42.3975 160.895 42.1704C160.59 41.3893 160.028 41.3407 159.087 40.8556C162.077 41.2571 165.532 39.9979 168.593 39.8818C170.148 39.8228 170.665 40.4061 172.158 39.6562Z" fill="#FC7A3D"/>
<path d="M142.327 40.3065C149.258 38.7832 152.636 39.2715 159.087 40.8556C160.028 41.3408 160.59 41.3894 160.895 42.1704C160.352 42.3976 160.132 42.4887 159.562 42.6275C155.549 41.6818 149.439 41.7701 145.251 41.9184L145.059 41.9004C143.262 41.7143 143.345 41.5471 142.327 40.3065Z" fill="#EB5110"/>
<path d="M148.199 27.2965C148.603 26.3501 148.917 25.2994 149.773 24.7666C150.889 25.1376 151.119 26.1997 151.552 27.2665C152.3 28.2031 152.458 28.7141 152.749 29.8087C153.716 33.4537 152.436 33.9572 150.141 36.0227C148.874 35.2435 148.363 34.7754 147.271 33.8045C147.203 32.2427 147.266 29.3592 147.52 27.7889C147.553 27.5801 147.941 27.4419 148.199 27.2965Z" fill="#FEA03C"/>
<path d="M148.199 27.2965C148.603 26.3501 148.917 25.2994 149.773 24.7666C150.889 25.1376 151.119 26.1997 151.552 27.2665C150.722 28.4504 149.1 28.6441 148.199 27.2965Z" fill="#FDDC80"/>
<path d="M147.646 8.28585C148.761 7.51742 149.679 7.38398 150.39 7.04393C151.755 6.3897 152.626 1.60499 153.031 0C153.105 0.764328 152.421 6.73258 152.336 8.3401C153.269 8.90917 154.264 9.4429 155.223 9.9738C154.935 10.6839 154.868 11.0362 154.176 11.4018C152.911 11.1977 152.792 10.9634 151.799 11.3924C151.442 12.2507 151.375 12.5605 151.183 13.4532L149.773 13.8891C150.335 12.6289 150.843 10.7918 149.685 9.81829C148.122 9.73627 145.981 11.6204 144.771 12.5807L144.092 12.4255C144.888 11.4135 146.265 10.2028 147.233 9.29401C145.182 8.95396 143.246 8.37386 141.248 7.81425C143.043 7.80258 145.786 8.1215 147.646 8.28585Z" fill="#F9F2C4"/>
<defs>
<linearGradient id="paint0_linear_66_905" x1="90.5" y1="46.5" x2="222.5" y2="226" gradientUnits="userSpaceOnUse">
<stop stop-color="#F3A426"/>
<stop offset="1" stop-color="#A06200"/>
</linearGradient>
</defs>
</svg>
