<svg width="300" height="220" viewBox="0 0 300 220" fill="none" xmlns="http://www.w3.org/2000/svg">
<path d="M76.9818 166.124C77.3621 169.423 78.5311 178.191 79.6318 180.953C92.9658 197.925 126.681 204.348 145.531 204.932C164.799 205.527 202.199 198.09 217.193 183.13C217.753 184.212 218.468 185.814 219.301 186.501L219.757 185.638C220.522 186.929 220.196 186.534 221.478 187.174C227.274 192.49 231.013 196.186 235.897 202.895L236.762 203.617C237.474 204.695 239.596 207.791 240.074 208.847C231.023 208.004 225.651 207.554 216.565 209.118C213.778 209.598 202.426 211.866 200.519 211.558L200.242 210.648C200.59 207.313 203.284 201.005 204.95 198.39L204.843 197.466C202.77 197.879 200.874 198.76 198.884 199.53C192.564 201.971 186.092 204.196 179.595 205.809C156.338 211.516 132.307 210.705 109.347 203.436C103.212 201.561 97.6637 198.851 91.8345 196.987C93.4111 200.499 96.3453 206.498 96.8369 210.247L96.5881 211.246C95.029 212.103 91.5059 211.007 89.5698 210.607C77.7137 208.154 68.6728 207.121 56.6978 209.005L52.668 210.182C50.6949 211.031 46.5318 213.076 44.7519 211.827L44.6169 210.718C46.2473 204.421 57.4678 193.825 62.0306 189.156C58.2751 186.52 53.0206 184.636 48.8127 183.32C46.4517 182.581 40.8057 181.492 39.0345 180.229L39 179.325C39.8975 177.325 41.8077 176.272 43.4666 175.348L44.7027 174.815C46.8643 173.61 48.0513 173.265 50.3727 172.542C53.1937 171.295 63.0218 168.787 65.9642 168.64C68.921 167.702 75.8329 167.651 76.9818 166.124Z" fill="#CD1C72"/>
<path d="M76.9818 166.124C77.3621 169.423 78.5311 178.191 79.6318 180.953C78.8392 182.335 78.7218 184.141 78.4894 185.823C79.3937 189.922 79.1294 198.06 79.0662 202.522C73.2073 202.537 66.7134 202.419 60.9496 203.265L60.4515 203.638C59.5827 203.778 56.0941 204.563 55.6423 204.549C54.1742 206.428 52.7552 207.701 52.668 210.182C50.6949 211.031 46.5318 213.076 44.7519 211.827L44.6169 210.718C46.2473 204.421 57.4678 193.825 62.0306 189.156C58.2751 186.52 53.0206 184.636 48.8127 183.32C46.4517 182.581 40.8057 181.492 39.0345 180.229L39 179.325C39.8975 177.325 41.8077 176.272 43.4666 175.348L44.7027 174.815C46.8643 173.61 48.0513 173.265 50.3727 172.542C53.1937 171.295 63.0218 168.787 65.9642 168.64C68.921 167.702 75.8329 167.651 76.9818 166.124Z" fill="#F83C59"/>
<path d="M43.4666 175.348L44.7027 174.814C46.5451 176.241 53.541 177.744 56.2001 178.778C61.7562 180.938 64.8879 182.787 69.7402 186.603C67.0309 189.774 57.6621 200.678 55.6423 204.548C54.1742 206.427 52.7552 207.701 52.668 210.181C50.6949 211.03 46.5318 213.075 44.7519 211.827L44.6169 210.717C46.2473 204.42 57.4678 193.824 62.0306 189.155C58.2751 186.519 53.0206 184.635 48.8127 183.319C46.4517 182.581 40.8057 181.491 39.0345 180.228L39 179.325C39.8975 177.324 41.8077 176.271 43.4666 175.348Z" fill="#F4346B"/>
<path d="M43.4666 175.348L42.6901 176.908C41.793 176.172 64.2102 186.055 65.2514 186.418L62.0306 189.155C58.2751 186.519 53.0206 184.635 48.8127 183.319C46.4517 182.581 40.8057 181.491 39.0345 180.228L39 179.325C39.8975 177.324 41.8077 176.271 43.4666 175.348Z" fill="#DC2C45"/>
<path d="M44.7026 174.815C46.8643 173.61 48.0512 173.264 50.3727 172.541C60.3354 177.69 66.0741 178.129 75.6842 186.826C69.4033 192.332 66.0191 196.205 60.9496 203.264L60.4514 203.637C59.5827 203.777 56.094 204.562 55.6423 204.549C57.662 200.678 67.0308 189.775 69.7401 186.603C64.8878 182.788 61.7562 180.938 56.2 178.778C53.541 177.744 46.545 176.241 44.7026 174.815Z" fill="#FEA03C"/>
<path d="M76.9809 166.124C77.3612 169.423 78.5302 178.191 79.631 180.953C78.8384 182.335 78.7209 184.141 78.4886 185.823C76.7277 179.195 72.4178 169.048 65.9634 168.64C68.9201 167.702 75.832 167.651 76.9809 166.124Z" fill="#DC2C45"/>
<path d="M219.301 186.5L219.757 185.638C220.522 186.929 220.195 186.533 221.477 187.173C227.274 192.489 231.012 196.185 235.896 202.894C230.542 202.363 223.808 202.476 218.342 202.402C218.137 195.846 218.249 193.044 219.301 186.5Z" fill="#F4346B"/>
<path d="M55.6423 204.549C56.0941 204.562 59.5827 203.778 60.4515 203.638C59.271 205.476 58.1056 207.43 56.6978 209.004L52.668 210.181C52.7552 207.701 54.1742 206.428 55.6423 204.549Z" fill="#EA653A"/>
<path d="M204.842 197.466C207.148 196.039 208.121 195.421 210.592 194.573L211.034 194.905L211.001 194.486L211.235 194.737L210.732 195.232L210.427 194.698L210.409 195.477C208.527 196.616 206.9 197.43 204.95 198.389L204.842 197.466Z" fill="#B10A68"/>
<path d="M220.328 166.88L228.319 167.913C234.482 169.222 242.239 171.675 247.734 172.716C249.364 173.367 251.307 174.074 252.862 174.872L254.184 175.743C255.696 176.422 257.714 178.352 259 179.633C257.782 180.398 256.217 181.488 254.927 181.89C249.634 182.694 239.502 185.509 235.042 188.965C236.838 190.742 247.066 200.803 247.885 202.966C249.583 204.984 252.693 208.081 251.763 211.308C249.935 212.8 246.646 211.413 244.821 210.226C244.814 208.537 243.582 207.027 242.691 205.629L241.585 204.595C240.763 204.592 237.732 203.834 236.762 203.617L235.897 202.895C231.012 196.186 227.274 192.49 221.477 187.174C220.195 186.533 220.522 186.929 219.757 185.638L219.301 186.501C218.468 185.813 217.753 184.212 217.193 183.13C218.906 180.878 219.89 170.279 220.328 166.88Z" fill="#F4346B"/>
<path d="M220.328 166.88L228.319 167.913C234.482 169.222 242.239 171.675 247.734 172.716C241.183 174.565 225.618 181.479 221.477 187.174C220.195 186.533 220.522 186.929 219.757 185.638L219.301 186.501C218.468 185.813 217.753 184.212 217.193 183.13C218.906 180.878 219.89 170.279 220.328 166.88Z" fill="#F24542"/>
<path d="M220.328 166.88L228.319 167.913C226.117 168.873 222.684 177.709 221.578 180.559C220.917 182.224 220.31 183.918 219.757 185.638L219.301 186.501C218.468 185.813 217.753 184.212 217.193 183.13C218.906 180.878 219.89 170.279 220.328 166.88Z" fill="#DC2C45"/>
<path d="M247.734 172.716C249.364 173.367 251.307 174.074 252.862 174.872C251.401 176.151 248.1 176.708 246.261 177.189C239.603 178.931 232.751 181.804 227.202 186.7C230.679 190.667 238.824 199.802 241.586 204.595C240.763 204.592 237.732 203.834 236.762 203.617L235.897 202.895C231.013 196.186 227.274 192.49 221.478 187.174C225.618 181.479 241.183 174.565 247.734 172.716Z" fill="#FEA03C"/>
<path d="M231.059 187.015C235.476 184.418 240.041 182.21 244.724 180.408C249.063 181.634 251.882 180.826 254.927 181.89C249.634 182.693 239.502 185.508 235.042 188.965C234.309 188.834 231.874 187.449 231.059 187.015Z" fill="#CD1C72"/>
<path d="M254.184 175.743C255.696 176.421 257.714 178.352 259 179.633C257.782 180.398 256.216 181.488 254.927 181.89C251.882 180.826 249.062 181.635 244.724 180.408C248.057 178.399 252.995 177.962 254.184 175.743Z" fill="#DC2C45"/>
<path d="M247.885 202.967C249.584 204.984 252.694 208.081 251.764 211.308C249.936 212.8 246.646 211.413 244.822 210.227C244.814 208.538 243.583 207.028 242.692 205.63C244.947 204.741 248.011 206.925 250.374 208.044C250.607 206.745 248.201 206.413 247.885 202.967Z" fill="#CD1C72"/>
<path d="M236.762 203.617C237.732 203.834 240.763 204.592 241.585 204.595L242.692 205.63C243.582 207.027 244.814 208.538 244.821 210.227C243.263 209.958 241.603 209.35 240.073 208.847C239.596 207.791 237.473 204.695 236.762 203.617Z" fill="#EA653A"/>
<path d="M24.6605 75.7214C28.755 75.2511 31.3287 75.6303 35.3707 76.1258C41.7163 77.9671 56.1491 80.7444 61.4818 84.7108C62.0845 86.063 60.2251 101.581 60.1515 104.467C60.1628 106.212 60.1858 107.957 60.2201 109.701C60.2659 120.211 60.9541 132.191 63.404 142.409C63.9012 144.482 65.6221 149.673 64.4579 151.48C63.9056 151.845 63.668 152.073 63.0185 152.147C65.2 152.869 66.9579 153.518 68.0024 155.763C70.6576 161.471 72.7845 167.473 75.7194 173.083C76.2542 174.105 77.0422 176.139 77.7133 176.895L77.4757 177.645C75.6094 176.822 68.9979 176.189 66.6081 175.796C57.8642 174.36 49.9475 170.387 42.6131 165.54C34.5331 160.199 27.7571 147.358 25.6606 137.976C25.2566 136.168 24.5798 133.98 25.5229 132.57C27.14 131.637 29.907 132.012 31.858 132.075L32.7541 131.773C27.4923 127.129 19.5323 120.628 16.8789 113.993C13.6209 108.536 10.3811 95.8988 10.8597 89.5765C11.0475 87.0967 18.7153 89.1253 20.2086 89.7618C21.1678 90.6802 26.5566 93.9173 27.7934 94.2062C28.4246 93.8871 28.2002 94.117 28.5221 93.5273C26.3808 87.3351 24.6121 82.3492 24.6605 75.7214Z" fill="#DA901B"/>
<path d="M24.6611 75.7214C28.7556 75.2511 31.3293 75.6303 35.3713 76.1258C41.7169 77.9671 56.1497 80.7444 61.4824 84.7108C62.0851 86.063 60.2257 101.581 60.1521 104.467C59.7565 106.612 59.7466 112.536 59.5086 113.394C59.2746 112.497 59.3568 111.035 59.3652 110.06C59.0189 111.021 58.8328 112.176 58.0872 112.539C57.7421 112.461 57.3061 112.362 56.7798 112.243C54.7407 113.086 52.5797 114.012 50.6245 115.021C49.9268 115.381 50.2406 115.571 49.1781 115.548L49.7639 116.1C48.9233 116.01 45.6115 113.632 44.4562 112.961C44.6523 113.278 37.0426 106.941 36.3116 106.213C32.5785 101.606 31.2293 98.7929 28.5227 93.5273C26.3814 87.3351 24.6127 82.3492 24.6611 75.7214Z" fill="#FFA82C"/>
<path d="M59.3645 110.062C59.3562 111.037 59.2739 112.499 59.508 113.396C59.7459 112.538 59.7559 106.614 60.1514 104.469C60.1627 106.214 60.1857 107.959 60.2201 109.703C60.2658 120.213 60.9541 132.193 63.404 142.41C63.9011 144.484 69.2081 152.446 68.044 154.253C67.4917 154.619 63.6679 152.075 63.0184 152.149C59.0122 150.76 55.14 149.431 51.565 147.065C45.0965 142.784 37.5153 134.025 35.9196 126.284C36.1847 125.285 35.1119 122.705 35.7282 122.469C38.9243 121.247 43.1681 120.85 46.0013 118.896C47.3173 117.989 47.3862 118.514 48.6022 117.867C48.3817 117.486 48.1953 117.139 47.9931 116.749C49.0071 117.172 50.3289 117.955 51.2315 117.876L51.4202 117.315C50.9216 116.395 50.9316 116.629 49.7633 116.102L49.1775 115.55C50.24 115.573 49.9261 115.383 50.6239 115.023C52.5791 114.014 54.74 113.088 56.7792 112.245C57.3054 112.364 57.7414 112.463 58.0865 112.541C58.8321 112.178 59.0183 111.023 59.3645 110.062Z" fill="#FFA82C"/>
<path d="M16.8789 113.995C13.6209 108.538 10.3811 95.9009 10.8597 89.5785C11.0475 87.0987 18.7153 89.1273 20.2086 89.7638C21.1678 90.6823 26.5566 93.9194 27.7934 94.2082C28.4246 93.8892 28.2002 94.1191 28.5221 93.5294C31.2287 98.795 32.5779 101.608 36.311 106.215C34.5907 105.415 33.7121 103.315 32.5244 102.926C29.2342 104.041 22.3852 112.573 18.8763 114.488C18.539 114.672 17.5626 113.993 16.8789 113.995Z" fill="#FDCD05"/>
<path d="M41.5278 35C43.1135 35.6517 46.2231 36.2132 48.2578 36.9292C55.9235 39.6261 61.9755 44.2669 68.6349 48.7689C69.6855 49.4794 71.3321 51.5661 72.4281 52.5588L72.5638 52.6799C69.755 59.8323 66.6232 66.6296 64.8369 74.153C64.5062 75.5467 62.6045 84.34 61.7049 84.7438L61.4816 84.7117C56.1489 80.7453 41.7161 77.9681 35.3705 76.1267C34.5471 75.278 33.6211 75.1794 32.529 74.7399C31.7543 71.944 35.9774 63.1009 35.9774 63.1009C35.9774 63.1009 35.4589 58.3527 38.0627 54.2847C39.015 54.7688 39.5784 55.268 40.4996 55.1516C42.5598 55.6618 43.5519 56.0213 45.5257 56.8218C42.5024 49.704 40.8807 42.7568 41.5278 35Z" fill="#D1A900"/>
<path d="M20.2093 89.7639L20.315 89.642C20.0708 88.3266 14.3538 83.1939 13.3962 81.7661C11.5441 79.5339 9.69681 76.4096 7.97679 74.1807C5.03068 70.3629 -2.25357 48.7554 0.68533 45.3356C3.45076 43.7175 37.6536 51.9889 40.5004 55.1528C39.5792 55.2692 39.0158 54.77 38.0635 54.2859C35.4596 58.3539 36.9387 58.8134 35.9781 63.1021C35.3608 65.8584 31.755 71.9452 32.5298 74.7411C33.6219 75.1806 34.5478 75.2792 35.3713 76.1279C31.3293 75.6324 28.7556 75.2532 24.6611 75.7235C24.6127 82.3514 26.3814 87.3373 28.5227 93.5294C28.2008 94.1191 28.4252 93.8892 27.794 94.2083C26.5573 93.9194 21.1684 90.6823 20.2093 89.7639Z" fill="#FDCD05"/>
<path d="M275.339 75.7214C271.245 75.2511 268.671 75.6303 264.629 76.1258C258.284 77.9671 243.851 80.7444 238.518 84.7108C237.916 86.063 239.775 101.581 239.849 104.467C239.837 106.212 239.814 107.957 239.78 109.701C239.734 120.211 239.046 132.191 236.596 142.409C236.099 144.482 234.378 149.673 235.542 151.48C236.094 151.845 236.332 152.073 236.982 152.147C234.8 152.869 233.042 153.518 231.998 155.763C229.342 161.471 227.216 167.473 224.281 173.083C223.746 174.105 222.958 176.139 222.287 176.895L222.524 177.645C224.391 176.822 231.002 176.189 233.392 175.796C242.136 174.36 250.052 170.387 257.387 165.54C265.467 160.199 272.243 147.358 274.339 137.976C274.743 136.168 275.42 133.98 274.477 132.57C272.86 131.637 270.093 132.012 268.142 132.075L267.246 131.773C272.508 127.129 280.468 120.628 283.121 113.993C286.379 108.536 289.619 95.8988 289.14 89.5765C288.953 87.0967 281.285 89.1253 279.791 89.7618C278.832 90.6802 273.443 93.9173 272.207 94.2062C271.575 93.8871 271.8 94.117 271.478 93.5273C273.619 87.3351 275.388 82.3492 275.339 75.7214Z" fill="#DA901B"/>
<path d="M275.339 75.7214C271.244 75.2511 268.671 75.6303 264.629 76.1258C258.283 77.9671 243.85 80.7444 238.518 84.7108C237.915 86.063 239.774 101.581 239.848 104.467C240.243 106.612 240.253 112.536 240.491 113.394C240.725 112.497 240.643 111.035 240.635 110.06C240.981 111.021 241.167 112.176 241.913 112.539C242.258 112.461 242.694 112.362 243.22 112.243C245.259 113.086 247.42 114.012 249.375 115.021C250.073 115.381 249.759 115.571 250.822 115.548L250.236 116.1C251.077 116.01 254.389 113.632 255.544 112.961C255.348 113.278 262.957 106.941 263.688 106.213C267.422 101.606 268.771 98.7929 271.477 93.5273C273.619 87.3351 275.387 82.3492 275.339 75.7214Z" fill="#FFA82C"/>
<path d="M240.636 110.062C240.644 111.037 240.726 112.499 240.492 113.395C240.254 112.538 241.719 101.247 241.323 99.1016C241.312 100.847 241.948 105.739 241.913 107.484C241.868 117.993 239.046 132.193 236.596 142.41C236.099 144.484 230.792 152.446 231.956 154.253C232.508 154.619 236.332 152.074 236.982 152.149C240.988 150.76 244.86 149.43 248.435 147.065C254.904 142.784 262.485 134.025 264.08 126.284C263.815 125.285 264.888 122.704 264.272 122.469C261.076 121.247 256.832 120.85 253.999 118.896C252.683 117.989 252.614 118.514 251.398 117.866C251.618 117.486 251.805 117.139 252.007 116.749C250.993 117.172 249.671 117.955 248.768 117.876L248.58 117.315C249.078 116.395 249.068 116.629 250.237 116.102L250.823 115.55C249.76 115.573 250.074 115.383 249.376 115.023C247.421 114.014 245.26 113.088 243.221 112.245C242.695 112.364 242.259 112.463 241.913 112.541C241.168 112.178 240.982 111.023 240.636 110.062Z" fill="#FFA82C"/>
<path d="M283.121 113.995C286.379 108.538 289.619 95.9009 289.14 89.5785C288.953 87.0987 281.285 89.1273 279.791 89.7638C278.832 90.6823 273.443 93.9194 272.207 94.2082C271.575 93.8892 271.8 94.1191 271.478 93.5294C268.771 98.795 267.422 101.608 263.689 106.215C265.409 105.415 266.288 103.315 267.476 102.926C270.766 104.041 277.615 112.573 281.124 114.488C281.461 114.672 282.437 113.993 283.121 113.995Z" fill="#FDCD05"/>
<path d="M258.472 35C256.887 35.6517 253.777 36.2132 251.742 36.9292C244.077 39.6261 238.025 44.2669 231.365 48.7689C230.315 49.4794 228.668 51.5661 227.572 52.5588L227.436 52.6799C230.245 59.8323 233.377 66.6296 235.163 74.153C235.494 75.5467 237.396 84.34 238.295 84.7438L238.518 84.7117C243.851 80.7453 258.284 77.9681 264.629 76.1267C265.453 75.278 266.379 75.1794 267.471 74.7399C268.246 71.944 264.023 63.1009 264.023 63.1009C264.023 63.1009 264.541 58.3527 261.937 54.2847C260.985 54.7688 260.422 55.268 259.5 55.1516C257.44 55.6618 256.448 56.0213 254.474 56.8218C257.498 49.704 259.119 42.7568 258.472 35Z" fill="#D1A900"/>
<path d="M279.791 89.7639L279.685 89.642C279.929 88.3266 285.646 83.1939 286.604 81.7661C288.456 79.5339 290.303 76.4096 292.023 74.1807C294.969 70.3629 302.254 48.7554 299.315 45.3356C296.549 43.7175 262.346 51.9889 259.5 55.1528C260.421 55.2692 260.984 54.77 261.936 54.2859C264.54 58.3539 263.061 58.8134 264.022 63.1021C264.639 65.8584 268.245 71.9452 267.47 74.7411C266.378 75.1806 265.452 75.2792 264.629 76.1279C268.671 75.6324 271.244 75.2532 275.339 75.7235C275.387 82.3514 273.619 87.3373 271.477 93.5294C271.799 94.1191 271.575 93.8892 272.206 94.2083C273.443 93.9194 278.832 90.6823 279.791 89.7639Z" fill="#FDCD05"/>
<path d="M250 110C250 165.781 205.228 211 150 211C94.7715 211 50 165.781 50 110C50 54.2192 94.7715 9 150 9C205.228 9 250 54.2192 250 110ZM60 110C60 160.203 100.294 200.9 150 200.9C199.706 200.9 240 160.203 240 110C240 59.7973 199.706 19.1 150 19.1C100.294 19.1 60 59.7973 60 110Z" fill="url(#paint0_linear_66_905)"/>
<path d="M147.427 4.8554C148.808 2.09213 149.676 -1.03465 152.569 2.52148L152.502 2.59054L152.811 3.06492C153.227 4.29701 153.449 4.82491 154.22 5.89867L154.604 5.85041C155.123 6.43243 155.597 6.42859 156.388 6.49988C158.096 6.85511 159.927 7.04514 161.08 8.45131C161.494 9.62363 161.417 9.84719 160.751 10.88L158.976 12.6904C158.278 13.3044 157.368 14.0368 156.837 14.7743C157.378 16.0882 157.571 19.0975 157.973 20.0066C157.208 24.8292 152.739 19.3608 150.463 19.5456C148.301 19.7211 143.902 24.479 143.03 20.2052C143.164 19.3784 143.325 18.6104 143.499 17.7939L143.941 14.4496C143.365 13.8112 142.792 13.3904 142.122 12.8641C141.876 12.547 141.086 11.7978 140.765 11.4769L140.58 11.281C139.671 10.3111 139.447 10.1016 139.495 8.75181C140.771 7.22831 142.608 7.30808 144.544 7.10471C146.765 6.85813 146.604 6.84965 147.427 4.8554Z" fill="#FD7C2E"/>
<path d="M147.427 4.8554C148.808 2.09213 149.676 -1.03465 152.569 2.52148L152.502 2.59054L152.811 3.06492C153.227 4.29701 153.449 4.82491 154.22 5.89867L154.604 5.85041C155.123 6.43243 155.597 6.42859 156.389 6.49988C158.096 6.85511 159.927 7.04514 161.08 8.45131L159.774 9.24982C158.855 10.0812 155.375 11.2295 153.91 11.8994L153.879 12.2631C152.874 12.435 152.081 13.3098 151.039 13.2381C149.216 13.1129 142.156 10.9224 141.06 9.70198C140.963 9.60101 139.708 8.88025 139.496 8.75181C140.771 7.22831 142.609 7.30808 144.545 7.10471C146.765 6.85813 146.604 6.84965 147.427 4.8554Z" fill="#FEB840"/>
<path d="M151.253 7.29079C150.974 5.85089 150.841 6.37879 150.066 5.18769C150.173 4.48228 151.84 3.21807 152.503 2.59082L152.811 3.0652C153.227 4.29729 153.449 4.82519 154.221 5.89895L154.604 5.85069C155.123 6.4327 155.597 6.42887 156.389 6.50016C158.097 6.85538 159.928 7.04542 161.08 8.45159L159.774 9.2501C158.856 10.0815 155.375 11.2298 153.91 11.8997C152.918 12.1626 152.228 12.0447 151.235 11.8151L151.037 11.4417C151.207 11.0543 151.299 11.083 151.687 10.819C151.102 10.2362 151.261 8.25247 151.253 7.29079Z" fill="#FDDC80"/>
<path d="M151.253 7.29079C150.974 5.85089 150.841 6.37879 150.066 5.18769C150.173 4.48228 151.84 3.21807 152.503 2.59082L152.811 3.0652C153.227 4.29729 153.449 4.82519 154.221 5.89895L154.604 5.85069C155.123 6.4327 155.597 6.42887 156.389 6.50016C153.74 6.19501 153.334 6.51611 151.792 8.83065C151.37 8.44755 151.39 7.94429 151.253 7.29079Z" fill="#F9F2C4"/>
<path d="M154.22 5.89918C153.439 6.4602 151.332 6.65447 150.94 5.44581C151.136 4.64589 152.198 3.71631 152.811 3.06543C153.227 4.29752 153.449 4.82542 154.22 5.89918Z" fill="#FEF7E0"/>
<path d="M151.687 10.8189C151.996 10.3454 152.038 10.262 152.2 9.73811L152.236 9.61512C152.533 9.42993 158.563 9.38147 159.774 9.25C158.856 10.0814 155.375 11.2297 153.91 11.8996C152.919 12.1625 152.228 12.0446 151.235 11.815L151.037 11.4416C151.207 11.0542 151.3 11.0829 151.687 10.8189Z" fill="#FBAF50"/>
<path d="M139.496 8.75301C140.771 7.2295 142.609 7.30927 144.545 7.10591C145.102 7.09985 146.137 7.01564 146.569 7.25818L146.652 7.43206C146.89 8.04013 147.114 8.65284 147.326 9.2702C146.149 10.4201 142.641 9.92694 141.06 9.70318C140.963 9.6022 139.708 8.88145 139.496 8.75301Z" fill="#FDDC80"/>
<path d="M144.544 7.10478C146.765 6.8582 146.604 6.84972 147.427 4.85547C148.025 5.08387 148.554 5.10791 148.747 5.74324C149.024 6.64818 149.238 7.36853 148.592 8.14906C147.688 8.47642 147.387 8.01254 146.652 7.43093L146.569 7.25705C146.137 7.01451 145.102 7.09872 144.544 7.10478Z" fill="#FBAF50"/>
<path d="M140.765 11.4775C143.105 11.936 144.124 12.3734 146.268 13.4415C144.944 15.0442 144.766 17.618 143.573 17.8286L143.499 17.7945L143.941 14.4502C143.365 13.8119 142.792 13.391 142.122 12.8647C141.875 12.5477 141.086 11.7984 140.765 11.4775Z" fill="#FC7A3D"/>
<path d="M161.08 8.45215C161.494 9.62446 161.417 9.84802 160.751 10.8808C159.742 10.8511 159.485 10.944 158.516 11.252C156.71 11.2017 155.406 12.1484 153.879 12.2639L153.91 11.9002C155.375 11.2304 158.856 10.0821 159.774 9.25066L161.08 8.45215Z" fill="#FEA03C"/>
<path d="M158.516 11.2514C159.485 10.9435 159.741 10.8506 160.751 10.8802L158.976 12.6907C158.278 13.3046 157.367 14.0371 156.836 14.7746C156.251 14.5925 155.726 14.3275 155.367 13.8214C155.561 12.7905 157.357 12.0822 158.516 11.2514Z" fill="#FC7A3D"/>
<path d="M147.883 14.5835C150.544 14.5102 149.377 17.1697 148.511 18.4997C147.716 17.581 146.747 16.7254 146.769 15.5248C147.183 14.7693 146.993 15.0072 147.883 14.5835Z" fill="#FBAF50"/>
<path d="M152.569 2.52235C153.412 1.53845 152.809 1.07841 153.546 0C153.792 0.826175 153.534 2.43571 153.38 3.30026C153.77 4.17975 154.123 5.01581 154.603 5.85128L154.22 5.89954C153.449 4.82578 153.227 4.29789 152.811 3.06579L152.502 2.59141L152.569 2.52235Z" fill="#64808A" fill-opacity="0.960784"/>
<defs>
<linearGradient id="paint0_linear_66_905" x1="90.5" y1="24.5" x2="222.5" y2="204" gradientUnits="userSpaceOnUse">
<stop stop-color="#F3A426"/>
<stop offset="1" stop-color="#A06200"/>
</linearGradient>
</defs>
</svg>
