<svg width="300" height="220" viewBox="0 0 300 220" fill="none" xmlns="http://www.w3.org/2000/svg">
<path d="M16.5893 79.1021C21.3304 77.9444 26.7199 78.6737 31.5796 78.8718C33.2764 78.941 35.3334 79.553 37.071 79.7431C43.2974 80.4236 49.7888 81.6636 55.5407 84.2025C57.9081 85.2645 60.5341 87.4801 62.3053 89.3821C62.5102 91.1747 60.7893 99.6583 60.4333 102.187C59.11 112.176 59.5838 122.321 61.8323 132.142C63.188 137.925 65.1348 143.553 67.6418 148.937C68.0927 149.893 68.7044 151.056 69.2589 151.947C71.0612 154.844 70.8555 155.71 67.3571 155.871C66.1656 156.012 63.9812 155.595 62.7889 155.388C56.8888 154.361 51.2734 152.622 46.5872 148.741C40.8324 144.013 37.6463 136.505 36.514 129.281C36.1721 127.1 38.239 127.686 38.9106 127.342C38.1167 126.21 35.2937 123.97 33.9249 122.316C30.1339 117.761 27.7655 111.845 26.2244 106.169C25.5001 103.501 29.8152 103.212 31.4692 103.039C31.1186 102.728 30.6861 102.432 30.2982 102.168C22.6939 96.9856 16.2409 88.7899 16.5893 79.1021Z" fill="url(#paint0_linear_65_241)"/>
<path d="M240.161 90.4331C246.072 83.2675 255.529 81.4757 264.281 80.1759C271.041 79.1721 279.41 78.2703 286.109 79.5477C286.19 85.3151 282.441 93.4609 278.349 97.424C277.856 97.9 271.736 103 271.072 103.459C275.383 104.296 277.117 103.925 275.442 109.542C275.168 110.461 274.816 111.589 274.375 112.448C272.514 116.073 271.052 120.033 268.327 123.113C266.974 124.642 265.18 125.927 264.07 127.533C264.737 128.229 266.465 127.825 266.209 129.469C263.389 147.501 251.905 154.354 235.047 156.638C234.931 156.575 234.833 156.523 234.715 156.467L234.578 156.403C234.007 156.133 232.443 156.325 231.564 156.272L231.398 156.072C231.673 155.531 231.846 155.418 232.158 154.946C232.518 154.4 232.737 153.57 233.021 152.921L235.481 147.425C237.52 142.852 238.454 139.461 239.794 134.746C241.779 127.768 242.823 122.609 242.724 115.269C242.638 108.835 242.677 102.896 241.141 96.5389C240.7 94.7137 240.532 92.3401 240.161 90.4331Z" fill="url(#paint1_linear_65_241)"/>
<path d="M250 110C250 165.781 205.228 211 150 211C94.7715 211 50 165.781 50 110C50 54.2192 94.7715 9 150 9C205.228 9 250 54.2192 250 110ZM60 110C60 160.203 100.294 200.9 150 200.9C199.706 200.9 240 160.203 240 110C240 59.7973 199.706 19.1 150 19.1C100.294 19.1 60 59.7973 60 110Z" fill="url(#paint2_linear_65_241)"/>
<defs>
<linearGradient id="paint0_linear_65_241" x1="29.9587" y1="91.3412" x2="97.1427" y2="122.69" gradientUnits="userSpaceOnUse">
<stop stop-color="#F7D9F7"/>
<stop offset="1" stop-color="#B0328C"/>
</linearGradient>
<linearGradient id="paint1_linear_65_241" x1="207.957" y1="127.511" x2="270.731" y2="98.0655" gradientUnits="userSpaceOnUse">
<stop stop-color="#B0328C"/>
<stop offset="1" stop-color="#F7D9F7"/>
</linearGradient>
<linearGradient id="paint2_linear_65_241" x1="212.5" y1="190.5" x2="86" y2="22" gradientUnits="userSpaceOnUse">
<stop stop-color="#E768C3"/>
<stop offset="1" stop-color="#FFA5E6"/>
</linearGradient>
</defs>
</svg>
