<svg width="300" height="221" viewBox="0 0 300 221" fill="none" xmlns="http://www.w3.org/2000/svg">
<path d="M250 110C250 165.781 205.228 211 150 211C94.7715 211 50 165.781 50 110C50 54.2192 94.7715 9 150 9C205.228 9 250 54.2192 250 110ZM60 110C60 160.203 100.294 200.9 150 200.9C199.706 200.9 240 160.203 240 110C240 59.7973 199.706 19.1 150 19.1C100.294 19.1 60 59.7973 60 110Z" fill="url(#paint0_linear_71_593)"/>
<path d="M75.6384 34.1917C71.0602 30.8151 64.9921 24.5542 58.9788 24.8272C56.6846 25.4948 51.9985 26.9747 50.2909 28.6483C42.8785 32.4817 35.3366 38.2167 27.4862 41.8903C23.3075 43.8463 16.6678 45.4871 13.6592 48.4725C9.35198 60.872 25.5531 89.6806 36.2794 95.443C38.7546 97.31 43.996 98.538 44.7569 100.026C44.1155 106.267 44.4828 111.902 45.3326 118.08C48.5742 131.26 55.5 145.5 56 147.5C56.5 149.5 59 152 59 151.5C59 151 59 152.5 56.5 146C54 139.5 51.5561 126.576 50.7159 121.292C51.5982 120.018 52.7621 118.61 53.734 117.376C61.7603 108.836 57.2878 92.3443 58.8429 90.2638C60.8171 68.2367 66.3351 59.7614 76.8311 40.8745L80.4856 37.5402C78.3298 36.7363 77.4653 35.5415 75.6384 34.1917Z" fill="#701A22"/>
<path d="M13.6592 48.4725C16.6678 45.4871 23.3075 43.8463 27.4862 41.8904C35.3366 38.2167 42.8786 32.4817 50.291 28.6483C50.8841 29.5188 50.7818 29.1592 50.9561 30.126C44.6568 34.4501 39.4669 37.8651 32.9557 41.7831C40.8364 44.5648 39.0455 54.0303 38.5838 60.6081C38.4832 62.0391 37.9514 63.8179 37.9655 65.1921C39.3621 69.4398 34.0288 81.0904 30.9978 84.8602C30.7616 84.5211 27.1716 81.9953 26.6231 81.6566L25.9438 81.9785C27.2812 84.1231 28.7291 86.1978 30.2814 88.1894C31.3006 89.4907 36.1734 94.7083 36.2794 95.443C25.5532 89.6806 9.35201 60.872 13.6592 48.4725Z" fill="#C24C32"/>
<path d="M37.9651 65.1915C39.3617 69.4393 34.0284 81.0899 30.9974 84.8597C30.7611 84.5205 27.1712 81.9948 26.6227 81.6561L25.9434 81.978C25.1796 80.8517 24.5494 79.5693 23.9087 78.3607C25.3177 79.1379 25.9453 80.2134 26.9493 81.5076C34.8002 77.9503 35.8021 72.9067 37.9651 65.1915Z" fill="#800327"/>
<path d="M58.9789 24.8273C64.9921 24.5544 71.0603 30.8153 75.6384 34.1918C77.4653 35.5416 78.3298 36.7365 80.4856 37.5403L76.8312 40.8747C74.8508 41.613 74.3808 42.0822 72.8786 43.5992C69.9648 46.7434 65.7814 50.7224 63.3051 53.9262C63.1325 55.3284 62.4492 61.8165 61.9957 62.6903L61.6011 62.5679C61.3196 63.4712 61.407 63.3325 61.4828 64.3116L61.5077 64.6164L61.0735 64.7024C61.2344 63.7684 61.4029 63.8204 61.1347 63.1665C60.5818 65.4002 58.3183 69.204 57.117 71.1887C56.0615 68.8809 55.3028 66.4492 54.8596 63.9493C53.2709 55.3308 50.4142 34.7293 55.2502 27.5964C53.5014 28.4829 52.5779 29.06 50.9561 30.1262C50.7818 29.1593 50.8841 29.5189 50.291 28.6484C51.9985 26.9748 56.6846 25.4949 58.9789 24.8273Z" fill="#921F2B"/>
<path d="M63.3049 53.9259C62.6192 52.2696 63.3617 38.9484 64.6118 37.6346C66.8775 37.7997 71.1641 42.008 72.8785 43.599C69.9647 46.7432 65.7813 50.7221 63.3049 53.9259Z" fill="#580E26"/>
<path d="M30.9976 84.8608C34.4404 88.9934 41.2199 93.2467 46.7852 91.7471C51.2965 90.5316 54.7141 85.8013 56.6428 81.7611C57.3522 80.277 57.6538 78.8477 58.5155 77.3697L58.889 77.4202L59.2259 78.5551C57.5679 84.8717 54.4113 98.3677 46.6893 99.5127L45.5655 99.8555L45.031 99.6596L44.7568 100.027C43.9958 98.5387 38.7544 97.3106 36.2792 95.4436C36.1732 94.709 31.3004 89.4914 30.2812 88.1901C28.7289 86.1984 27.281 84.1238 25.9436 81.9791L26.6229 81.6573C27.1714 81.996 30.7613 84.5217 30.9976 84.8608Z" fill="#500317"/>
<path d="M234.802 25.594C242.043 23.5468 244.88 27.1187 250.482 31.3156L263.136 40.6355C265.816 42.6 268.409 44.5414 271.178 46.2777C273.818 48.0669 284.362 50.9046 284.79 54.1689C285.681 60.9587 279.433 74.3168 275.764 79.6845C269.622 88.6671 262.091 99.9879 250.807 102.028C250.656 107.767 250.453 113.336 249.513 119.018C249.092 121.568 248.047 124.157 247.713 126.033C246.819 125.12 245.905 124.419 245.671 123.188L245.346 123.602C240.295 119.243 237.555 112.046 236.817 105.6C236.608 103.778 236.394 100.424 236.042 98.8469L235.896 98.2152C235.587 85.0158 234.517 72.0315 230.591 59.3877C228.174 51.5297 225.249 46.7308 221.15 39.7988C219.557 38.2873 219.717 38.0327 217.668 36.7858L216 35.5158C219.801 33.2702 223.681 32.1424 227.583 30.039C229.532 28.4713 232.598 26.7548 234.802 25.594Z" fill="#711B22"/>
<path d="M225.983 43.2452C227.844 41.4229 232.989 37.5633 235.838 37.5733L235.921 41.069C235.85 43.7909 235.853 51.8309 235.222 53.9542C236.449 55.9617 236.349 61.4088 236.669 64.048C238.074 75.6664 238.825 94.7362 249.428 101.562L250.808 102.029C250.656 107.767 250.453 113.336 249.513 119.018C249.092 121.568 248.047 124.158 247.714 126.033C246.819 125.12 245.905 124.419 245.671 123.189L245.347 123.602C240.295 119.243 237.555 112.046 236.817 105.601C236.608 103.778 236.394 100.425 236.043 98.8472L235.896 98.2155C235.587 85.0161 234.518 72.0318 230.592 59.388C228.174 51.53 225.25 46.7311 221.15 39.7991C223.418 40.6556 224.251 41.5519 225.983 43.2452Z" fill="#A13026"/>
<path d="M225.983 43.2452C227.844 41.4229 232.988 37.5633 235.837 37.5733L235.921 41.069C235.85 43.7909 235.852 51.8309 235.221 53.9542C232.805 50.5576 228.835 46.5393 225.983 43.2452Z" fill="#580E26"/>
<path d="M249.428 101.562L250.807 102.028C250.656 107.766 250.453 113.335 249.513 119.017C249.091 121.567 248.047 124.157 247.713 126.032C246.818 125.119 245.905 124.418 245.67 123.188C245.891 122.44 246.565 118.822 246.753 117.817C247.459 114.05 250.668 105.143 249.428 101.562Z" fill="#921F2B"/>
<path d="M227.583 30.0397C229.532 28.4721 232.598 26.7556 234.802 25.5947C237.126 26.8581 244.515 26.8416 244.356 30.8897L243.262 29.5833C242.067 28.1678 239.643 26.4678 238.004 28.2835C236.039 30.4663 235.818 34.7857 235.838 37.5737C232.988 37.5638 227.844 41.4233 225.983 43.2457C224.251 41.5523 223.418 40.6561 221.15 39.7995C219.557 38.2881 219.717 38.0334 217.668 36.7866L216 35.5166C219.801 33.2709 223.681 32.1432 227.583 30.0397Z" fill="#921F2B"/>
<path d="M235.838 37.5735C235.817 34.7855 236.039 30.4662 238.004 28.2834C239.643 26.4677 242.067 28.1676 243.261 29.5831L244.355 30.8895C245.979 37.3089 246.258 45.3952 241.158 50.3495C238.695 47.5913 236.561 44.8363 235.921 41.0693L235.838 37.5735Z" fill="#AB3F33"/>
<path d="M166.655 196.522C174.665 194.44 181.22 196.334 188.5 192.5C192.447 190.421 201.948 182.449 206.397 182C205.953 183.566 206.323 185.887 206.368 187.587C206.55 194.38 199.514 200.357 193.494 202.527C185.978 206.086 177.535 208.937 169.319 210.269C166.142 213.227 163.758 217.027 160.384 219.206L160.114 218.632C162.049 216.747 166.46 211.262 168.449 208.897C168.758 206.864 168.948 206.036 168.73 203.941L168.825 200.847C168.397 199.128 167.899 198.031 166.727 196.737L166.655 196.522Z" fill="#580E26"/>
<path d="M168.825 200.845C171.772 199.696 174.552 199.2 177.517 198.278C180.986 197.199 184.858 195.537 188.095 193.873C188.923 196.782 189.832 200.441 188.788 203.423C188.133 204.001 188.126 204.084 187.329 204.396L187.097 204.751C189.089 204.155 190.412 202.92 192.785 202.157L193.494 202.526C185.978 206.084 177.535 208.935 169.319 210.267C166.142 213.225 163.758 217.025 160.384 219.204L160.114 218.63C162.049 216.746 166.46 211.261 168.449 208.895C168.758 206.862 168.948 206.034 168.73 203.939L168.825 200.845Z" fill="#A70238"/>
<path d="M96.8086 184.515L96.9696 183.432C98.495 182.771 100.516 183.884 102.149 184.529C103.219 186.76 111.982 192.663 114.437 194.115C115.825 194.936 118.094 195.8 119.466 196.737C122.06 197.57 132.032 200.379 132.951 202.165C133.05 205.806 133.38 207.584 134.764 211.019C131.322 210.495 127.897 209.869 124.492 209.14C117.833 207.875 101.095 202.022 95.948 197.073C94.475 195.657 95.105 192.579 95.312 190.541C95.4374 188.575 95.6957 186.299 96.5252 184.494L96.8086 184.515Z" fill="#580E26"/>
<path d="M113.473 203.977C114.409 203.256 113.862 203.474 115.257 203.564L115.597 203.262C116.213 200.859 114.541 199.039 116.25 197.121C117.415 196.472 118.065 196.663 119.466 196.736C122.06 197.568 132.032 200.377 132.951 202.164C133.05 205.805 133.38 207.582 134.764 211.017C131.322 210.493 127.897 209.867 124.492 209.138C122.811 207.656 116.47 205.839 113.473 203.977Z" fill="#A70238"/>
<path d="M102.148 184.527C110.816 186.661 113.475 188.397 121.34 192.442C123.935 193.777 131.211 196.155 134.097 197.026C133.338 199.084 133.161 199.989 132.951 202.164C132.032 200.377 122.06 197.569 119.466 196.736C118.094 195.799 115.825 194.935 114.437 194.113C111.982 192.662 103.219 186.758 102.148 184.527Z" fill="#6F0B51"/>
<path d="M149.361 187C156.803 187.648 164.278 188.886 169.766 194.282L169.838 194.497C171.01 195.792 171.508 196.888 171.936 198.607L171.841 201.701C172.059 203.796 171.869 204.624 171.56 206.657C169.571 209.023 165.16 214.508 163.225 216.392L163.495 216.966C158.916 219.22 155.56 220.411 150.286 219.977C143.308 219.338 137.063 215.332 133.267 209.446L133.682 208.074C131.52 204.824 131.903 201.414 132.336 197.756C133.72 193.144 135.687 191.681 139.297 188.722C142.692 187.454 145.784 187.227 149.361 187Z" fill="#FDB20B"/>
<path d="M133.682 208.075C131.52 204.824 131.903 201.414 132.336 197.756C132.254 204.491 135.949 207.927 142.238 208.949C146.109 209.578 154.304 212.51 157.551 209.401C158.08 210.697 158.204 210.842 158.203 212.201C158.602 213.314 158.578 213.382 159.304 214.371C156.961 216.889 154.155 218.058 151.008 219.288L150.286 219.978C143.308 219.338 137.063 215.332 133.267 209.447L133.682 208.075Z" fill="#DF6833"/>
<path d="M133.681 208.074C135.899 210.961 137.637 213.595 141.058 215.21C145.677 217.389 151.604 217.942 155.843 214.579C156.725 213.887 157.518 213.088 158.203 212.2C158.601 213.313 158.577 213.382 159.304 214.371C156.961 216.889 154.155 218.058 151.008 219.287L150.286 219.977C143.308 219.338 137.063 215.332 133.267 209.446L133.681 208.074Z" fill="#AB3F33"/>
<path d="M169.838 194.496C171.01 195.791 171.508 196.887 171.936 198.606L171.841 201.7C172.059 203.795 171.869 204.623 171.56 206.656C169.571 209.022 165.16 214.506 163.225 216.391L163.495 216.965C158.916 219.219 155.56 220.41 150.286 219.976L151.008 219.286C154.155 218.056 156.961 216.888 159.304 214.37C160.535 213.137 161.129 212.76 162.55 211.776C165.841 209.133 167.369 206.992 165.128 203.089C168.177 200.815 168.77 198.033 169.838 194.496Z" fill="#C24C32"/>
<path d="M169.838 194.496C171.01 195.791 171.508 196.887 171.937 198.606L171.841 201.7C169.752 208.722 168.699 208.099 163.085 212.28L162.55 211.776C165.841 209.133 167.369 206.992 165.128 203.089C168.177 200.815 168.771 198.033 169.838 194.496Z" fill="#DF6833"/>
<path d="M162.55 211.777L163.085 212.281C160.45 215.202 155.542 221.303 151.008 219.287C154.156 218.058 156.961 216.889 159.305 214.371C160.535 213.138 161.129 212.761 162.55 211.777Z" fill="#F1924F"/>
<path d="M157.551 209.401C156.448 207.375 155.021 205.078 156.463 202.891C158.588 199.665 162.738 201.341 165.128 203.09C167.369 206.993 165.841 209.133 162.55 211.777C161.129 212.761 160.535 213.138 159.304 214.37C158.578 213.382 158.602 213.313 158.203 212.2C158.204 210.841 158.08 210.696 157.551 209.401Z" fill="#800327"/>
<path d="M149.238 189.558C150.235 189.263 151.314 189.547 152.035 190.296C152.757 191.045 153.002 192.133 152.67 193.119C152.338 194.104 151.484 194.823 150.456 194.982C149.008 195.207 147.633 194.27 147.311 192.84C146.99 191.41 147.832 189.975 149.238 189.558Z" fill="#F4FBC0"/>
<defs>
<linearGradient id="paint0_linear_71_593" x1="71" y1="169" x2="205.5" y2="33.5" gradientUnits="userSpaceOnUse">
<stop stop-color="#DF6833"/>
<stop offset="0.5" stop-color="#AB3F33"/>
<stop offset="0.743157" stop-color="#DF6833"/>
<stop offset="1" stop-color="#C24C32"/>
</linearGradient>
</defs>
</svg>
