<svg width="300" height="220" viewBox="0 0 300 220" fill="none" xmlns="http://www.w3.org/2000/svg">
<g clip-path="url(#clip0_71_515)">
<path d="M250 110C250 165.781 205.228 211 150 211C94.7715 211 50 165.781 50 110C50 54.2192 94.7715 9 150 9C205.228 9 250 54.2192 250 110ZM60 110C60 160.203 100.294 200.9 150 200.9C199.706 200.9 240 160.203 240 110C240 59.7973 199.706 19.1 150 19.1C100.294 19.1 60 59.7973 60 110Z" fill="url(#paint0_radial_71_515)"/>
<path d="M197.857 18.7808C198.529 18.0953 198.582 17.8999 198.976 17.0757C204.267 6.03407 221.279 -0.770964 232.449 4.95109C236.836 7.19823 239.958 11.8349 241.642 16.4056C240.69 16.7157 240.839 16.6243 239.826 16.5139L239.203 17.032C239.248 17.8789 239.21 17.7333 239.421 18.5527C238.248 20.3874 234.276 19.1998 233.127 21.1278C232.377 22.3882 231.735 23.5032 231.936 24.9956C232.033 27.3746 232.075 29.7904 232.231 32.1602C231.846 30.7181 231.882 30.2297 230.73 29.2891C231.377 32.1793 231.438 32.9748 231.583 35.9252C229.28 40.0818 225.69 44.1442 220.666 44.7221C220.104 44.271 220.279 44.5036 220.038 44.1135C219.063 45.4548 218.407 46.7466 216.49 46.3658L215.216 46.2229C209.815 43.2627 207.272 41.1235 204.466 35.5927C203.91 34.386 203.442 33.2918 202.748 32.1499C202.192 34.5878 205.317 37.6523 204.679 38.3436C202.802 37.0675 202.386 34.9382 201.507 34.9734C197.532 31.4968 197.159 23.6227 197.857 18.7808Z" fill="#42C43D"/>
<path d="M201.941 27.133C204.35 23.6471 209.955 20.9247 213.05 24.9079C213.133 27.7379 213.816 29.3284 217.046 28.7955C219.955 31.7613 221.13 40.1978 220.037 44.1133C219.063 45.4546 218.406 46.7464 216.49 46.3656L215.216 46.2227C209.815 43.2624 207.271 41.1233 204.466 35.5925C203.91 34.3858 203.442 33.2916 202.747 32.1497C202.45 30.5805 202.195 28.7299 201.941 27.133Z" fill="#035A50"/>
<path d="M204.306 31.819C211.534 26.7497 214.287 34.7644 214.917 40.7848C213.911 42.0018 213.29 42.7411 212.143 43.8201C213.367 44.3091 216.153 45.1217 216.687 45.9638L216.49 46.3667L215.216 46.2238C209.815 43.2635 207.271 41.1243 204.466 35.5935L204.306 31.819Z" fill="#051F2A"/>
<path d="M220.154 24.659L219.979 23.8141C218.815 22.5636 218.186 21.7296 219.556 20.0872C221.991 17.1662 223.828 19.1683 225.671 21.198L225.791 20.4658C228.391 22.9302 229.626 25.9648 230.729 29.2898C231.376 32.1801 231.438 32.9756 231.582 35.926C229.28 40.0826 225.689 44.145 220.666 44.7229C220.103 44.2718 220.279 44.5044 220.037 44.1143C221.13 40.1988 219.955 31.7623 217.046 28.7965C219.228 27.5559 219.301 27.0884 220.154 24.659Z" fill="#FDC4C2"/>
<path d="M208.168 15.0838C212.836 13.6251 215.511 13.697 220.241 15.8898C221.619 16.5289 225.012 19.178 225.791 20.4658L225.672 21.198C223.828 19.1683 221.991 17.1662 219.556 20.0872C218.186 21.7296 218.816 22.5636 219.98 23.8141L220.154 24.659C219.301 27.0884 219.229 27.5558 217.046 28.7965C213.816 29.3294 213.133 27.7389 213.05 24.9089C209.956 20.9257 204.35 23.6481 201.942 27.134C199.778 21.9178 204.282 17.6162 208.168 15.0838Z" fill="#FCF1F0"/>
<path d="M213.05 24.9082C213.406 23.0401 214.762 21.6415 216.734 22.1751C218.434 22.6366 218.933 23.7844 220.154 24.6583C219.301 27.0877 219.228 27.5551 217.046 28.7958C213.816 29.3287 213.133 27.7381 213.05 24.9082Z" fill="#FCFCFA"/>
<path d="M208.167 15.0819C208.809 13.7523 209.891 13.1745 211.268 12.7205C221.054 9.49941 228.53 16.7685 231.935 24.9945C232.032 27.3735 232.074 29.7893 232.23 32.159C231.846 30.717 231.882 30.2286 230.729 29.2879C229.626 25.9629 228.391 22.9282 225.791 20.4639C225.012 19.1761 221.619 16.527 220.24 15.8878C215.511 13.6951 212.836 13.6232 208.167 15.0819Z" fill="#0D8D46"/>
<path d="M214.946 7.47858C216.856 7.07347 221.789 6.46121 222.372 9.05144C221.659 10.1322 221.426 9.97206 220.064 10.6509C216.727 11.1862 215.494 11.0486 212.406 9.92048C213.131 9.0468 214.088 8.24673 214.946 7.47858Z" fill="#6DF793"/>
<path d="M241.642 16.406C244.422 21.9233 242.794 32.2415 239.272 37.153C236.656 38.9893 235.084 43.5582 230.531 46.351C227.853 46.6577 224.106 53.0162 219.033 49.2839L219.3 49.0736C219.641 49.1576 221.401 49.5973 221.598 49.5707C224.541 49.1705 229.912 46.8979 230.167 43.651C231.7 40.4948 231.683 39.3595 231.582 35.9256C231.438 32.9753 231.376 32.1798 230.73 29.2895C231.882 30.2302 231.846 30.7185 232.231 32.1606C232.074 29.7909 232.033 27.375 231.935 24.996C231.734 23.5036 232.377 22.3886 233.127 21.1282C234.275 19.2002 238.248 20.3878 239.421 18.5531C239.21 17.7337 239.248 17.8794 239.203 17.0324L239.825 16.5143C240.839 16.6248 240.69 16.7161 241.642 16.406Z" fill="#2CA648"/>
<path d="M202.747 32.1494C203.441 33.2913 203.91 34.3855 204.465 35.5922C207.271 41.123 209.815 43.2622 215.216 46.2224L216.49 46.3653C218.406 46.7461 219.063 45.4543 220.037 44.1131C220.279 44.5031 220.103 44.2705 220.666 44.7216C225.689 44.1438 229.28 40.0813 231.582 35.9247C231.683 39.3586 231.7 40.4939 230.167 43.65C229.912 46.897 224.541 49.1696 221.598 49.5698C221.401 49.5964 219.64 49.1567 219.3 49.0727L219.033 49.283C224.106 53.0153 227.853 46.6568 230.531 46.35C235.084 43.5573 236.656 38.9883 239.272 37.152C238.068 42.0577 232.791 46.9546 233.348 49.82C235.951 51.9209 237.612 55.4996 239.007 58.5108L238.523 58.6382C239.877 61.6378 242.355 67.0505 242.061 70.1522L241.756 70.2475C241.221 69.5789 240.357 66.9856 240.032 65.9991C238.072 60.0052 235.215 55.0062 230.057 51.1473C228.212 52.1539 226.504 53.2252 224.424 53.4351C223.894 53.4886 224.084 53.4358 223.663 53.8564C224.74 54.8317 224.43 54.2655 224.822 55.4971C218.336 52.1927 204.885 41.5524 201.506 34.9729C202.385 34.9377 202.801 37.067 204.679 38.3431C205.316 37.6518 202.192 34.5873 202.747 32.1494Z" fill="#1A733D"/>
<path d="M220.037 44.1144C220.279 44.5045 220.103 44.2718 220.666 44.7229C225.689 44.1451 229.28 40.0827 231.582 35.926C231.683 39.3599 231.7 40.4952 230.167 43.6514C227.992 46.0328 226.287 47.7709 222.781 47.9869C221.068 48.0926 216.542 47.7091 215.14 46.8786L215.216 46.2238L216.49 46.3667C218.406 46.7475 219.063 45.4557 220.037 44.1144Z" fill="#E58790"/>
<path d="M230.531 46.3509C235.084 43.5581 236.656 38.9892 239.272 37.1529C238.068 42.0586 232.791 46.9555 233.348 49.8208L232.675 49.4684C231.855 47.6612 233.878 46.6346 234.805 44.1584L234.485 43.7784C233.234 44.769 231.934 46.5165 230.759 46.9075L230.531 46.3509Z" fill="#035A50"/>
<path d="M230.057 51.1473C235.216 55.0063 238.073 60.0053 240.033 65.9992C240.358 66.9857 241.221 69.579 241.757 70.2476L242.062 70.1523C242.355 67.0506 239.877 61.6379 238.524 58.6383L239.008 58.5109C241.984 63.779 244.101 72.583 245.104 78.5991C245.461 80.7577 245.927 86.9045 246.719 88.4375C245.961 89.229 246.083 88.9002 245.75 89.8405C245.009 90.9355 244.983 94.7249 244.405 96.8703C243.924 93.5973 243.999 89.8065 243.744 86.4446C243.212 79.4682 241.793 72.5885 239.519 65.9719C238.904 64.1708 237.981 60.2082 235.974 59.9276C236.382 60.7217 236.303 60.4118 236.407 61.281C233.276 61.67 227.099 57.468 224.823 55.4971C224.431 54.2656 224.741 54.8318 223.664 53.8564C224.085 53.4359 223.895 53.4887 224.425 53.4352C226.505 53.2253 228.212 52.154 230.057 51.1473Z" fill="#0D8D46"/>
<path d="M104.305 16.2036C103.633 15.5182 103.58 15.3227 103.186 14.4985C97.8946 3.45692 80.8834 -3.34811 69.7129 2.37394C65.3265 4.62108 62.2046 9.25776 60.5204 13.8284C61.4718 14.1385 61.3231 14.0472 62.3365 13.9368L62.959 14.4549C62.9144 15.3018 62.9523 15.1562 62.7412 15.9755C63.9142 17.8103 67.8865 16.6227 69.0346 18.5506C69.7854 19.811 70.4274 20.926 70.2265 22.4185C70.1292 24.7975 70.0874 27.2133 69.9314 29.583C70.3161 28.1409 70.2798 27.6526 71.4324 26.7119C70.7855 29.6022 70.7239 30.3977 70.5794 33.348C72.8819 37.5047 76.4724 41.5671 81.4962 42.1449C82.0585 41.6938 81.8831 41.9265 82.1246 41.5364C83.0986 42.8777 83.7555 44.1695 85.672 43.7887L86.946 43.6458C92.3469 40.6855 94.8904 38.5463 97.6963 33.0155C98.2519 31.8088 98.7203 30.7147 99.4145 29.5727C99.9698 32.0107 96.8454 35.0752 97.4832 35.7664C99.3603 34.4903 99.7765 32.361 100.655 32.3962C104.63 28.9196 105.003 21.0455 104.305 16.2036Z" fill="#42C43D"/>
<path d="M100.221 24.5559C97.8122 21.0699 92.2067 18.3475 89.1122 22.3308C89.0292 25.1607 88.3463 26.7512 85.1164 26.2184C82.2074 29.1842 81.0322 37.6206 82.1248 41.5362C83.0988 42.8775 83.7557 44.1693 85.6722 43.7885L86.9462 43.6456C92.3471 40.6853 94.8906 38.5461 97.6965 33.0153C98.2521 31.8086 98.7205 30.7145 99.4147 29.5725C99.7118 28.0033 99.967 26.1527 100.221 24.5559Z" fill="#035A50"/>
<path d="M97.8561 29.2418C90.6277 24.1725 87.875 32.1872 87.2447 38.2077C88.2507 39.4246 88.8726 40.1639 90.019 41.2429C88.7955 41.732 86.0092 42.5445 85.4754 43.3867L85.6722 43.7895L86.9462 43.6466C92.347 40.6864 94.8906 38.5472 97.6965 33.0164L97.8561 29.2418Z" fill="#051F2A"/>
<path d="M82.0085 22.0819L82.1828 21.237C83.3469 19.9865 83.9765 19.1525 82.6064 17.51C80.1713 14.589 78.3344 16.5912 76.4909 18.6209L76.3714 17.8886C73.771 20.353 72.5364 23.3877 71.4326 26.7127C70.7857 29.603 70.7242 30.3985 70.5797 33.3488C72.8822 37.5054 76.4726 41.5679 81.4965 42.1457C82.0587 41.6946 81.8834 41.9272 82.1249 41.5372C81.0322 37.6216 82.2075 29.1852 85.1164 26.2194C82.9336 24.9787 82.8614 24.5113 82.0085 22.0819Z" fill="#FDC4C2"/>
<path d="M93.9942 12.5067C89.3257 11.048 86.6509 11.1199 81.9214 13.3126C80.5428 13.9518 77.1498 16.6009 76.3709 17.8886L76.4904 18.6209C78.334 16.5912 80.1708 14.589 82.6059 17.51C83.976 19.1525 83.3465 19.9865 82.1823 21.237L82.008 22.0819C82.8609 24.5112 82.9332 24.9787 85.1159 26.2194C88.3459 26.7522 89.0288 25.1617 89.1118 22.3318C92.2063 18.3485 97.8118 21.0709 100.22 24.5569C102.384 19.3406 97.8803 15.0391 93.9942 12.5067Z" fill="#FCF1F0"/>
<path d="M89.1123 22.331C88.7565 20.4629 87.3996 19.0644 85.4276 19.5979C83.7277 20.0594 83.2294 21.2072 82.0085 22.0811C82.8614 24.5105 82.9337 24.978 85.1164 26.2186C88.3464 26.7515 89.0293 25.161 89.1123 22.331Z" fill="#FCFCFA"/>
<path d="M93.9948 12.5048C93.3526 11.1751 92.271 10.5973 90.8941 10.1433C81.1081 6.92226 73.6322 14.1913 70.2269 22.4173C70.1297 24.7963 70.0878 27.2121 69.9318 29.5819C70.3165 28.1398 70.2802 27.6515 71.4328 26.7108C72.5366 23.3857 73.7711 20.3511 76.3715 17.8867C77.1504 16.599 80.5434 13.9499 81.922 13.3107C86.6516 11.1179 89.3263 11.0461 93.9948 12.5048Z" fill="#0D8D46"/>
<path d="M87.2156 4.90144C85.3062 4.49632 80.3732 3.88406 79.79 6.47429C80.503 7.55507 80.7361 7.39491 82.0985 8.0737C85.4347 8.60905 86.6681 8.47146 89.7566 7.34333C89.0314 6.46965 88.0738 5.66958 87.2156 4.90144Z" fill="#6DF793"/>
<path d="M60.5206 13.8289C57.7397 19.3461 59.3679 29.6644 62.8901 34.5758C65.5059 36.4121 67.0776 40.981 71.6313 43.7738C74.3094 44.0806 78.0561 50.439 83.1292 46.7068L82.8619 46.4965C82.5216 46.5804 80.7611 47.0202 80.5644 46.9935C77.6213 46.5934 72.2503 44.3208 71.9948 41.0738C70.4618 37.9176 70.4788 36.7824 70.5796 33.3485C70.7241 30.3981 70.7857 29.6026 71.4326 26.7123C70.28 27.653 70.3163 28.1414 69.9316 29.5834C70.0876 27.2137 70.1294 24.7979 70.2267 22.4189C70.4276 20.9265 69.7856 19.8115 69.0348 18.5511C67.8867 16.6231 63.9144 17.8107 62.7413 15.9759C62.9525 15.1566 62.9146 15.3022 62.9592 14.4553L62.3367 13.9372C61.3233 14.0476 61.472 14.139 60.5206 13.8289Z" fill="#2CA648"/>
<path d="M99.4148 29.5723C98.7206 30.7142 98.2522 31.8083 97.6966 33.015C94.8908 38.5459 92.3472 40.685 86.9463 43.6453L85.6724 43.7882C83.7559 44.169 83.099 42.8772 82.1249 41.5359C81.8835 41.926 82.0588 41.6934 81.4966 42.1444C76.4727 41.5666 72.8823 37.5042 70.5798 33.3475C70.4789 36.7815 70.462 37.9167 71.995 41.0729C72.2504 44.3199 77.6215 46.5925 80.5646 46.9926C80.7612 47.0192 82.5218 46.5795 82.862 46.4956L83.1293 46.7059C78.0563 50.4381 74.3095 44.0797 71.6315 43.7729C67.0778 40.9801 65.506 36.4112 62.8903 34.5749C64.0939 39.4806 69.3708 44.3774 68.8136 47.2428C66.2115 49.3437 64.5498 52.9225 63.1549 55.9336L63.639 56.0611C62.2854 59.0607 59.8074 64.4734 60.1008 67.5751L60.4056 67.6704C60.9414 67.0018 61.8049 64.4085 62.13 63.4219C64.09 57.4281 66.9468 52.4291 72.1054 48.5701C73.9505 49.5768 75.6577 50.6481 77.7378 50.858C78.2678 50.9114 78.0777 50.8586 78.4989 51.2792C77.422 52.2546 77.7319 51.6884 77.3399 52.9199C83.8263 49.6155 97.2771 38.9752 100.656 32.3958C99.7769 32.3605 99.3606 34.4899 97.4835 35.7659C96.8458 35.0747 99.9702 32.0102 99.4148 29.5723Z" fill="#1A733D"/>
<path d="M82.1249 41.5372C81.8835 41.9273 82.0588 41.6947 81.4966 42.1458C76.4727 41.5679 72.8823 37.5055 70.5798 33.3489C70.4789 36.7828 70.462 37.9181 71.995 41.0742C74.1702 43.4556 75.875 45.1938 79.3806 45.4098C81.0938 45.5154 85.6199 45.132 87.0221 44.3015L86.9463 43.6466L85.6724 43.7895C83.7558 44.1703 83.099 42.8785 82.1249 41.5372Z" fill="#E58790"/>
<path d="M71.6315 43.7738C67.0778 40.981 65.5061 36.4121 62.8903 34.5758C64.0939 39.4814 69.3708 44.3783 68.8137 47.2437L69.487 46.8913C70.3067 45.0841 68.2841 44.0575 67.3569 41.5813L67.6771 41.2013C68.9277 42.1918 70.2281 43.9393 71.4028 44.3304L71.6315 43.7738Z" fill="#035A50"/>
<path d="M72.1049 48.5702C66.9463 52.4291 64.0895 57.4281 62.1295 63.422C61.8044 64.4086 60.9409 67.0018 60.4052 67.6705L60.1004 67.5752C59.807 64.4735 62.285 59.0608 63.6385 56.0611L63.1544 55.9337C60.1777 61.2018 58.0606 70.0058 57.0577 76.0219C56.7011 78.1806 56.2352 84.3273 55.4427 85.8603C56.2013 86.6518 56.0787 86.3231 56.4124 87.2634C57.1536 88.3583 57.1788 92.1477 57.7569 94.2932C58.2378 91.0202 58.1628 87.2293 58.418 83.8675C58.9498 76.8911 60.3693 70.0114 62.6428 63.3948C63.2584 61.5937 64.1811 57.6311 66.1885 57.3505C65.7805 58.1445 65.8588 57.8346 65.7547 58.7039C68.8858 59.0929 75.0632 54.8909 77.3394 52.92C77.7314 51.6884 77.4216 52.2547 78.4984 51.2793C78.0772 50.8587 78.2673 50.9115 77.7374 50.8581C75.6572 50.6481 73.95 49.5769 72.1049 48.5702Z" fill="#0D8D46"/>
<path d="M227.729 175.143C229.169 175.651 230.427 175.982 231.134 177.199L231.648 178.203C231.925 179.367 232.279 180.116 231.797 181.165C230.825 181.932 229.693 182.08 228.477 182.373C226.541 182.285 225.534 181.967 224.035 182.95C223.787 184.114 224.181 184.76 224.879 185.733C225.254 187.934 224.778 188.062 223.331 189.756C220.247 192.367 216.999 194.446 212.741 194.247C210.18 193.15 209.791 193.529 207.294 194.736C206.6 194.721 193.574 201.648 190.407 202.505C191.256 201.155 202.509 196.12 205.461 193.79C211.764 188.82 216.604 184.495 221.798 178.354C222.861 177.568 224.382 176.963 225.614 176.405L227.729 175.143Z" fill="#145134"/>
<path d="M251.785 103.702C253.061 101.988 258.12 99.929 260.303 100.132C261.93 104.918 262.36 109.841 261.968 114.891C262.281 118.236 260.654 123.838 261.849 125.296C263.928 125.295 266.294 120.271 268.788 118.825C271.855 118.663 271.723 127.85 271.41 130.172C270.675 135.634 265.906 147.708 262.328 151.602C260.335 154.806 257.254 158.884 254.425 161.397C252.163 165.095 243.146 170.352 239.097 172.176C237.934 172.7 233.86 174.507 233.139 175.013C231.847 175.267 231.661 175.056 230.992 175.838L231.135 177.199C230.428 175.981 229.17 175.651 227.729 175.143L225.614 176.405C224.382 176.963 222.861 177.568 221.798 178.354C222.181 175.789 221.905 168.305 221.885 165.264L221.779 164.332C222.964 150.027 226.213 137.391 233.457 124.887C237.113 126.856 237.961 125.428 239.923 122.259L240.095 120.945C240.354 118.738 239.825 114.985 240.398 113.794C240.591 112.815 240.518 113.158 241.153 112.264C244.708 109.049 247.653 106.185 251.785 103.702Z" fill="#0D7E3F"/>
<path d="M260.302 100.131C261.93 104.917 262.359 109.84 261.967 114.89C262.28 118.235 260.653 123.837 261.849 125.294C263.928 125.294 266.294 120.27 268.787 118.824C271.854 118.662 271.722 127.849 271.41 130.171C270.674 135.633 265.905 147.707 262.328 151.601C260.334 154.804 257.254 158.883 254.424 161.396C252.162 165.094 243.146 170.351 239.096 172.175C237.934 172.698 233.859 174.506 233.138 175.012C231.846 175.265 231.66 175.055 230.991 175.837L231.134 177.198C230.427 175.98 229.169 175.649 227.728 175.142C239.82 168.374 251.581 152.294 255.968 139.259C257.948 133.373 259.18 125.324 259.992 119.118C259.142 115.594 261.329 111.014 259.275 105.531L259.487 103.589C260.028 102.665 260.046 101.276 260.302 100.131Z" fill="#145134"/>
<path d="M254.425 161.398C253.869 159.236 259.937 152.722 262.328 151.603C260.334 154.806 257.254 158.884 254.425 161.398Z" fill="#002411"/>
<path d="M259.276 105.531C261.329 111.015 259.142 115.595 259.992 119.118C259.181 125.324 257.949 133.373 255.968 139.259C251.581 152.295 239.821 168.375 227.729 175.142L225.613 176.404C224.701 176.614 224.379 176.616 223.459 176.677C223.907 175.442 231.08 166.432 232.224 165.317C237.949 157.984 245.041 144.071 248.687 135.469L250.247 135.69C255.677 122.963 256.668 118.785 259.276 105.531Z" fill="#03A237"/>
<path d="M248.688 135.47L250.248 135.691C248.255 139.891 235.753 164.266 232.52 165.259C232.425 165.288 232.325 165.298 232.224 165.318C237.95 157.985 245.042 144.072 248.688 135.47Z" fill="#6DF793"/>
<path d="M221.778 164.332L221.477 164.31C221.171 155.463 224.844 130.016 231.388 124.663C232.7 124.332 232.029 124.338 233.457 124.887C226.212 137.391 222.964 150.026 221.778 164.332Z" fill="#42C43D"/>
<path d="M231.134 177.198L230.991 175.836C231.66 175.054 231.846 175.265 233.138 175.012L235.338 175.523C237.16 175.995 238.977 176.489 240.787 177.005C247.696 178.553 262.691 182.669 268.325 186.033C270.413 187.111 271.589 187.976 273.266 189.649C270.055 189.852 269.03 189.918 265.824 189.054C262.718 188.803 258.519 188.78 255.562 189.725L255.238 190.428C256.771 198.974 258.541 198.079 263.019 204.823C261.698 204.217 257.199 201.071 255.716 200.072C254.502 201.901 253.988 201.57 251.77 201.774C253.633 202.878 260.307 206.299 261.458 207.161C260.003 206.775 256.507 205.162 254.774 204.552C250.319 202.982 246.978 202.687 242.356 202.15C240.919 202.165 239.692 202.134 238.259 202.062C231.218 202.433 226.934 203.695 222.875 209.906C221.894 211.993 221.814 212.696 221.454 214.972L221.119 215.497C218.292 214.219 212.354 204.225 210.518 201.129C209.296 199.189 208.185 196.845 207.293 194.734C209.791 193.528 210.18 193.148 212.741 194.246C216.999 194.445 220.247 192.365 223.331 189.754C224.778 188.061 225.254 187.932 224.879 185.731C224.181 184.759 223.787 184.112 224.035 182.948C225.534 181.965 226.541 182.283 228.477 182.371C229.693 182.078 230.825 181.931 231.797 181.164C232.279 180.114 231.925 179.365 231.648 178.202L231.134 177.198Z" fill="#0D8D46"/>
<path d="M223.331 189.755C226.935 189.227 241.203 198.174 242.857 201.491L242.356 202.151C240.919 202.166 239.692 202.135 238.259 202.063C231.218 202.433 226.934 203.695 222.875 209.907C221.894 211.994 221.814 212.697 221.454 214.973L221.119 215.498C218.292 214.22 212.355 204.226 210.518 201.13C209.296 199.19 208.185 196.846 207.294 194.735C209.791 193.528 210.18 193.149 212.741 194.247C216.999 194.445 220.247 192.366 223.331 189.755Z" fill="#0D8D46"/>
<path d="M207.294 194.734C209.791 193.528 210.181 193.149 212.741 194.246C213.565 196.099 214.473 197.944 214.986 199.9C217.387 204.631 219.978 209.888 221.455 214.973L221.119 215.498C218.292 214.219 212.355 204.226 210.518 201.129C209.296 199.189 208.186 196.845 207.294 194.734Z" fill="#42C43D"/>
<path d="M207.294 194.734C209.791 193.528 210.181 193.149 212.741 194.246C213.565 196.099 214.473 197.944 214.986 199.9C214.21 198.807 213.138 197.285 211.855 196.927L211.164 197.332C210.372 198.737 210.699 199.547 210.518 201.129C209.296 199.189 208.186 196.845 207.294 194.734Z" fill="#2CA648"/>
<path d="M222.876 209.907C223.531 202.925 232.638 199.526 238.259 202.064C231.218 202.434 226.935 203.696 222.876 209.907Z" fill="#145134"/>
<path d="M231.134 177.197L230.992 175.836C231.661 175.054 231.846 175.265 233.138 175.011L235.338 175.523C237.16 175.995 238.978 176.489 240.788 177.005C247.697 178.553 262.692 182.668 268.325 186.033C270.414 187.111 271.589 187.976 273.266 189.649C270.056 189.852 269.031 189.918 265.824 189.054C262.718 188.803 258.519 188.78 255.562 189.725L255.238 190.428C255.007 189.928 254.264 188.356 253.918 188.057C249.364 184.167 233.897 182.89 228.477 182.371C229.693 182.078 230.826 181.93 231.797 181.163C232.28 180.114 231.925 179.365 231.648 178.201L231.134 177.197Z" fill="#0D7E3F"/>
<path d="M247.593 182.825C245.571 181.69 241.188 179.599 240.28 177.725L240.788 177.007C247.697 178.555 262.692 182.67 268.325 186.035C270.414 187.113 271.59 187.978 273.266 189.651C270.056 189.854 269.031 189.92 265.825 189.056C264.793 188.528 262.755 187.918 261.587 187.529C257.088 185.998 252.102 184.181 247.593 182.825Z" fill="#42C43D"/>
<path d="M261.587 187.53C263.469 184.666 265.322 185.995 268.325 186.036C270.414 187.114 271.59 187.979 273.266 189.652C270.056 189.855 269.031 189.921 265.824 189.057C264.793 188.529 262.755 187.919 261.587 187.53Z" fill="#1CE365"/>
<path d="M231.133 177.198L230.991 175.837C231.66 175.055 231.845 175.266 233.137 175.012L235.337 175.524C237.159 175.996 238.977 176.49 240.787 177.006L240.279 177.724C241.187 179.598 245.57 181.689 247.592 182.824C244.589 182.956 235.773 179.746 232.726 178.554L231.647 178.202L231.133 177.198Z" fill="#2CA648"/>
<path d="M231.133 177.198L230.991 175.837C231.66 175.055 231.845 175.266 233.137 175.012L235.337 175.524C234.221 176.077 232.232 177.04 232.726 178.554L231.647 178.202L231.133 177.198Z" fill="#0D8D46"/>
<path d="M224.879 185.732L225.111 185.701C229.792 188.96 245.149 201.205 249.73 200.785L251.77 201.774C253.633 202.879 260.308 206.3 261.459 207.162C260.004 206.776 256.508 205.163 254.775 204.553C250.32 202.983 246.979 202.688 242.357 202.151L242.857 201.491C241.203 198.174 226.936 189.227 223.331 189.755C224.778 188.062 225.254 187.933 224.879 185.732Z" fill="#03773E"/>
<path d="M225.111 185.701C224.806 184.175 224.517 184.197 225.131 183.278C227.204 182.322 231.204 184.98 232.595 186.436C232.352 188.749 239.633 194.939 241.778 196.267C243.566 197.337 245.29 198.426 247.174 199.319L249.73 200.785C245.149 201.205 229.792 188.96 225.111 185.701Z" fill="#2CA648"/>
<path d="M241.778 196.268C239.633 194.94 232.352 188.75 232.595 186.437C234.968 187.713 241.938 190.971 243.464 192.384C243.117 193.005 242.753 193.613 242.465 194.258C242.477 195.149 242.197 195.464 241.778 196.268Z" fill="#42C43D"/>
<path d="M243.463 192.385C245.893 193.902 248.427 195.434 250.794 197.035C249.76 198.387 249.553 198.146 247.901 197.755L247.174 199.32C245.29 198.428 243.566 197.339 241.778 196.269C242.197 195.465 242.477 195.15 242.465 194.259C242.753 193.614 243.117 193.005 243.463 192.385Z" fill="#6DF793"/>
<path d="M242.465 194.259C244.434 195.886 245.648 196.507 247.901 197.756L247.174 199.321C245.29 198.428 243.566 197.339 241.778 196.269C242.197 195.465 242.477 195.15 242.465 194.259Z" fill="#42C43D"/>
<path d="M250.794 197.035C252.499 197.903 254.114 199.02 255.716 200.073C254.502 201.903 253.989 201.571 251.77 201.775L249.73 200.786L247.174 199.32L247.901 197.755C249.553 198.146 249.76 198.387 250.794 197.035Z" fill="#1CE365"/>
<path d="M255.716 200.072C257.199 201.071 261.698 204.217 263.019 204.823C264.304 206.011 265.065 206.679 266.176 208.056C265.146 207.943 262.199 207.718 261.458 207.162C260.307 206.299 253.633 202.878 251.77 201.774C253.988 201.57 254.502 201.902 255.716 200.072Z" fill="#1CE365" fill-opacity="0.988235"/>
<path d="M72.1332 175.143C70.6926 175.651 69.4346 175.982 68.7278 177.199L68.2137 178.203C67.9369 179.367 67.5825 180.116 68.0646 181.165C69.0365 181.932 70.1691 182.08 71.3851 182.373C73.3206 182.285 74.3281 181.967 75.8269 182.95C76.0751 184.114 75.6803 184.76 74.9829 185.733C74.6082 187.934 75.084 188.062 76.5308 189.756C79.6147 192.367 82.8626 194.446 87.1206 194.247C89.6814 193.15 90.0708 193.529 92.5682 194.736C93.2621 194.721 106.288 201.648 109.455 202.505C108.606 201.155 97.3531 196.12 94.4008 193.79C88.0982 188.82 83.2574 184.495 78.064 178.354C77.0011 177.568 75.4802 176.963 74.2483 176.405L72.1332 175.143Z" fill="#145134"/>
<path d="M48.0768 103.702C46.8005 101.988 41.7421 99.929 39.5588 100.132C37.9314 104.918 37.5015 109.841 37.8943 114.891C37.5812 118.236 39.2077 123.838 38.0125 125.296C35.9334 125.295 33.5674 120.271 31.0743 118.825C28.007 118.663 28.1391 127.85 28.4514 130.172C29.1868 135.634 33.9562 147.708 37.5333 151.602C39.5272 154.806 42.6073 158.884 45.4368 161.397C47.6992 165.095 56.7154 170.352 60.7648 172.176C61.9274 172.7 66.0018 174.507 66.7232 175.013C68.0153 175.267 68.2005 175.056 68.8697 175.838L68.7271 177.199C69.434 175.981 70.6919 175.651 72.1325 175.143L74.2476 176.405C75.4796 176.963 77.0004 177.568 78.0634 178.354C77.6807 175.789 77.9566 168.305 77.9767 165.264L78.0829 164.332C76.8978 150.027 73.6491 137.391 66.4045 124.887C62.7486 126.856 61.9011 125.428 59.9387 122.259L59.7666 120.945C59.5081 118.738 60.0367 114.985 59.4634 113.794C59.2706 112.815 59.3439 113.158 58.709 112.264C55.1539 109.049 52.2083 106.185 48.0768 103.702Z" fill="#0D7E3F"/>
<path d="M39.5596 100.131C37.9322 104.917 37.5023 109.84 37.8951 114.89C37.582 118.235 39.2085 123.837 38.0133 125.294C35.9342 125.294 33.5682 120.27 31.0751 118.824C28.0078 118.662 28.1399 127.849 28.4522 130.171C29.1876 135.633 33.957 147.707 37.5341 151.601C39.528 154.804 42.6081 158.883 45.4376 161.396C47.7 165.094 56.7162 170.351 60.7656 172.175C61.9282 172.698 66.0026 174.506 66.724 175.012C68.0161 175.265 68.2014 175.055 68.8706 175.837L68.7279 177.198C69.4348 175.98 70.6928 175.649 72.1333 175.142C60.0414 168.374 48.281 152.294 43.8937 139.259C41.9133 133.373 40.6814 125.324 39.8702 119.118C40.7199 115.594 38.5332 111.014 40.5864 105.531L40.375 103.589C39.8341 102.665 39.8162 101.276 39.5596 100.131Z" fill="#145134"/>
<path d="M45.4371 161.398C45.9932 159.236 39.9247 152.722 37.5336 151.603C39.5275 154.806 42.6076 158.884 45.4371 161.398Z" fill="#002411"/>
<path d="M40.5863 105.531C38.5331 111.015 40.7198 115.595 39.87 119.118C40.6813 125.324 41.9132 133.373 43.8936 139.259C48.2808 152.295 60.0412 168.375 72.1332 175.142L74.2483 176.404C75.1612 176.614 75.4832 176.616 76.403 176.677C75.955 175.442 68.7814 166.432 67.6382 165.317C61.9127 157.984 54.8205 144.071 51.1747 135.469L49.6143 135.69C44.1846 122.963 43.1942 118.785 40.5863 105.531Z" fill="#03A237"/>
<path d="M51.1743 135.47L49.6138 135.691C51.6069 139.891 64.1093 164.266 67.3416 165.259C67.4366 165.288 67.5368 165.298 67.6377 165.318C61.9122 157.985 54.82 144.072 51.1743 135.47Z" fill="#6DF793"/>
<path d="M78.0834 164.332L78.3845 164.31C78.6905 155.463 75.0175 130.016 68.474 124.663C67.1622 124.332 67.8331 124.338 66.4049 124.887C73.6495 137.391 76.8983 150.026 78.0834 164.332Z" fill="#42C43D"/>
<path d="M68.7279 177.198L68.8705 175.836C68.2013 175.054 68.0161 175.265 66.724 175.012L64.5239 175.523C62.702 175.995 60.8845 176.489 59.0743 177.005C52.1654 178.553 37.1705 182.669 31.5372 186.033C29.4484 187.111 28.2727 187.976 26.5961 189.649C29.8065 189.852 30.8313 189.918 34.0378 189.054C37.1437 188.803 41.3429 188.78 44.3001 189.725L44.6241 190.428C43.0907 198.974 41.3204 198.079 36.8431 204.823C38.1634 204.217 42.6625 201.071 44.1462 200.072C45.3598 201.901 45.8734 201.57 48.0919 201.774C46.2292 202.878 39.5544 206.299 38.4035 207.161C39.8586 206.775 43.3543 205.162 45.0874 204.552C49.5424 202.982 52.8835 202.687 57.5058 202.15C58.9427 202.165 60.1695 202.134 61.6029 202.062C68.6442 202.433 72.9276 203.695 76.9865 209.906C77.9677 211.993 78.0481 212.696 78.4076 214.972L78.7429 215.497C81.5698 214.219 87.5073 204.225 89.3439 201.129C90.5659 199.189 91.6766 196.845 92.5683 194.734C90.0709 193.528 89.6816 193.148 87.1208 194.246C82.8628 194.445 79.6149 192.365 76.5309 189.754C75.0841 188.061 74.6083 187.932 74.983 185.731C75.6805 184.759 76.0753 184.112 75.827 182.948C74.3282 181.965 73.3208 182.283 71.3853 182.371C70.1692 182.078 69.0366 181.931 68.0647 181.164C67.5826 180.114 67.937 179.365 68.2138 178.202L68.7279 177.198Z" fill="#0D8D46"/>
<path d="M76.5308 189.755C72.9263 189.227 58.6592 198.174 57.0051 201.491L57.5057 202.151C58.9426 202.166 60.1694 202.135 61.6028 202.063C68.6441 202.433 72.9275 203.695 76.9864 209.907C77.9676 211.994 78.048 212.697 78.4075 214.973L78.7428 215.498C81.5697 214.22 87.5073 204.226 89.3438 201.13C90.5659 199.19 91.6765 196.846 92.5682 194.735C90.0708 193.528 89.6815 193.149 87.1207 194.247C82.8627 194.445 79.6148 192.366 76.5308 189.755Z" fill="#0D8D46"/>
<path d="M92.568 194.734C90.0706 193.528 89.6812 193.149 87.1204 194.246C86.2965 196.099 85.389 197.944 84.876 199.9C82.4747 204.631 79.8837 209.888 78.4072 214.973L78.7425 215.498C81.5694 214.219 87.507 204.226 89.3435 201.129C90.5656 199.189 91.6762 196.845 92.568 194.734Z" fill="#42C43D"/>
<path d="M92.568 194.734C90.0706 193.528 89.6812 193.149 87.1204 194.246C86.2965 196.099 85.389 197.944 84.876 199.9C85.6513 198.807 86.7236 197.285 88.0063 196.927L88.6974 197.332C89.4895 198.737 89.1629 199.547 89.3435 201.129C90.5656 199.189 91.6762 196.845 92.568 194.734Z" fill="#2CA648"/>
<path d="M76.9861 209.907C76.331 202.925 67.2236 199.526 61.6024 202.064C68.6437 202.434 72.9271 203.696 76.9861 209.907Z" fill="#145134"/>
<path d="M68.7275 177.197L68.8702 175.836C68.201 175.054 68.0157 175.265 66.7236 175.011L64.5236 175.523C62.7017 175.995 60.8841 176.489 59.074 177.005C52.1651 178.553 37.1702 182.668 31.5369 186.033C29.4481 187.111 28.2724 187.976 26.5958 189.649C29.8061 189.852 30.831 189.918 34.0375 189.054C37.1434 188.803 41.3425 188.78 44.2998 189.725L44.6238 190.428C44.8544 189.928 45.5976 188.356 45.9443 188.057C50.4978 184.167 65.9646 182.89 71.3849 182.371C70.1689 182.078 69.0363 181.93 68.0644 181.163C67.5823 180.114 67.9367 179.365 68.2135 178.201L68.7275 177.197Z" fill="#0D7E3F"/>
<path d="M52.2688 182.825C54.2909 181.69 58.6736 179.599 59.5822 177.725L59.0738 177.007C52.1649 178.555 37.17 182.67 31.5367 186.035C29.4478 187.113 28.2722 187.978 26.5956 189.651C29.8059 189.854 30.8308 189.92 34.0373 189.056C35.0684 188.528 37.1068 187.918 38.2743 187.529C42.7735 185.998 47.7597 184.181 52.2688 182.825Z" fill="#42C43D"/>
<path d="M38.2744 187.53C36.3927 184.666 34.5399 185.995 31.5368 186.036C29.4479 187.114 28.2723 187.979 26.5956 189.652C29.806 189.855 30.8308 189.921 34.0374 189.057C35.0684 188.529 37.1069 187.919 38.2744 187.53Z" fill="#1CE365"/>
<path d="M68.7284 177.198L68.871 175.837C68.2019 175.055 68.0166 175.266 66.7245 175.012L64.5245 175.524C62.7026 175.996 60.885 176.49 59.0749 177.006L59.5833 177.724C58.6747 179.598 54.292 181.689 52.2699 182.824C55.2732 182.956 64.0892 179.746 67.1358 178.554L68.2143 178.202L68.7284 177.198Z" fill="#2CA648"/>
<path d="M68.7284 177.198L68.871 175.837C68.2019 175.055 68.0166 175.266 66.7245 175.012L64.5245 175.524C65.6413 176.077 67.6297 177.04 67.1358 178.554L68.2143 178.202L68.7284 177.198Z" fill="#0D8D46"/>
<path d="M74.9825 185.732L74.7509 185.701C70.0694 188.96 54.7129 201.205 50.1317 200.785L48.0914 201.774C46.2286 202.879 39.5539 206.3 38.4029 207.162C39.858 206.776 43.3538 205.163 45.0869 204.553C49.5418 202.983 52.8829 202.688 57.5052 202.151L57.0047 201.491C58.6587 198.174 72.9259 189.227 76.5304 189.755C75.0835 188.062 74.6077 187.933 74.9825 185.732Z" fill="#03773E"/>
<path d="M74.7512 185.701C75.0559 184.175 75.3448 184.197 74.7307 183.278C72.6581 182.322 68.6575 184.98 67.2672 186.436C67.5101 188.749 60.2283 194.939 58.0842 196.267C56.2961 197.337 54.5714 198.426 52.6882 199.319L50.132 200.785C54.7132 201.205 70.0698 188.96 74.7512 185.701Z" fill="#2CA648"/>
<path d="M58.0842 196.268C60.2284 194.94 67.5101 188.75 67.2672 186.437C64.8938 187.713 57.9242 190.971 56.3983 192.384C56.745 193.005 57.1087 193.613 57.3972 194.258C57.3845 195.149 57.6646 195.464 58.0842 196.268Z" fill="#42C43D"/>
<path d="M56.3983 192.385C53.9685 193.902 51.4353 195.434 49.0682 197.035C50.1017 198.387 50.3088 198.146 51.9608 197.755L52.6883 199.32C54.5715 198.428 56.2962 197.339 58.0843 196.269C57.6647 195.465 57.3846 195.15 57.3973 194.259C57.1087 193.614 56.7451 193.005 56.3983 192.385Z" fill="#6DF793"/>
<path d="M57.3972 194.259C55.428 195.886 54.2135 196.507 51.9608 197.756L52.6883 199.321C54.5715 198.428 56.2962 197.339 58.0842 196.269C57.6646 195.465 57.3846 195.15 57.3972 194.259Z" fill="#42C43D"/>
<path d="M49.068 197.035C47.3633 197.903 45.7474 199.02 44.1458 200.073C45.3594 201.903 45.8731 201.571 48.0916 201.775L50.1319 200.786L52.6881 199.32L51.9606 197.755C50.3086 198.146 50.1015 198.387 49.068 197.035Z" fill="#1CE365"/>
<path d="M44.1462 200.072C42.6625 201.071 38.1634 204.217 36.8431 204.823C35.5577 206.011 34.7969 206.679 33.6857 208.056C34.7154 207.943 37.663 207.718 38.4035 207.162C39.5545 206.299 46.2292 202.878 48.0919 201.774C45.8734 201.57 45.3598 201.902 44.1462 200.072Z" fill="#1CE365" fill-opacity="0.988235"/>
</g>
<defs>
<radialGradient id="paint0_radial_71_515" cx="0" cy="0" r="1" gradientUnits="userSpaceOnUse" gradientTransform="translate(147.579 5.49999) rotate(90) scale(189.5 187.624)">
<stop stop-color="#01E054"/>
<stop offset="1" stop-color="#0D7E3F"/>
</radialGradient>
<clipPath id="clip0_71_515">
<rect width="299.922" height="220" fill="white"/>
</clipPath>
</defs>
</svg>
