<svg width="300" height="220" viewBox="0 0 300 220" fill="none" xmlns="http://www.w3.org/2000/svg">
<path d="M42.2418 132.068C41.6082 131.264 41.0742 130.753 40.8471 129.764L41.2195 129.259C41.6835 129.367 42.7781 129.647 43.1991 129.685C48.7245 130.852 53.3541 130.117 58.4701 128.042L58.4561 129.27C59.5206 134.689 60.3346 138.321 61.9601 143.638C63.7499 148.145 65.0186 151.248 67.439 155.517C68.5912 157.383 69.8436 159.517 71.137 161.258C69.7019 162.278 68.2015 163.42 66.6428 164.226L65.9318 164.479C66.7087 164.646 66.8914 164.669 67.6132 164.977L67.4519 165.192C66.9485 165.872 66.7771 166.006 66.6667 166.851C63.703 167.535 62.2925 167.822 59.2287 167.925C58.0817 167.94 57.5034 168.037 56.4428 167.664C55.6637 166.591 55.9059 166.586 55.7395 165.046L54.6641 165.388L54.2166 165.087C52.501 159.456 51.7752 158.223 48.9801 153.048C47.2207 149.949 39.7577 136.052 37.9841 134.4L37.172 133.431L37.5314 133.097C40.3828 133.773 39.4032 133.925 41.3021 135.118C40.872 134.287 40.6631 133.626 39.8841 133.151L39.4845 131.937L42.2418 132.068Z" fill="#2CA648"/>
<path d="M61.9599 143.638C63.7496 148.145 65.0184 151.248 67.4388 155.518C68.591 157.384 69.8434 159.518 71.1367 161.259C69.7017 162.279 68.2013 163.421 66.6426 164.227L65.9316 164.48L65.1691 164.599C64.3335 164.657 64.1266 164.678 63.2674 164.6L65.6821 163.774C64.2703 158.7 61.4224 148.594 61.9599 143.638Z" fill="#1A733D"/>
<path d="M66.6427 164.226C67.2716 161.077 67.3418 158.745 67.4388 155.517C68.591 157.383 69.8435 159.517 71.1368 161.258C69.7017 162.278 68.2014 163.42 66.6427 164.226Z" fill="#145134"/>
<path d="M37.984 134.4L37.1719 133.431L37.5313 133.097C40.3827 133.773 39.4031 133.925 41.302 135.118C43.8605 139.324 47.4995 146.704 49.6607 151.355C49.4519 151.891 49.2221 152.538 48.98 153.047C47.2206 149.949 39.7576 136.052 37.984 134.4Z" fill="#6B97DE"/>
<path d="M42.2413 132.069C41.6077 131.265 41.0737 130.754 40.8466 129.764L41.219 129.26C41.683 129.368 42.7775 129.648 43.1986 129.686C48.7239 130.852 53.3536 130.118 58.4695 128.042L58.4556 129.271C53.7043 132.361 47.746 133.068 42.2413 132.069Z" fill="#D1D03F"/>
<path d="M55.6252 163.835C58.8832 165.521 61.6473 165.538 65.1693 164.598L65.9318 164.479C66.7087 164.646 66.8914 164.67 67.6132 164.977L67.4518 165.192C66.9485 165.872 66.7771 166.006 66.6666 166.851C63.703 167.535 62.2925 167.822 59.2287 167.925C58.0816 167.94 57.5034 168.037 56.4428 167.664C55.6636 166.591 55.9059 166.586 55.7395 165.046L55.6252 163.835Z" fill="#D1D03F"/>
<path d="M49.6608 151.355C51.1724 154.365 54.627 160.853 55.6252 163.834L55.7396 165.045L54.6641 165.387L54.2166 165.086C52.501 159.455 51.7752 158.222 48.9801 153.047C49.2222 152.537 49.452 151.89 49.6608 151.355Z" fill="#7A8BE3"/>
<path d="M71.1367 161.258C71.6482 161.895 72.2553 162.56 72.589 163.292C76.5854 168.207 80.0668 172.037 85.1207 175.969C87.0802 177.492 89.1549 178.821 91.0979 180.317C92.0896 180.897 93.6446 181.875 94.6227 182.366L95.5166 182.957C90.8102 189.19 86.0898 188.628 79.4086 190.495L79.4373 186.505L77.1081 184.132L76.1113 184.469C72.4579 180.548 68.3561 177.194 64.34 173.663C61.0528 170.772 59.5602 169.483 55.124 169.102C54.9266 167.845 54.5213 166.346 54.2164 165.087L54.6639 165.388L55.7393 165.046C55.9057 166.586 55.6634 166.591 56.4426 167.664C57.5032 168.037 58.0814 167.94 59.2285 167.924C62.2923 167.822 63.7028 167.534 66.6664 166.851C66.7769 166.006 66.9483 165.872 67.4516 165.192L67.613 164.977C66.8912 164.669 66.7085 164.646 65.9316 164.479L66.6426 164.226C68.2013 163.42 69.7017 162.278 71.1367 161.258Z" fill="#145134"/>
<path d="M54.2163 165.087L54.6638 165.388L55.7392 165.046C55.9056 166.586 55.6634 166.591 56.4425 167.664C57.5031 168.037 58.0813 167.94 59.2284 167.925C62.2922 167.822 63.7027 167.535 66.6663 166.851L66.894 166.904C68.5898 170.206 70.1217 173.347 72.148 176.464C73.4408 178.199 74.0995 179.125 75.6542 180.603L75.9985 182.931L77.108 184.132L76.1112 184.47C72.4579 180.548 68.356 177.194 64.3399 173.663C61.0527 170.772 59.5601 169.484 55.124 169.103C54.9265 167.845 54.5212 166.346 54.2163 165.087Z" fill="#7A8BE3"/>
<path d="M66.6665 166.851L66.8941 166.904C68.5899 170.206 70.1218 173.347 72.1481 176.464L69.9488 176.704C67.3421 173.628 62.8182 169.753 59.2285 167.925C62.2923 167.822 63.7028 167.535 66.6665 166.851Z" fill="#0D8D46"/>
<path d="M72.1483 176.464C73.4412 178.199 74.0999 179.124 75.6546 180.602L75.9989 182.93C74.1875 180.92 71.8779 178.734 69.9491 176.703L72.1483 176.464Z" fill="#3B8361"/>
<path d="M94.6226 182.366L95.5165 182.958C90.8101 189.19 86.0897 188.629 79.4085 190.495L79.4372 186.505C83.8223 187.701 86.9935 186.657 90.8515 184.745L91.3896 184.42L94.6226 182.366Z" fill="#A8AB22"/>
<path d="M75.6543 180.602C79.6597 184.17 81.8117 184.976 87.3714 184.796C88.3816 184.765 89.913 184.534 90.8516 184.744C86.9936 186.656 83.8224 187.699 79.4373 186.504L77.1081 184.131L75.9986 182.93L75.6543 180.602Z" fill="#0D7E3F"/>
<path d="M71.1367 161.258C71.6482 161.895 72.2553 162.56 72.589 163.292C70.5131 165.284 69.5048 165.809 66.8941 166.904L66.6664 166.851C66.7768 166.006 66.9483 165.872 67.4516 165.192L67.613 164.977C66.8912 164.67 66.7085 164.647 65.9316 164.479L66.6426 164.226C68.2013 163.421 69.7017 162.279 71.1367 161.258Z" fill="#747807"/>
<path d="M91.0979 180.318C92.0895 180.898 93.6446 181.876 94.6226 182.366L91.3897 184.42C91.1449 183.359 91.237 181.649 91.0979 180.318Z" fill="#293822"/>
<path d="M18.4329 60.0524C18.4356 58.4155 18.1695 55.6063 19.1791 54.435C21.0765 55.2976 21.6491 60.1392 22.5052 61.9445C24.8372 66.8654 26.3121 73.6493 28.5703 78.3765L28.8306 78.3842L28.9747 78.1342C29.286 74.1812 30.5979 70.3725 32.7871 67.0637C33.1384 66.355 34.2385 65.1868 34.796 64.5442C35.3349 63.6945 34.9751 63.8989 35.753 63.6683C37.7857 65.4725 41.2027 80.4122 42.1246 83.8003C42.5878 85.5026 42.7782 88.9789 43.0401 89.9798L44.1759 90.2786C47.3395 91.3521 52.0876 92.6616 54.4979 94.8693C55.0328 95.2954 55.5265 95.6716 56.031 96.137C57.2093 98.2944 55.0989 103.394 56.5809 105.318C57.6451 105.606 57.1032 105.573 58.2735 105.282L58.4708 104.807C58.0797 104.19 57.8681 104.003 57.7102 103.312L58.037 103.243C59.0273 103.022 59.3741 103.05 59.9942 102.255C59.0555 106.922 57.5912 113.247 57.9869 117.941C57.8356 120.406 58.0235 125.615 58.4697 128.042C53.3537 130.118 48.7241 130.852 43.1988 129.685C42.7777 129.647 41.6831 129.367 41.2191 129.259L38.4383 127.734L38.4685 127.378L38.223 124.956C37.7623 124.067 36.5171 122.705 35.8337 121.976C34.4578 119.064 31.8369 115.484 30.8666 112.941C28.6399 109.54 25.9736 104.542 24.3997 100.837C21.9996 96.1958 20.4265 90.3604 19.3916 85.2724C17.96 78.0585 17.5704 67.2661 18.4329 60.0524Z" fill="#42C43D"/>
<path d="M18.4329 60.0524C18.4356 58.4155 18.1695 55.6063 19.1791 54.435C21.0765 55.2976 21.6491 60.1392 22.5052 61.9445C24.8372 66.8654 26.3121 73.6493 28.5703 78.3765L28.8306 78.3842L28.9747 78.1342C29.286 74.1812 30.5979 70.3725 32.7871 67.0637C33.1384 66.355 34.2385 65.1868 34.796 64.5442C35.3349 63.6945 34.9751 63.8989 35.753 63.6683C37.7857 65.4725 41.2027 80.4122 42.1246 83.8003C42.5878 85.5026 42.7782 88.9789 43.0401 89.9798C40.6721 89.8479 35.239 87.948 33.3455 89.1112L33.6767 90.0663C34.1099 93.9836 35.1812 98.219 35.7739 102.153C36.8806 109.52 37.9624 117.522 38.223 124.956C37.7623 124.067 36.5171 122.705 35.8337 121.976C34.4578 119.064 31.8369 115.484 30.8666 112.941C28.6399 109.54 25.9736 104.542 24.3997 100.837C21.9996 96.1958 20.4265 90.3604 19.3916 85.2724C17.96 78.0585 17.5704 67.2661 18.4329 60.0524Z" fill="#0D7E3F"/>
<path d="M21.2308 79.0041C22.2392 82.8218 23.3161 89.1646 24.4626 93.2944C25.3501 96.4881 30.746 111.437 30.8668 112.941C28.6401 109.54 25.9738 104.542 24.3999 100.837C21.9998 96.1961 20.4267 90.3606 19.3918 85.2726C19.7062 83.8702 19.3982 84.338 20.4494 83.4734L20.2991 81.7035L21.2114 81.8389L21.3923 81.4333C21.2042 80.4061 21.2212 80.0603 21.2308 79.0041Z" fill="#00453B"/>
<path d="M19.3914 85.2718C19.7058 83.8694 19.3979 84.3372 20.449 83.4726C20.9106 86.2276 21.3451 88.4912 21.9579 91.1706C22.4454 93.3024 24.4485 99.2433 24.3995 100.836C21.9995 96.1953 20.4263 90.3598 19.3914 85.2718Z" fill="#7A8BE3"/>
<path d="M32.7872 67.0633C33.1384 66.3545 34.2385 65.1864 34.796 64.5438C34.5548 67.517 32.7787 70.2725 32.2518 73.0484C30.9307 79.9957 30.567 87.5484 31.1642 94.5832C31.4129 97.5125 32.0831 101.146 31.98 103.898C30.6922 101.81 29.0404 89.1216 29.2057 86.2145C29.2608 85.2558 29.563 80.8859 29.5159 80.4866C29.3248 79.835 29.1298 78.8253 28.9747 78.1338C29.286 74.1807 30.598 70.3721 32.7872 67.0633Z" fill="#145134"/>
<path d="M32.7872 67.0636C33.1739 68.1971 31.3103 72.6196 30.9108 74.1735C30.3545 76.3398 29.8972 78.2573 29.5159 80.4869C29.3249 79.8353 29.1299 78.8256 28.9747 78.1341C29.2861 74.181 30.598 70.3724 32.7872 67.0636Z" fill="#7A8BE3"/>
<path d="M18.4331 60.0521C18.9371 62.0527 18.7991 63.6284 19.1208 65.0132C19.9096 66.0994 20.8779 76.7044 21.2309 79.0035C21.2212 80.0598 21.2042 80.4055 21.3923 81.4327L21.2114 81.8383L20.2991 81.7029L20.4494 83.4728C19.3983 84.3375 19.7062 83.8696 19.3918 85.2721C17.9602 78.0581 17.5706 67.2658 18.4331 60.0521Z" fill="#7A8BE3"/>
<path d="M19.1205 65.0124C19.9092 66.0986 20.8775 76.7035 21.2305 79.0027C21.2208 80.0589 21.2038 80.4047 21.3919 81.4319L21.211 81.8375L20.2987 81.7021C19.7411 76.0521 19.1981 70.6913 19.1205 65.0124Z" fill="#051F2A"/>
<path d="M56.0311 96.1372C57.2094 98.2945 55.099 103.394 56.5809 105.318C57.6452 105.606 57.1032 105.573 58.2736 105.282L58.4709 104.807C58.0797 104.19 57.8682 104.003 57.7103 103.312L58.0371 103.243C59.0274 103.022 59.3742 103.05 59.9942 102.255C59.0556 106.922 57.5913 113.247 57.987 117.941C57.8357 120.406 58.0236 125.616 58.4698 128.042C53.3538 130.118 48.7242 130.852 43.1989 129.685C44.0691 129.478 48.2272 129.401 50.0738 129.131C54.1575 124.89 54.9817 109.793 54.1391 104.143C54.4144 101.613 55.1766 99.9809 55.3591 96.7307L56.0311 96.1372Z" fill="#0D7E3F"/>
<path d="M33.6768 90.0654L33.3456 89.1103C35.2391 87.9471 40.6722 89.847 43.0402 89.9789L44.176 90.2777C47.3396 91.3512 52.0876 92.6607 54.498 94.8684C55.0328 95.2945 55.5266 95.6707 56.0311 96.1362L55.3591 96.7297C50.9979 97.279 49.2111 97.555 44.8104 97.0665C39.395 95.2074 37.6343 94.2958 33.6768 90.0654Z" fill="#747807"/>
<path d="M33.6768 90.0654L33.3456 89.1103C35.2391 87.9471 40.6722 89.847 43.0402 89.9789L44.176 90.2777L43.3506 91.2999C40.8129 90.7233 38.9569 90.3226 36.3906 89.9941C40.3008 95.0499 46.6431 97.1758 52.8287 95.5741C53.6136 95.4529 53.8085 95.266 54.498 94.8684C55.0328 95.2945 55.5266 95.6707 56.0311 96.1362L55.3591 96.7297C50.9979 97.279 49.2111 97.555 44.8104 97.0665C39.395 95.2074 37.6343 94.2958 33.6768 90.0654Z" fill="#DAE721"/>
<path d="M44.1759 90.2787C47.3395 91.3522 52.0875 92.6617 54.4979 94.8694C53.8083 95.2671 53.6135 95.4539 52.8286 95.5751C49.847 93.1647 46.9673 92.362 43.3505 91.3009L44.1759 90.2787Z" fill="#D1D03F"/>
<path d="M44.8101 97.0664C49.2107 97.5549 50.9976 97.2789 55.3588 96.7296C55.1763 99.9798 54.4141 101.611 54.1388 104.142C52.7669 98.4436 51.2412 99.7741 46.1923 98.3195C45.2163 98.0402 45.1584 97.8986 44.8101 97.0664Z" fill="#0D8D46"/>
<path d="M10.0979 114.47C9.78045 113.929 9.47109 113.383 9.16936 112.832C8.46795 111.543 7.2561 109.135 7.67491 107.723L8.27458 107.415C9.22012 107.61 9.38994 107.66 10.2903 108.011C19.4579 111.082 29.1121 114.898 35.4556 122.574L35.8337 121.976C36.517 122.705 37.7622 124.066 38.223 124.956L38.4684 127.377L38.4382 127.733C37.9026 128.839 37.2558 130.091 36.7771 131.203C37.746 131.435 38.5389 131.624 39.4841 131.937L39.8837 133.151C40.6627 133.626 40.8716 134.287 41.3017 135.117C39.4028 133.925 40.3824 133.772 37.531 133.097L37.1716 133.431L37.9837 134.399C27.0778 130.439 16.8524 127.4 11.1722 116.188C10.8074 115.789 10.3871 114.969 10.0979 114.47Z" fill="#0D8D46"/>
<path d="M11.1724 116.189C12.545 116.961 15.1576 120.638 17.1002 122.23C17.3957 121.692 17.3 121.365 17.3092 120.687C20.8839 123.487 32.3905 131.815 36.7772 131.204C37.7461 131.436 38.539 131.625 39.4842 131.938L39.8838 133.152C40.6629 133.627 40.8717 134.288 41.3018 135.119C39.403 133.926 40.3825 133.773 37.5312 133.098L37.1717 133.432L37.9838 134.4C27.0779 130.441 16.8525 127.402 11.1724 116.189Z" fill="#7A8BE3"/>
<path d="M17.309 120.687C20.8837 123.487 32.3903 131.815 36.777 131.204C37.7459 131.436 38.5388 131.625 39.484 131.938L39.8836 133.152C32.4792 131.894 22.2415 127.928 17.1 122.229C17.3955 121.692 17.2998 121.365 17.309 120.687Z" fill="#145134"/>
<path d="M10.0979 114.47C9.78045 113.929 9.47109 113.383 9.16936 112.832C8.46795 111.543 7.2561 109.135 7.67491 107.723L8.27458 107.415C9.22012 107.61 9.38994 107.66 10.2903 108.011C9.76308 108.888 10.323 112.472 10.6183 113.492L10.0979 114.47Z" fill="#1A733D"/>
<path d="M10.098 114.471L10.6184 113.493C12.7924 116.681 14.2257 118.282 17.3091 120.686C17.3 121.364 17.3956 121.692 17.1001 122.229C15.1575 120.637 12.5449 116.96 11.1723 116.189C10.8075 115.79 10.3871 114.97 10.098 114.471Z" fill="#00453B"/>
<path d="M35.8336 121.976C36.5169 122.705 37.7621 124.066 38.2229 124.956L38.4683 127.378L38.1232 127.273C37.2182 126.119 35.7046 124.031 35.4555 122.575L35.8336 121.976Z" fill="#051F2A"/>
<path d="M38.4386 127.734L41.2195 129.259L40.8471 129.764C41.0742 130.754 41.6082 131.264 42.2418 132.068L39.4845 131.937C38.5393 131.624 37.7464 131.436 36.7775 131.204C37.2562 130.092 37.903 128.84 38.4386 127.734Z" fill="#A8AB22"/>
<path d="M77.1078 184.131L79.437 186.504L79.4083 190.494C77.432 190.544 77.1117 186.628 76.111 184.469L77.1078 184.131Z" fill="#7A8BE3"/>
<path d="M232.35 162.112C233.176 160.391 234.573 158.055 235.527 156.337C235.503 158.706 235.458 160.525 236.846 162.599C240.642 164.278 240.05 163.559 243.587 164.073C242.19 164.335 241.468 164.403 240.047 164.48L236.986 163.895C235.313 163.161 234.064 162.706 232.35 162.112Z" fill="#145134"/>
<path d="M263.443 123.425C263.963 124.091 264.026 124.334 264.724 124.718C264.308 126.043 264.24 125.987 263.182 126.917L262.831 127.229C262.76 127.288 262.688 127.348 262.617 127.41C260.495 131.072 248.94 158.804 248.265 162.62C246.514 163.387 245.489 163.857 243.587 164.074C240.05 163.559 240.642 164.279 236.846 162.599C235.458 160.525 235.503 158.706 235.527 156.337C236.727 153.636 237.705 151.365 238.728 148.571C239.209 146.134 240.725 142.244 241.334 139.385C242.291 134.882 242.517 131.298 243.022 126.759L243.007 125.383C248.155 126.569 253.882 126.896 258.947 125.119L259.422 125.083C261 124.305 261.717 123.936 263.443 123.425Z" fill="#2CA648"/>
<path d="M263.443 123.425C263.963 124.091 264.026 124.334 264.724 124.718C264.308 126.043 264.24 125.987 263.182 126.917L262.831 127.229C262.76 127.288 262.688 127.348 262.617 127.41L259.003 127.88C253.023 128.926 248.654 129.384 243.022 126.759L243.007 125.383C248.155 126.569 253.882 126.896 258.946 125.119L259.422 125.083C261 124.305 261.716 123.936 263.443 123.425Z" fill="#D1D03F"/>
<path d="M263.444 123.425C263.964 124.091 264.026 124.334 264.725 124.718C264.309 126.043 264.24 125.987 263.182 126.917L262.831 127.229C262.76 127.288 262.689 127.348 262.617 127.41L259.003 127.88C259.776 127.167 260.457 126.721 260.733 125.737L260.472 125.288L259.422 125.083C261.001 124.305 261.717 123.936 263.444 123.425Z" fill="#A8AB22"/>
<path d="M238.728 148.571C238.936 151.618 237.78 159.779 236.846 162.599C235.458 160.525 235.503 158.706 235.527 156.337C236.727 153.636 237.705 151.365 238.728 148.571Z" fill="#1A733D"/>
<path d="M232.35 162.111C234.065 162.706 235.313 163.16 236.986 163.895L240.048 164.48C241.468 164.403 242.191 164.334 243.587 164.073C245.49 163.856 246.515 163.386 248.265 162.62C248.536 163.826 248.848 164.712 248.637 165.919C247.882 167.024 247.68 167.021 246.218 167.298C245.938 167.348 245.656 167.399 245.374 167.446C240.728 168.287 237.343 174.989 234.077 177.557C232.436 179.296 226.691 186.595 225.294 188.684C225.586 189.853 225.921 190.783 225.615 191.936C223.752 193.315 219.514 192.016 217.398 191.576C213.579 190.783 210.892 189.425 208 186.839L209.486 185.864C210.339 185.427 211.837 184.342 212.69 183.763C217.267 180.496 222.379 175.352 225.993 171.063C227.523 169.244 229.874 165.271 231.455 163.901L232.35 162.111Z" fill="#145134"/>
<path d="M243.587 164.072C245.489 163.855 246.515 163.386 248.265 162.619C248.536 163.826 248.848 164.711 248.637 165.918C247.882 167.024 247.68 167.021 246.217 167.297C245.938 167.348 245.656 167.398 245.373 167.446C240.728 168.287 237.343 174.989 234.076 177.557C233.648 177.67 233.209 177.768 232.775 177.872L232.311 177.462C233.55 174.124 235.277 169.746 235.892 166.307C236.139 165.35 236.273 164.563 236.986 163.894L240.047 164.48C241.468 164.402 242.19 164.334 243.587 164.072Z" fill="#0D8D46"/>
<path d="M243.587 164.072C245.489 163.855 246.515 163.386 248.265 162.619C248.536 163.826 248.848 164.711 248.637 165.918C247.882 167.024 247.68 167.021 246.217 167.297C245.938 167.348 245.656 167.398 245.373 167.446L243.78 167.039C241.569 167.791 238.131 166.872 235.893 166.307C236.139 165.35 236.273 164.563 236.986 163.894L240.048 164.48C241.468 164.402 242.19 164.334 243.587 164.072Z" fill="#D1D03F"/>
<path d="M243.587 164.072C245.489 163.855 246.515 163.386 248.265 162.619C248.536 163.826 248.848 164.711 248.637 165.918C247.882 167.024 247.68 167.021 246.217 167.297C245.938 167.348 245.656 167.398 245.373 167.446L243.78 167.039C244.624 166.691 245.07 166.605 245.623 165.882L245.424 165.383C243.956 164.78 241.738 164.723 240.047 164.48C241.468 164.402 242.19 164.334 243.587 164.072Z" fill="#A8AB22"/>
<path d="M209.486 185.865C210.339 185.428 211.837 184.343 212.69 183.764C212.874 185.098 213.044 186.498 213.275 187.818L214.366 188.082C218.135 190.008 221.339 189.723 225.294 188.685C225.586 189.853 225.921 190.784 225.615 191.937C223.752 193.316 219.514 192.017 217.398 191.577C213.579 190.784 210.892 189.425 208 186.84L209.486 185.865Z" fill="#A8AB22"/>
<path d="M209.486 185.865C210.339 185.428 211.837 184.343 212.69 183.764C212.874 185.098 213.044 186.498 213.276 187.818C211.864 187.289 210.791 186.611 209.486 185.865Z" fill="#293822"/>
<path d="M214.366 188.082C215.825 187.901 217.412 188.029 218.898 187.933C225.981 187.482 229.211 183.27 232.311 177.463L232.775 177.873C233.209 177.769 233.648 177.671 234.076 177.558C232.436 179.297 226.691 186.596 225.294 188.685C221.338 189.723 218.134 190.008 214.366 188.082Z" fill="#0D7E3F"/>
<path d="M232.35 162.111C234.065 162.706 235.313 163.16 236.986 163.895C236.273 164.563 236.139 165.351 235.892 166.308C234.133 165.494 233.033 165.036 231.455 163.901L232.35 162.111Z" fill="#A8AB22"/>
<path d="M268.068 95.4217C271.593 89.8045 292.585 54.4341 295.795 52L296.089 52.3002C296.538 56.0182 292.41 66.8454 291.197 71.2857C289.88 76.359 288.816 79.0041 286.792 83.7475C286.216 83.3968 285.996 83.0936 285.52 82.6062C283.354 87.1089 281.027 91.5313 278.545 95.8675C277.481 97.7459 273.097 104.591 272.755 106.062C270.702 110.547 263.613 114.586 262.93 117.837L262.962 119.549C262.826 121.225 263.049 121.834 263.444 123.424C261.717 123.936 261.001 124.304 259.423 125.083L258.947 125.119C253.883 126.896 248.156 126.569 243.008 125.383C243.154 121.852 242.88 118.203 242.55 114.69L242.223 111.619C240.948 104.611 239.572 99.9452 236.963 93.374C237.967 92.8628 239.947 90.6516 240.937 89.6589L241.403 89.6857L241.822 89.8789L243.576 88.9754C246.248 86.7701 250.724 84.9452 253.913 83.691L254.299 83.4622C254.867 82.2674 255.158 76.7572 255.464 74.9888C256.1 71.3302 257.455 57.2873 260.261 55.4357L260.843 55.5903C265.269 61.252 268.306 76.0321 268.339 82.9659C268.357 86.8177 267.881 91.0112 268.048 94.9819L268.068 95.4217Z" fill="#42C43D"/>
<path d="M268.068 95.4217C271.593 89.8045 292.584 54.4341 295.794 52L296.089 52.3002C296.537 56.0182 292.409 66.8454 291.197 71.2857C289.88 76.359 288.816 79.0041 286.792 83.7475C286.215 83.3968 285.995 83.0936 285.52 82.6062C283.353 87.1089 281.026 91.5313 278.545 95.8675C277.481 97.7459 273.097 104.591 272.755 106.062C270.701 110.547 263.613 114.586 262.929 117.837C262.721 105.88 263.331 93.9238 264.757 82.0534L264.891 81.7325L264.671 81.3104C263.212 81.2539 261.616 81.7651 260.165 82.1218C260.462 82.7548 260.284 82.6152 260.781 82.9896L255.395 84.541L253.912 83.691L254.298 83.4622C254.866 82.2674 255.157 76.7572 255.464 74.9888C256.1 71.3302 257.455 57.2873 260.26 55.4357L260.843 55.5903C265.268 61.252 268.306 76.0321 268.338 82.9659C268.356 86.8177 267.881 91.0112 268.047 94.9819L268.068 95.4217Z" fill="#0D7E3F"/>
<path d="M285.52 82.6057C286.602 80.1983 289.407 72.254 291.197 71.2852C289.88 76.3585 288.816 79.0036 286.792 83.747C286.215 83.3963 285.996 83.0931 285.52 82.6057Z" fill="#002411"/>
<path d="M254.298 83.4625C255.226 83.3882 259.06 82.3896 260.165 82.1221C260.462 82.7551 260.284 82.6154 260.781 82.9899L255.395 84.5413L253.912 83.6913L254.298 83.4625Z" fill="#BDF627"/>
<path d="M241.403 89.6859L241.822 89.8791L243.576 88.9756L241.48 91.276C243.793 92.2092 246.658 91.9179 249.169 91.8436C250.067 91.9506 250.964 92.0725 251.859 92.2003L251.553 92.1765L251.897 92.4588C250.352 93.0057 245.698 94.0548 245.225 95.6568C242.895 103.53 245.609 112.69 247.835 120.28C250.435 129.146 254.878 123.894 258.947 125.119C253.883 126.896 248.156 126.569 243.008 125.383C243.154 121.852 242.88 118.203 242.55 114.69L242.223 111.62C240.948 104.612 239.572 99.9455 236.963 93.3742C237.967 92.863 239.947 90.6518 240.937 89.6592L241.403 89.6859Z" fill="#0D7E3F"/>
<path d="M241.403 89.6859L241.822 89.8791L243.576 88.9756L241.48 91.276C242.372 97.7848 243.353 105.087 242.223 111.62C240.948 104.612 239.572 99.9455 236.963 93.3742C237.967 92.863 239.947 90.6518 240.937 89.6592L241.403 89.6859Z" fill="#413149"/>
<path d="M260.165 82.1223C261.616 81.7657 263.212 81.2545 264.671 81.3109L264.891 81.733L264.757 82.054C263.42 84.818 259.482 88.0843 256.804 89.5436C253.775 90.9226 252.471 91.3268 249.169 91.8439C246.657 91.9182 243.792 92.2095 241.48 91.2763L243.575 88.9759C246.247 86.7706 250.723 84.9458 253.912 83.6916L255.395 84.5416L260.781 82.9902C260.284 82.6157 260.462 82.7554 260.165 82.1223Z" fill="#DAE721"/>
<path d="M260.781 82.9893L261.167 83.4559C259.925 86.0683 257.868 87.4652 255.387 88.764C251.354 90.3451 248.946 90.464 244.669 90.4343C248.251 87.1769 250.958 86.2645 255.396 84.5407L260.781 82.9893Z" fill="#747807"/>
<path d="M262.962 119.549L263.422 119.651C265.521 118.355 269.494 114.83 270.713 114.06C275.106 111.278 294.724 102.65 298.493 102.24L298.986 102.469C299.664 109.26 275.165 123.782 268.514 123.77C267.901 123.77 265.099 124.415 264.724 124.718C264.026 124.334 263.963 124.091 263.443 123.425C263.048 121.835 262.825 121.226 262.962 119.549Z" fill="#0D8D46"/>
<path d="M272.755 106.062C273.097 104.591 277.48 97.7461 278.544 95.8678C281.026 91.5315 283.353 87.1091 285.52 82.6064C285.995 83.0939 286.215 83.397 286.792 83.7477C283.52 91.0233 278.009 100.076 272.755 106.062Z" fill="#003F1C" fill-opacity="0.988235"/>
<path d="M63.7331 15.2684C78.4704 7.83699 89.5762 13.5884 97.0242 27.3565C92.8967 29.9693 88.8519 32.4299 85.0254 35.4825C81.351 38.5517 76.5026 42.7288 73.6781 46.5487C70.9695 49.1647 64.8212 59.2552 64.0341 59.8175C62.0464 63.8027 59.8173 68.337 58.0413 72.4116L59.0864 67.4672C54.8697 63.3232 51.2052 57.5487 48.7479 52.1942C48.3378 51.5162 48.2253 51.288 47.9211 50.5306C45.2753 43.9194 45.3646 36.521 48.1757 29.9759C51.0696 23.2721 56.9532 17.9109 63.7331 15.2684Z" fill="#2C0C2A"/>
<path d="M60.8558 40.9297C61.7918 36.1077 64.0341 31.6957 68.6478 29.4733C71.6045 28.0677 74.9944 27.8792 78.0867 28.9441C81.3344 30.0884 83.5999 32.4035 85.0254 35.4825C81.351 38.5517 76.5025 42.7288 73.6781 46.5487C70.9695 49.1648 64.8212 59.2553 64.0341 59.8175C63.9746 58.7856 64.6029 57.5653 64.6922 56.1398L65.0065 56.0836C65.1255 55.9546 65.2446 55.8256 65.3636 55.6966C64.517 54.5457 63.0485 52.4125 62.4664 51.2583C60.5615 47.488 60.7367 44.9017 60.8558 40.9297Z" fill="#170317"/>
<path d="M63.7331 15.2686C63.2205 16.4327 59.4767 18.728 58.2034 19.8492C50.5636 26.5762 46.4559 36.3789 47.8152 46.5488C48.0269 48.2355 48.7909 50.6498 48.7479 52.1943C48.3378 51.5163 48.2253 51.2881 47.9211 50.5307C45.2753 43.9195 45.3646 36.5211 48.1757 29.976C51.0696 23.2722 56.9532 17.9111 63.7331 15.2686Z" fill="#7682D7"/>
<path d="M64.6922 56.1398C60.1182 51.6849 57.9586 47.779 60.1844 41.2472L60.8557 40.9297C60.7367 44.9017 60.5614 47.488 62.4664 51.2583C63.0485 52.4125 64.5169 54.5457 65.3636 55.6966C65.2445 55.8256 65.1254 55.9546 65.0064 56.0836L64.6922 56.1398Z" fill="#47193D"/>
<path d="M202.142 28.2582C207.07 14.6139 219.679 8.4947 233.03 14.6889C236.057 15.8227 237.942 17.6348 240.38 19.5743C256.426 32.346 255.932 49.109 245.869 65.2467L245.35 65.2216C244.259 66.3361 242.078 68.8163 240.965 69.3952C239.205 65.5578 237.49 62.5072 235.424 58.8479C233.58 56.0994 231.647 53.0474 229.407 50.6366C226.67 46.464 219.443 40.1256 215.455 36.8407C211.485 33.8367 207.714 31.5586 203.481 28.9738L202.142 28.2582Z" fill="#2C0C2A"/>
<path d="M215.455 36.841C217.527 33.31 219.678 31.2567 223.869 30.2137C227.264 29.3333 230.875 29.9128 233.825 31.8046C238.892 35.1163 238.164 39.1016 239.813 41.2234C240.269 45.5388 240.261 49.8153 237.689 53.6353C236.873 54.8432 235.307 56.1537 235.692 57.0168L236.025 57.2718L235.423 58.8482C233.58 56.0998 231.647 53.0478 229.406 50.6369C226.67 46.4644 219.443 40.1259 215.455 36.841Z" fill="#160316"/>
<path d="M202.142 28.2582C207.07 14.6139 219.679 8.4947 233.03 14.6889C230.792 14.828 228.695 13.6165 226.487 13.4279C215.471 12.4814 208.071 20.049 203.481 28.9738L202.142 28.2582Z" fill="#8383D2"/>
<path d="M239.813 41.223C241.125 42.9013 241.452 46.5366 241.199 48.5365C240.668 52.7748 239.257 54.7752 236.025 57.2714L235.692 57.0164C235.307 56.1533 236.873 54.8428 237.689 53.6349C240.261 49.8149 240.269 45.5384 239.813 41.223Z" fill="#47193D"/>
<path d="M250 110C250 165.781 205.228 211 150 211C94.7715 211 50 165.781 50 110C50 54.2192 94.7715 9 150 9C205.228 9 250 54.2192 250 110ZM60 110C60 160.203 100.294 200.9 150 200.9C199.706 200.9 240 160.203 240 110C240 59.7973 199.706 19.1 150 19.1C100.294 19.1 60 59.7973 60 110Z" fill="url(#paint0_linear_71_465)"/>
<path d="M99.9395 26.0649C101.352 25.9783 103.268 25.7619 103.991 27.1981C104.205 29.5965 100.726 31.3239 98.8141 32.0263C96.1521 32.7641 93.9229 32.3293 95.5559 28.9256C96.4452 27.0722 98.0763 26.5449 99.9395 26.0649Z" fill="#FCFCFA"/>
<defs>
<linearGradient id="paint0_linear_71_465" x1="90.5" y1="24.5" x2="222.5" y2="204" gradientUnits="userSpaceOnUse">
<stop stop-color="#FEB7B6"/>
<stop offset="1" stop-color="#FEB7B6"/>
</linearGradient>
</defs>
</svg>
