<svg width="300" height="220" viewBox="0 0 300 220" fill="none" xmlns="http://www.w3.org/2000/svg">
<path d="M35.118 91.0607C37.3146 90.7932 39.7022 91.41 41.8796 91.7594C42.6399 91.8814 43.5333 92.267 44.3054 92.4456C47.0724 93.0853 49.9287 93.9911 52.3825 95.442C53.3916 96.0469 54.4553 97.1851 55.151 98.1362C55.1473 98.9543 53.9183 102.682 53.6227 103.801C52.4922 108.228 52.1625 112.821 52.6491 117.363C52.9499 120.04 53.5252 122.678 54.3658 125.236C54.5176 125.691 54.7308 126.247 54.9327 126.678C55.5892 128.078 55.4502 128.457 53.8664 128.343C53.3224 128.342 52.3612 128.038 51.8355 127.881C49.234 127.102 46.7988 126.019 44.8967 124.021C42.5587 121.584 41.5261 118.033 41.403 114.72C41.3658 113.719 42.265 114.094 42.5858 113.975C42.2889 113.423 41.1378 112.263 40.6101 111.445C39.147 109.192 38.3974 106.401 38.0073 103.763C37.824 102.523 39.7823 102.624 40.5363 102.634C40.3951 102.476 40.2162 102.319 40.0557 102.18C36.9093 99.4393 34.4426 95.4038 35.118 91.0607Z" fill="url(#paint0_linear_65_257)"/>
<path d="M265.784 91.0607C263.588 90.7932 261.2 91.41 259.023 91.7594C258.262 91.8814 257.369 92.267 256.597 92.4456C253.83 93.0853 250.974 93.9911 248.52 95.442C247.511 96.0469 246.447 97.1851 245.751 98.1362C245.755 98.9543 246.984 102.682 247.28 103.801C248.41 108.228 248.74 112.821 248.253 117.363C247.952 120.04 247.377 122.678 246.537 125.236C246.385 125.691 246.172 126.247 245.97 126.678C245.313 128.078 245.452 128.457 247.036 128.343C247.58 128.342 248.541 128.038 249.067 127.881C251.668 127.102 254.104 126.019 256.006 124.021C258.344 121.584 259.376 118.033 259.499 114.72C259.537 113.719 258.637 114.094 258.317 113.975C258.613 113.423 259.765 112.263 260.292 111.445C261.755 109.192 262.505 106.401 262.895 103.763C263.078 102.523 261.12 102.624 260.366 102.634C260.507 102.476 260.686 102.319 260.847 102.18C263.993 99.4393 266.46 95.4038 265.784 91.0607Z" fill="url(#paint1_linear_65_257)"/>
<path d="M250 110C250 165.781 205.228 211 150 211C94.7715 211 50 165.781 50 110C50 54.2192 94.7715 9 150 9C205.228 9 250 54.2192 250 110ZM60 110C60 160.203 100.294 200.9 150 200.9C199.706 200.9 240 160.203 240 110C240 59.7973 199.706 19.1 150 19.1C100.294 19.1 60 59.7973 60 110Z" fill="url(#paint2_linear_65_257)"/>
<defs>
<linearGradient id="paint0_linear_65_257" x1="45.0802" y1="90.9613" x2="64" y2="138.923" gradientUnits="userSpaceOnUse">
<stop stop-color="#C1E5F9"/>
<stop offset="1" stop-color="#004B90"/>
</linearGradient>
<linearGradient id="paint1_linear_65_257" x1="255.822" y1="90.9613" x2="236.902" y2="138.923" gradientUnits="userSpaceOnUse">
<stop stop-color="#C1E5F9"/>
<stop offset="1" stop-color="#004B90"/>
</linearGradient>
<linearGradient id="paint2_linear_65_257" x1="82" y1="40" x2="265" y2="211" gradientUnits="userSpaceOnUse">
<stop stop-color="#328FE6"/>
<stop offset="1" stop-color="#0E63B3"/>
</linearGradient>
</defs>
</svg>
