<svg width="300" height="220" viewBox="0 0 300 220" fill="none" xmlns="http://www.w3.org/2000/svg">
<g clip-path="url(#clip0_66_970)">
<path d="M40.8866 110.587C43.0884 112.588 50.173 118.387 52.8565 119.682C53.7987 125.301 54.9267 131.184 56.9446 136.536C57.3214 137.467 58.384 139.916 58.6157 140.758C61.7409 146.714 63.8131 150.719 67.936 156.08C73.5824 162.686 76.4944 164.977 83.0121 170.604C82.011 172.315 82.1366 176.662 79.9713 178.093C77.9982 180.458 75.4822 181.76 72.5692 182.668C68.7157 184.103 55.0557 187.174 51.8094 182.118C51.2175 181.197 52.033 179.358 52.4453 178.316C53.9874 175.171 57.0976 171.134 59.1298 168.199C59.8566 167.146 60.9815 166.088 61.531 165.021L61.1946 164.756C54.3397 166.023 48.805 166.934 41.9141 165.433C34.3698 163.79 26.8881 160.441 22.5614 153.756C22.0203 153.29 20.7559 150.564 20.8795 149.885C21.8206 144.692 33.4131 144.51 35.9107 142.406L33.8785 141.46C27.5191 140.713 18.5986 133.862 14.7776 128.833C14.3122 128.374 13.8949 127.874 13.5249 127.339C10.3508 122.8 5.21619 111.485 10.8647 107.243C14.2282 104.716 24.8891 107.482 29.0307 108.274C31.8659 108.838 38.4081 110.376 40.8866 110.587Z" fill="#811EC7"/>
<path d="M14.7776 128.833C14.3122 128.374 13.8949 127.874 13.5249 127.339C10.3508 122.8 5.21619 111.485 10.8647 107.243C14.2282 104.716 24.8891 107.482 29.0307 108.274C33.1776 111.41 38.104 108.724 40.1396 116.059L39.8767 116.461C34.8494 115.158 36.2722 116.294 31.4944 112.798L31.0818 113.058C31.0094 114.541 31.0322 115.125 31.2071 116.603C28.494 117.72 20.6734 112.983 18.9714 116.922C18.0417 119.076 18.6886 127.464 21.0814 128.368L21.1558 128.069L20.9028 128.418C21.5094 126.772 21.197 126.811 22.3986 125.991C24.3135 125.798 27.1848 128.129 27.8966 129.822C26.5211 129.139 24.5068 127.922 23.0675 127.991L22.5564 128.443C22.8041 131.727 29.427 136.382 32.345 137.622L35.3935 138.46C34.2253 139.122 34.6075 138.417 33.2209 138.949C38.5298 141.084 52.8292 142.424 58.4618 141.402L58.9572 143.014C57.2774 142.425 55.1064 142.631 53.3331 142.795C46.6964 143.408 40.4473 142.425 33.8785 141.46C27.5191 140.713 18.5986 133.862 14.7776 128.833Z" fill="#6429D6"/>
<path d="M14.7782 128.833L15.4795 128.779C21.2323 134.799 26.3068 139.339 34.9105 140.706L35.3231 140.544C33.5201 139.259 31.6398 139.19 29.5861 138.438C24.5913 136.608 18.573 132.376 16.0888 127.589L16.4049 127.491C19.8703 132.143 25.5278 137.24 31.4114 138.271C31.77 138.064 32.0641 137.927 32.3456 137.622L35.3941 138.46C34.2259 139.122 34.6081 138.417 33.2215 138.95C38.5305 141.084 52.8298 142.424 58.4624 141.402L58.9579 143.014C57.2781 142.425 55.107 142.632 53.3338 142.795C46.697 143.408 40.4479 142.425 33.8791 141.461C27.5197 140.713 18.5993 133.863 14.7782 128.833Z" fill="#9C4DD4"/>
<path d="M23.1935 112.445C20.8931 112.303 16.1409 112.943 14.8163 112.479L15.1897 111.939C18.0024 110.584 19.0734 110.774 22.1458 110.838C22.5516 112.085 22.2718 111.872 23.1935 112.445Z" fill="#C47CDD"/>
<path d="M22.1456 110.839C23.8635 110.814 26.4044 110.576 27.6432 111.929C26.8093 112.945 24.4704 112.537 23.1933 112.447C22.2716 111.873 22.5514 112.086 22.1456 110.839Z" fill="#E9A7D1"/>
<path d="M22.5614 153.756L23.3196 153.34C26.4383 155.117 30.2683 159.687 34.9245 161.048C37.3785 160.724 38.6387 162.924 41.1295 161.855C40.8379 160.45 38.2617 160.034 37.9609 158.384L38.5323 158.631C44.4195 163.327 51.5808 164.425 58.8306 162.602L59.1897 163.392L61.2416 163.232L61.1947 164.756C54.3397 166.023 48.805 166.935 41.9141 165.433C34.3698 163.79 26.8881 160.441 22.5614 153.756Z" fill="#668CE9"/>
<path d="M34.9248 161.047C37.3788 160.724 38.639 162.923 41.1298 161.854C40.8382 160.449 38.262 160.033 37.9612 158.383L38.5326 158.63C44.4198 163.326 51.5811 164.424 58.8308 162.601L59.19 163.391C51.374 165.215 42.232 164.405 34.9248 161.047Z" fill="#6E1ECA"/>
<path d="M32.3451 137.622C29.4271 136.382 22.8043 131.727 22.5565 128.443L23.0676 127.991C24.507 127.922 26.5212 129.139 27.8968 129.822C32.64 134.462 37.3648 137.261 44.1885 137.278C47.1099 137.285 53.1135 136.206 55.4087 137.493C51.2232 140.541 40.1186 139.651 35.3936 138.46L32.3451 137.622Z" fill="#913CD0"/>
<path d="M66.0061 156.433L66.8672 157.075C66.5326 158.859 60.5558 161.873 58.831 162.601C51.5812 164.424 44.4199 163.326 38.5327 158.63C40.1869 157.926 48.954 159.753 51.9414 159.78C57.9638 159.836 60.8128 157.367 66.0061 156.433Z" fill="#9C4DD4"/>
<path d="M52.4454 178.316C54.5905 178.64 54.2883 179.702 55.3273 181.453C61.075 182.797 65.4986 182.4 71.3134 182.033C71.7115 182.008 72.2945 182.369 72.5693 182.668C68.7157 184.103 55.0558 187.173 51.8095 182.118C51.2175 181.197 52.033 179.358 52.4454 178.316Z" fill="#668CE9"/>
<path d="M66.007 171.204C71.6792 168.207 72.7394 165.201 77.2232 172.185C77.8796 171.625 78.6177 171.473 79.4392 171.229C79.2875 173.978 79.1018 175.34 76.5829 176.833C75.3283 177.524 74.0688 178.28 72.718 178.74C69.2709 179.302 64.4996 180.141 61.2516 178.564C61.0742 178.176 60.9117 177.945 60.9682 177.526C62.2946 175.257 63.4505 176.856 66.007 171.204Z" fill="#913CD0"/>
<path d="M77.2233 172.184C77.8797 171.625 78.6178 171.473 79.4393 171.229C79.2876 173.978 79.1019 175.34 76.583 176.832C75.3284 177.523 74.0689 178.28 72.7181 178.739C69.271 179.301 64.4997 180.141 61.2517 178.563C61.0743 178.176 60.9118 177.945 60.9683 177.526C66.2602 176.204 69.9784 177.549 73.9491 174.666C74.7147 173.74 76.1844 172.921 77.2233 172.184Z" fill="#9C64DD"/>
<path d="M77.2235 172.184C77.8799 171.625 78.618 171.473 79.4395 171.229C79.2878 173.978 79.1021 175.34 76.5832 176.832C76.6575 176.299 76.4863 175.762 76.3656 175.229C75.242 174.458 75.5176 174.693 73.9493 174.666C74.7149 173.74 76.1846 172.921 77.2235 172.184Z" fill="#9C4DD4"/>
<path d="M32.9835 126.751C30.6502 125.588 26.4658 123.437 26.3647 120.546L26.9774 119.945C29.5452 119.035 31.1136 119.747 33.8031 120.402C36.5791 121.086 42.1342 122.594 42.4927 125.935C41.1497 128.901 35.2957 127.81 32.9835 126.751Z" fill="#9C64DD"/>
<path d="M33.8032 120.402C36.5792 121.086 42.1342 122.595 42.4928 125.936C41.1498 128.901 35.2958 127.81 32.9836 126.751C34.7964 126.631 35.3379 126.548 36.5387 125.202C37.1629 122.737 35.861 121.603 33.8032 120.402Z" fill="#9C4DD4"/>
<path d="M50.565 150.241C51.3871 150.346 51.4729 150.399 52.1156 150.931C52.1361 154.722 44.1524 153.795 42.07 153.509C41.8036 153.302 41.2399 152.722 40.9756 152.465L40.9815 151.649C42.9527 149.764 47.988 150.103 50.565 150.241Z" fill="#9C64DD"/>
<path d="M31.6861 147.248C31.8741 147.501 31.8225 147.482 31.904 147.811C30.3628 149.11 27.3382 153.474 27.1659 153.589C25.4622 149.462 28.2833 148.73 31.6861 147.248Z" fill="#9C64DD"/>
<path d="M35.349 57.9731C35.5937 55.0618 39.6023 46.8032 41.6746 44.5359C45.5558 40.2885 48.3424 39.3475 52.8722 43.3034C59.0372 47.9098 63.5158 55.921 66.064 63.0128C66.3447 63.7896 67.4706 66.9396 67.8471 67.3236C55.6851 84.9463 51.4111 97.932 52.8567 119.681C50.1733 118.387 43.0887 112.587 40.8869 110.587C38.0784 106.725 36.4105 104.876 34.2739 100.353C29.9017 91.0886 31.6506 67.2237 35.349 57.9731Z" fill="#8621CB"/>
<path d="M35.3491 57.9731C35.5938 55.0618 39.6024 46.8032 41.6747 44.5359C45.5559 40.2885 48.3425 39.3475 52.8723 43.3034L52.6194 43.8675C54.143 45.3092 56.7946 47.5186 56.9055 49.5338C56.3833 49.8683 56.2064 50.0664 55.5966 50.0054C54.852 49.1144 54.1244 48.0349 53.046 47.6885L52.5877 47.9368L51.4907 47.5133C50.0401 47.5247 48.5608 47.7084 47.6698 48.9899L47.7497 49.8574C46.0945 49.9794 44.308 49.5861 42.7145 49.1835L42.239 49.2102C42.9625 51.3109 47.8487 50.525 49.9853 51.5794L48.5386 52.8445C48.5312 55.1181 53.5792 57.859 54.2027 59.7485C55.0283 62.2457 58.5329 69.1974 58.529 71.5309L58.3086 71.6866L57.9002 71.0805L57.4931 71.4086C56.108 70.6203 54.0706 66.3126 52.4998 64.8871L52.2236 65.0467C51.1299 64.5864 49.8868 63.55 48.9461 63.2735C45.2739 62.193 43.4284 64.9956 38.7832 65.9472C39.1786 64.3488 39.4296 63.4614 40.0494 61.9212C40.5809 60.597 43.0376 57.4368 42.9565 56.4385C42.3211 55.1024 42.6846 55.3795 41.5234 54.7494C38.4301 54.7969 36.2781 59.1746 35.3583 59.8056C35.4365 59.2513 35.6269 58.8829 35.8406 58.3709L35.3491 57.9731Z" fill="#6429D6"/>
<path d="M48.5083 46.343L51.4906 47.514C50.04 47.5254 48.5608 47.7091 47.6697 48.9906L47.7496 49.8581C46.0944 49.9801 44.308 49.5868 42.7145 49.1842C44.7772 47.7125 46.1612 47.2138 48.5083 46.343Z" fill="#C47CDD"/>
<path d="M46.8386 66.9053C47.2345 65.7553 47.607 65.514 48.5122 64.9998C50.1011 65.2507 49.5529 65.0567 50.8682 66.2173L51.1745 66.7404L52.2096 68.8462L52.553 69.2298C54.0725 72.653 55.9886 80.9197 53.2978 83.9562C52.5405 84.2697 51.8182 84.5532 51.0245 84.1398C44.9525 80.9778 44.7132 72.1602 46.8386 66.9053Z" fill="#9C4DD4"/>
<path d="M46.8385 66.9057C47.2344 65.7556 47.6068 65.5144 48.5121 65.0002C50.101 65.2511 49.5528 65.0571 50.8681 66.2177L51.1744 66.7408L52.2094 68.8466C51.725 69.4298 50.4924 70.9841 50.0084 71.428C49.4543 71.4031 49.0795 71.2254 48.5597 71.0371C47.5616 69.8121 47.4672 69.5509 47.0002 68.0231L46.975 69.4508C46.4342 68.7867 46.7404 68.0167 46.8385 66.9057Z" fill="#C47CDD"/>
<path d="M50.0082 71.4284C48.672 70.2219 48.2794 69.5124 48.8721 67.8031C49.6912 66.9642 50.0287 66.9683 51.1742 66.7411L52.2092 68.8469C51.7248 69.4302 50.4921 70.9844 50.0082 71.4284Z" fill="#E5D2F5"/>
<path d="M51.4909 47.5133L52.5879 47.9368C54.3296 49.6856 55.0468 50.5458 56.5073 52.5398C56.0726 53.1129 55.6508 53.7737 55.0641 54.1579C52.4851 52.0905 50.8214 51.0429 47.7499 49.8574L47.6699 48.9899C48.561 47.7084 50.0403 47.5247 51.4909 47.5133Z" fill="#E5D2F5"/>
<path d="M56.5072 52.5405C59.0785 54.7859 62.6208 60.4781 63.3464 63.92C60.6182 59.728 58.6839 57.7323 55.064 54.1586C55.6507 53.7744 56.0725 53.1136 56.5072 52.5405Z" fill="#C47CDD"/>
<path d="M52.2236 65.0469L52.4999 64.8872C54.0706 66.3127 56.108 70.6204 57.4932 71.4087L57.7767 73.8951L57.5876 74.1196C56.4501 71.9913 55.5561 69.8391 53.4262 68.6702L52.5529 69.2298L52.2094 68.8461L51.1744 66.7403L50.8681 66.2173L52.2236 65.0469Z" fill="#6E1ECA"/>
<path d="M259.464 110.587C257.262 112.588 250.178 118.387 247.494 119.682C246.552 125.301 245.424 131.184 243.406 136.536C243.029 137.467 241.967 139.916 241.735 140.758C238.61 146.714 236.538 150.719 232.415 156.08C226.768 162.686 223.856 164.977 217.338 170.604C218.34 172.315 218.214 176.662 220.379 178.093C222.352 180.458 224.868 181.76 227.781 182.668C231.635 184.103 245.295 187.174 248.541 182.118C249.133 181.197 248.318 179.358 247.905 178.316C246.363 175.171 243.253 171.134 241.221 168.199C240.494 167.146 239.369 166.088 238.82 165.021L239.156 164.756C246.011 166.023 251.546 166.934 258.437 165.433C265.981 163.79 273.462 160.441 277.789 153.756C278.33 153.29 279.595 150.564 279.471 149.885C278.53 144.692 266.938 144.51 264.44 142.406L266.472 141.46C272.832 140.713 281.752 133.862 285.573 128.833C286.038 128.374 286.456 127.874 286.826 127.339C290 122.8 295.134 111.485 289.486 107.243C286.122 104.716 275.461 107.482 271.32 108.274C268.485 108.838 261.942 110.376 259.464 110.587Z" fill="#811EC7"/>
<path d="M285.573 128.833C286.038 128.374 286.456 127.874 286.826 127.339C290 122.8 295.134 111.485 289.486 107.243C286.122 104.716 275.461 107.482 271.32 108.274C267.173 111.41 262.247 108.724 260.211 116.059L260.474 116.461C265.501 115.158 264.078 116.294 268.856 112.798L269.269 113.058C269.341 114.541 269.318 115.125 269.144 116.603C271.857 117.72 279.677 112.983 281.379 116.922C282.309 119.076 281.662 127.464 279.269 128.368L279.195 128.069L279.448 128.418C278.841 126.772 279.154 126.811 277.952 125.991C276.037 125.798 273.166 128.129 272.454 129.822C273.829 129.139 275.844 127.922 277.283 127.991L277.794 128.443C277.546 131.727 270.924 136.382 268.006 137.622L264.957 138.46C266.125 139.122 265.743 138.417 267.13 138.949C261.821 141.084 247.521 142.424 241.889 141.402L241.393 143.014C243.073 142.425 245.244 142.631 247.017 142.795C253.654 143.408 259.903 142.425 266.472 141.46C272.832 140.713 281.752 133.862 285.573 128.833Z" fill="#6429D6"/>
<path d="M285.572 128.833L284.871 128.779C279.118 134.799 274.044 139.339 265.44 140.706L265.028 140.544C266.831 139.259 268.711 139.19 270.764 138.438C275.759 136.608 281.778 132.376 284.262 127.589L283.946 127.491C280.48 132.143 274.823 137.24 268.939 138.271C268.581 138.064 268.286 137.927 268.005 137.622L264.956 138.46C266.125 139.122 265.743 138.417 267.129 138.95C261.82 141.084 247.521 142.424 241.888 141.402L241.393 143.014C243.073 142.425 245.244 142.632 247.017 142.795C253.654 143.408 259.903 142.425 266.471 141.461C272.831 140.713 281.751 133.863 285.572 128.833Z" fill="#9C4DD4"/>
<path d="M277.157 112.445C279.458 112.303 284.21 112.943 285.534 112.479L285.161 111.939C282.348 110.584 281.277 110.774 278.205 110.838C277.799 112.085 278.079 111.872 277.157 112.445Z" fill="#C47CDD"/>
<path d="M278.205 110.839C276.487 110.814 273.946 110.576 272.707 111.929C273.541 112.945 275.88 112.537 277.157 112.447C278.079 111.873 277.799 112.086 278.205 110.839Z" fill="#E9A7D1"/>
<path d="M277.789 153.756L277.031 153.34C273.912 155.117 270.082 159.687 265.426 161.048C262.972 160.724 261.712 162.924 259.221 161.855C259.513 160.45 262.089 160.034 262.39 158.384L261.818 158.631C255.931 163.327 248.77 164.425 241.52 162.602L241.161 163.392L239.109 163.232L239.156 164.756C246.011 166.023 251.546 166.935 258.437 165.433C265.981 163.79 273.462 160.441 277.789 153.756Z" fill="#668CE9"/>
<path d="M265.426 161.047C262.972 160.724 261.712 162.923 259.221 161.854C259.512 160.449 262.089 160.033 262.389 158.383L261.818 158.63C255.931 163.326 248.77 164.424 241.52 162.601L241.161 163.391C248.977 165.215 258.119 164.405 265.426 161.047Z" fill="#6E1ECA"/>
<path d="M268.005 137.622C270.923 136.382 277.546 131.727 277.794 128.443L277.283 127.991C275.844 127.922 273.829 129.139 272.454 129.822C267.711 134.462 262.986 137.261 256.162 137.278C253.241 137.285 247.237 136.206 244.942 137.493C249.127 140.541 260.232 139.651 264.957 138.46L268.005 137.622Z" fill="#913CD0"/>
<path d="M234.344 156.433L233.483 157.075C233.818 158.859 239.795 161.873 241.52 162.601C248.769 164.424 255.931 163.326 261.818 158.63C260.164 157.926 251.397 159.753 248.409 159.78C242.387 159.836 239.538 157.367 234.344 156.433Z" fill="#9C4DD4"/>
<path d="M247.905 178.316C245.76 178.64 246.062 179.702 245.023 181.453C239.276 182.797 234.852 182.4 229.037 182.033C228.639 182.008 228.056 182.369 227.781 182.668C231.635 184.103 245.295 187.173 248.541 182.118C249.133 181.197 248.318 179.358 247.905 178.316Z" fill="#668CE9"/>
<path d="M234.344 171.204C228.671 168.207 227.611 165.201 223.127 172.185C222.471 171.625 221.733 171.473 220.911 171.229C221.063 173.978 221.249 175.34 223.768 176.833C225.022 177.524 226.282 178.28 227.633 178.74C231.08 179.302 235.851 180.141 239.099 178.564C239.276 178.176 239.439 177.945 239.382 177.526C238.056 175.257 236.9 176.856 234.344 171.204Z" fill="#913CD0"/>
<path d="M223.127 172.184C222.471 171.625 221.733 171.473 220.911 171.229C221.063 173.978 221.249 175.34 223.768 176.832C225.022 177.523 226.282 178.28 227.632 178.739C231.08 179.301 235.851 180.141 239.099 178.563C239.276 178.176 239.439 177.945 239.382 177.526C234.09 176.204 230.372 177.549 226.402 174.666C225.636 173.74 224.166 172.921 223.127 172.184Z" fill="#9C64DD"/>
<path d="M223.127 172.184C222.471 171.625 221.733 171.473 220.911 171.229C221.063 173.978 221.249 175.34 223.767 176.832C223.693 176.299 223.864 175.762 223.985 175.229C225.109 174.458 224.833 174.693 226.401 174.666C225.636 173.74 224.166 172.921 223.127 172.184Z" fill="#9C4DD4"/>
<path d="M267.367 126.751C269.7 125.588 273.885 123.437 273.986 120.546L273.373 119.945C270.805 119.035 269.237 119.747 266.547 120.402C263.771 121.086 258.216 122.594 257.858 125.935C259.201 128.901 265.055 127.81 267.367 126.751Z" fill="#9C64DD"/>
<path d="M266.547 120.402C263.771 121.086 258.216 122.595 257.858 125.936C259.201 128.901 265.055 127.81 267.367 126.751C265.554 126.631 265.013 126.548 263.812 125.202C263.188 122.737 264.49 121.603 266.547 120.402Z" fill="#9C4DD4"/>
<path d="M249.786 150.241C248.963 150.346 248.878 150.399 248.235 150.931C248.214 154.722 256.198 153.795 258.281 153.509C258.547 153.302 259.111 152.722 259.375 152.465L259.369 151.649C257.398 149.764 252.363 150.103 249.786 150.241Z" fill="#9C64DD"/>
<path d="M268.664 147.248C268.476 147.501 268.528 147.482 268.447 147.811C269.988 149.11 273.012 153.474 273.185 153.589C274.888 149.462 272.067 148.73 268.664 147.248Z" fill="#9C64DD"/>
<path d="M265.002 57.9731C264.757 55.0618 260.748 46.8032 258.676 44.5359C254.795 40.2885 252.008 39.3475 247.478 43.3034C241.313 47.9098 236.835 55.921 234.287 63.0128C234.006 63.7896 232.88 66.9396 232.503 67.3236C244.665 84.9463 248.939 97.932 247.494 119.681C250.177 118.387 257.262 112.587 259.464 110.587C262.272 106.725 263.94 104.876 266.077 100.353C270.449 91.0886 268.7 67.2237 265.002 57.9731Z" fill="#8621CB"/>
<path d="M265.001 57.9731C264.757 55.0618 260.748 46.8032 258.676 44.5359C254.795 40.2885 252.008 39.3475 247.478 43.3034L247.731 43.8675C246.208 45.3092 243.556 47.5186 243.445 49.5338C243.967 49.8683 244.144 50.0664 244.754 50.0054C245.499 49.1144 246.226 48.0349 247.305 47.6885L247.763 47.9368L248.86 47.5133C250.31 47.5247 251.79 47.7084 252.681 48.9899L252.601 49.8574C254.256 49.9794 256.043 49.5861 257.636 49.1835L258.112 49.2102C257.388 51.3109 252.502 50.525 250.365 51.5794L251.812 52.8445C251.819 55.1181 246.771 57.859 246.148 59.7485C245.322 62.2457 241.818 69.1974 241.822 71.5309L242.042 71.6866L242.45 71.0805L242.857 71.4086C244.243 70.6203 246.28 66.3126 247.851 64.8871L248.127 65.0467C249.221 64.5864 250.464 63.55 251.405 63.2735C255.077 62.193 256.922 64.9956 261.567 65.9472C261.172 64.3488 260.921 63.4614 260.301 61.9212C259.77 60.597 257.313 57.4368 257.394 56.4385C258.029 55.1024 257.666 55.3795 258.827 54.7494C261.921 54.7969 264.072 59.1746 264.992 59.8056C264.914 59.2513 264.724 58.8829 264.51 58.3709L265.001 57.9731Z" fill="#6429D6"/>
<path d="M251.842 46.343L248.86 47.514C250.311 47.5254 251.79 47.7091 252.681 48.9906L252.601 49.8581C254.256 49.9801 256.043 49.5868 257.636 49.1842C255.573 47.7125 254.189 47.2138 251.842 46.343Z" fill="#C47CDD"/>
<path d="M253.512 66.9053C253.116 65.7553 252.744 65.514 251.838 64.9998C250.25 65.2507 250.798 65.0567 249.482 66.2173L249.176 66.7404L248.141 68.8462L247.798 69.2298C246.278 72.653 244.362 80.9197 247.053 83.9562C247.81 84.2697 248.532 84.5532 249.326 84.1398C255.398 80.9778 255.637 72.1602 253.512 66.9053Z" fill="#9C4DD4"/>
<path d="M253.512 66.9057C253.116 65.7556 252.744 65.5144 251.839 65.0002C250.25 65.2511 250.798 65.0571 249.482 66.2177L249.176 66.7408L248.141 68.8466C248.626 69.4298 249.858 70.9841 250.342 71.428C250.896 71.4031 251.271 71.2254 251.791 71.0371C252.789 69.8121 252.883 69.5509 253.35 68.0231L253.376 69.4508C253.916 68.7867 253.61 68.0167 253.512 66.9057Z" fill="#C47CDD"/>
<path d="M250.342 71.4284C251.679 70.2219 252.071 69.5124 251.479 67.8031C250.659 66.9642 250.322 66.9683 249.176 66.7411L248.141 68.8469C248.626 69.4302 249.858 70.9844 250.342 71.4284Z" fill="#E5D2F5"/>
<path d="M248.86 47.5133L247.763 47.9368C246.021 49.6856 245.304 50.5458 243.843 52.5398C244.278 53.1129 244.7 53.7737 245.287 54.1579C247.865 52.0905 249.529 51.0429 252.601 49.8574L252.681 48.9899C251.79 47.7084 250.31 47.5247 248.86 47.5133Z" fill="#E5D2F5"/>
<path d="M243.843 52.5405C241.272 54.7859 237.73 60.4781 237.004 63.92C239.732 59.728 241.667 57.7323 245.287 54.1586C244.7 53.7744 244.278 53.1136 243.843 52.5405Z" fill="#C47CDD"/>
<path d="M248.127 65.0469L247.851 64.8872C246.28 66.3127 244.243 70.6204 242.857 71.4087L242.574 73.8951L242.763 74.1196C243.9 71.9913 244.794 69.8391 246.924 68.6702L247.798 69.2298L248.141 68.8461L249.176 66.7403L249.483 66.2173L248.127 65.0469Z" fill="#6E1ECA"/>
<path d="M250 110C250 165.781 205.228 211 150 211C94.7715 211 50 165.781 50 110C50 54.2192 94.7715 9 150 9C205.228 9 250 54.2192 250 110ZM60 110C60 160.203 100.294 200.9 150 200.9C199.706 200.9 240 160.203 240 110C240 59.7973 199.706 19.1 150 19.1C100.294 19.1 60 59.7973 60 110Z" fill="url(#paint0_linear_66_970)"/>
<path d="M147.427 4.8554C148.808 2.09213 149.676 -1.03465 152.569 2.52148L152.502 2.59054L152.811 3.06492C153.227 4.29701 153.449 4.82491 154.22 5.89867L154.604 5.85041C155.123 6.43243 155.597 6.42859 156.388 6.49988C158.096 6.85511 159.927 7.04514 161.08 8.45131C161.494 9.62363 161.417 9.84719 160.751 10.88L158.976 12.6904C158.278 13.3044 157.368 14.0368 156.837 14.7743C157.378 16.0882 157.571 19.0975 157.973 20.0066C157.208 24.8292 152.739 19.3608 150.463 19.5456C148.301 19.7211 143.902 24.479 143.03 20.2052C143.164 19.3784 143.325 18.6104 143.499 17.7939L143.941 14.4496C143.365 13.8112 142.792 13.3904 142.122 12.8641C141.876 12.547 141.086 11.7978 140.765 11.4769L140.58 11.281C139.671 10.3111 139.447 10.1016 139.495 8.75181C140.771 7.22831 142.608 7.30808 144.544 7.10471C146.765 6.85813 146.604 6.84965 147.427 4.8554Z" fill="#FD7C2E"/>
<path d="M147.427 4.8554C148.808 2.09213 149.676 -1.03465 152.569 2.52148L152.502 2.59054L152.811 3.06492C153.227 4.29701 153.449 4.82491 154.22 5.89867L154.604 5.85041C155.123 6.43243 155.597 6.42859 156.389 6.49988C158.096 6.85511 159.927 7.04514 161.08 8.45131L159.774 9.24982C158.855 10.0812 155.375 11.2295 153.91 11.8994L153.879 12.2631C152.874 12.435 152.081 13.3098 151.039 13.2381C149.216 13.1129 142.156 10.9224 141.06 9.70198C140.963 9.60101 139.708 8.88025 139.496 8.75181C140.771 7.22831 142.609 7.30808 144.545 7.10471C146.765 6.85813 146.604 6.84965 147.427 4.8554Z" fill="#FEB840"/>
<path d="M151.253 7.29079C150.974 5.85089 150.841 6.37879 150.066 5.18769C150.173 4.48228 151.84 3.21807 152.503 2.59082L152.811 3.0652C153.227 4.29729 153.449 4.82519 154.221 5.89895L154.604 5.85069C155.123 6.4327 155.597 6.42887 156.389 6.50016C158.097 6.85538 159.928 7.04542 161.08 8.45159L159.774 9.2501C158.856 10.0815 155.375 11.2298 153.91 11.8997C152.918 12.1626 152.228 12.0447 151.235 11.8151L151.037 11.4417C151.207 11.0543 151.299 11.083 151.687 10.819C151.102 10.2362 151.261 8.25247 151.253 7.29079Z" fill="#FDDC80"/>
<path d="M151.253 7.29079C150.974 5.85089 150.841 6.37879 150.066 5.18769C150.173 4.48228 151.84 3.21807 152.503 2.59082L152.811 3.0652C153.227 4.29729 153.449 4.82519 154.221 5.89895L154.604 5.85069C155.123 6.4327 155.597 6.42887 156.389 6.50016C153.74 6.19501 153.334 6.51611 151.792 8.83065C151.37 8.44755 151.39 7.94429 151.253 7.29079Z" fill="#F9F2C4"/>
<path d="M154.22 5.89918C153.439 6.4602 151.332 6.65447 150.94 5.44581C151.136 4.64589 152.198 3.71631 152.811 3.06543C153.227 4.29752 153.449 4.82542 154.22 5.89918Z" fill="#FEF7E0"/>
<path d="M151.687 10.8189C151.996 10.3454 152.038 10.262 152.2 9.73811L152.236 9.61512C152.533 9.42993 158.563 9.38147 159.774 9.25C158.856 10.0814 155.375 11.2297 153.91 11.8996C152.919 12.1625 152.228 12.0446 151.235 11.815L151.037 11.4416C151.207 11.0542 151.3 11.0829 151.687 10.8189Z" fill="#FBAF50"/>
<path d="M139.496 8.75301C140.771 7.2295 142.609 7.30927 144.545 7.10591C145.102 7.09985 146.137 7.01564 146.569 7.25818L146.652 7.43206C146.89 8.04013 147.114 8.65284 147.326 9.2702C146.149 10.4201 142.641 9.92694 141.06 9.70318C140.963 9.6022 139.708 8.88145 139.496 8.75301Z" fill="#FDDC80"/>
<path d="M144.544 7.10478C146.765 6.8582 146.604 6.84972 147.427 4.85547C148.025 5.08387 148.554 5.10791 148.747 5.74324C149.024 6.64818 149.238 7.36853 148.592 8.14906C147.688 8.47642 147.387 8.01254 146.652 7.43093L146.569 7.25705C146.137 7.01451 145.102 7.09872 144.544 7.10478Z" fill="#FBAF50"/>
<path d="M140.765 11.4775C143.105 11.936 144.124 12.3734 146.268 13.4415C144.944 15.0442 144.766 17.618 143.573 17.8286L143.499 17.7945L143.941 14.4502C143.365 13.8119 142.792 13.391 142.122 12.8647C141.875 12.5477 141.086 11.7984 140.765 11.4775Z" fill="#FC7A3D"/>
<path d="M161.08 8.45215C161.494 9.62446 161.417 9.84802 160.751 10.8808C159.742 10.8511 159.485 10.944 158.516 11.252C156.71 11.2017 155.406 12.1484 153.879 12.2639L153.91 11.9002C155.375 11.2304 158.856 10.0821 159.774 9.25066L161.08 8.45215Z" fill="#FEA03C"/>
<path d="M158.516 11.2514C159.485 10.9435 159.741 10.8506 160.751 10.8802L158.976 12.6907C158.278 13.3046 157.367 14.0371 156.836 14.7746C156.251 14.5925 155.726 14.3275 155.367 13.8214C155.561 12.7905 157.357 12.0822 158.516 11.2514Z" fill="#FC7A3D"/>
<path d="M147.883 14.5835C150.544 14.5102 149.377 17.1697 148.511 18.4997C147.716 17.581 146.747 16.7254 146.769 15.5248C147.183 14.7693 146.993 15.0072 147.883 14.5835Z" fill="#FBAF50"/>
<path d="M152.569 2.52235C153.412 1.53845 152.809 1.07841 153.546 0C153.792 0.826175 153.534 2.43571 153.38 3.30026C153.77 4.17975 154.123 5.01581 154.603 5.85128L154.22 5.89954C153.449 4.82578 153.227 4.29789 152.811 3.06579L152.502 2.59141L152.569 2.52235Z" fill="#64808A" fill-opacity="0.960784"/>
</g>
<defs>
<linearGradient id="paint0_linear_66_970" x1="71" y1="169" x2="205.5" y2="33.5" gradientUnits="userSpaceOnUse">
<stop stop-color="#CB54E8"/>
<stop offset="0.5" stop-color="#FA7F9A"/>
<stop offset="0.743157" stop-color="#FCC878"/>
<stop offset="1" stop-color="#B155EC"/>
</linearGradient>
<clipPath id="clip0_66_970">
<rect width="299.922" height="220" fill="white"/>
</clipPath>
</defs>
</svg>
